<svg width="119" height="19" viewBox="0 0 119 19" fill="none" xmlns="http://www.w3.org/2000/svg">
<path d="M8.73498 2.35105C8.97394 1.61292 10.0182 1.61291 10.2572 2.35105L11.4442 6.01753C11.5511 6.34787 11.8589 6.57151 12.2061 6.57114L16.0599 6.56699C16.8358 6.56616 17.1585 7.55935 16.5303 8.01471L13.4101 10.2766C13.129 10.4804 13.0114 10.8422 13.1191 11.1723L14.3139 14.8362C14.5544 15.5739 13.7096 16.1877 13.0824 15.731L9.96702 13.4624C9.68633 13.258 9.30585 13.258 9.02517 13.4624L5.9098 15.731C5.28261 16.1877 4.43775 15.5739 4.6783 14.8363L5.87313 11.1723C5.98078 10.8422 5.86321 10.4804 5.58208 10.2766L2.46185 8.01471C1.83368 7.55935 2.15638 6.56616 2.93224 6.56699L6.78606 6.57114C7.13327 6.57151 7.44109 6.34787 7.54803 6.01753L8.73498 2.35105Z" fill="#F27C22"/>
<path d="M33.735 2.35105C33.9739 1.61292 35.0182 1.61291 35.2572 2.35105L36.4442 6.01753C36.5511 6.34787 36.8589 6.57151 37.2061 6.57114L41.0599 6.56699C41.8358 6.56616 42.1585 7.55935 41.5303 8.01471L38.4101 10.2766C38.129 10.4804 38.0114 10.8422 38.1191 11.1723L39.3139 14.8362C39.5544 15.5739 38.7096 16.1877 38.0824 15.731L34.967 13.4624C34.6863 13.258 34.3059 13.258 34.0252 13.4624L30.9098 15.731C30.2826 16.1877 29.4378 15.5739 29.6783 14.8363L30.8731 11.1723C30.9808 10.8422 30.8632 10.4804 30.5821 10.2766L27.4618 8.01471C26.8337 7.55935 27.1564 6.56616 27.9322 6.56699L31.7861 6.57114C32.1333 6.57151 32.4411 6.34787 32.548 6.01753L33.735 2.35105Z" fill="#F27C22"/>
<path d="M58.735 2.35105C58.9739 1.61292 60.0182 1.61291 60.2572 2.35105L61.4442 6.01753C61.5511 6.34787 61.8589 6.57151 62.2061 6.57114L66.0599 6.56699C66.8358 6.56616 67.1585 7.55935 66.5303 8.01471L63.4101 10.2766C63.129 10.4804 63.0114 10.8422 63.1191 11.1723L64.3139 14.8362C64.5544 15.5739 63.7096 16.1877 63.0824 15.731L59.967 13.4624C59.6863 13.258 59.3059 13.258 59.0252 13.4624L55.9098 15.731C55.2826 16.1877 54.4378 15.5739 54.6783 14.8363L55.8731 11.1723C55.9808 10.8422 55.8632 10.4804 55.5821 10.2766L52.4618 8.01471C51.8337 7.55935 52.1564 6.56616 52.9322 6.56699L56.7861 6.57114C57.1333 6.57151 57.4411 6.34787 57.548 6.01753L58.735 2.35105Z" fill="#F27C22"/>
<path d="M83.735 2.35105C83.9739 1.61292 85.0182 1.61291 85.2572 2.35105L86.4442 6.01753C86.5511 6.34787 86.8589 6.57151 87.2061 6.57114L91.0599 6.56699C91.8358 6.56616 92.1585 7.55935 91.5303 8.01471L88.4101 10.2766C88.129 10.4804 88.0114 10.8422 88.1191 11.1723L89.3139 14.8362C89.5544 15.5739 88.7096 16.1877 88.0824 15.731L84.967 13.4624C84.6863 13.258 84.3059 13.258 84.0252 13.4624L80.9098 15.731C80.2826 16.1877 79.4378 15.5739 79.6783 14.8363L80.8731 11.1723C80.9808 10.8422 80.8632 10.4804 80.5821 10.2766L77.4618 8.01471C76.8337 7.55935 77.1564 6.56616 77.9322 6.56699L81.7861 6.57114C82.1333 6.57151 82.4411 6.34787 82.548 6.01753L83.735 2.35105Z" fill="#F27C22"/>
<path d="M108.735 2.35105C108.974 1.61292 110.018 1.61291 110.257 2.35105L111.444 6.01753C111.551 6.34787 111.859 6.57151 112.206 6.57114L116.06 6.56699C116.836 6.56616 117.159 7.55935 116.53 8.01471L113.41 10.2766C113.129 10.4804 113.011 10.8422 113.119 11.1723L114.314 14.8362C114.554 15.5739 113.71 16.1877 113.082 15.731L109.967 13.4624C109.686 13.258 109.306 13.258 109.025 13.4624L105.91 15.731C105.283 16.1877 104.438 15.5739 104.678 14.8363L105.873 11.1723C105.981 10.8422 105.863 10.4804 105.582 10.2766L102.462 8.01471C101.834 7.55935 102.156 6.56616 102.932 6.56699L106.786 6.57114C107.133 6.57151 107.441 6.34787 107.548 6.01753L108.735 2.35105Z" fill="#F27C22"/>
</svg>
