<svg width="25" height="25" viewBox="0 0 25 25" fill="none" xmlns="http://www.w3.org/2000/svg">
<path d="M14.9776 10.0402L14.9781 12.9402L17.5781 12.9397C17.7781 12.9397 17.8782 13.1397 17.8782 13.3397L17.4786 15.2397C17.4786 15.3397 17.2786 15.4398 17.1786 15.4398L14.9786 15.4402L14.9801 22.7402L11.9801 22.7408L11.9787 15.5408L10.2787 15.5412C10.0787 15.5412 9.97864 15.4412 9.9786 15.2412L9.97822 13.3412C9.97819 13.1412 10.0782 13.0412 10.2782 13.0412L11.9782 13.0408L11.9775 9.74082C11.9772 8.04082 13.2769 6.74056 14.9769 6.74023L17.6769 6.7397C17.8769 6.73966 17.9769 6.83964 17.977 7.03964L17.9775 9.43964C17.9775 9.63964 17.8775 9.73966 17.6775 9.7397L15.2775 9.74017C15.0775 9.74021 14.9775 9.84023 14.9776 10.0402Z" stroke="white" stroke-width="1.5" stroke-miterlimit="10" stroke-linecap="round"/>
<path d="M15.98 22.7401L9.98 22.7413C4.98 22.7423 2.97961 20.7427 2.97863 15.7427L2.97745 9.74268C2.97647 4.74268 4.97607 2.74228 9.97607 2.7413L15.9761 2.74012C20.9761 2.73914 22.9765 4.73875 22.9774 9.73875L22.9786 15.7387C22.9796 20.7387 20.98 22.7391 15.98 22.7401Z" stroke="white" stroke-width="1.5" stroke-linecap="round" stroke-linejoin="round"/>
</svg>
