<svg width="189" height="126" viewBox="0 0 189 126" fill="none" xmlns="http://www.w3.org/2000/svg">
<rect x="0.329346" width="188.333" height="126" rx="6" fill="#3B444D"/>
<path d="M97.8284 39.5033L97.8294 44.3366L102.163 44.3358C102.496 44.3357 102.663 44.669 102.663 45.0023L101.997 48.1691C101.997 48.3358 101.664 48.5025 101.497 48.5026L97.8302 48.5033L97.8326 60.6699L92.8326 60.6709L92.8302 48.6709L89.9969 48.6715C89.6636 48.6715 89.4969 48.5049 89.4968 48.1716L89.4962 45.0049C89.4961 44.6716 89.6627 44.5049 89.9961 44.5048L92.8294 44.5043L92.8283 39.0043C92.8278 36.1709 94.994 34.0038 97.8274 34.0033L102.327 34.0024C102.661 34.0023 102.827 34.169 102.827 34.5023L102.828 38.5023C102.828 38.8356 102.662 39.0023 102.328 39.0024L98.3283 39.0032C97.995 39.0032 97.8284 39.1699 97.8284 39.5033Z" stroke="white" stroke-width="3" stroke-miterlimit="10" stroke-linecap="round"/>
<path d="M99.4993 60.6696L89.4993 60.6716C81.1659 60.6732 77.8319 57.3405 77.8303 49.0072L77.8283 39.0072C77.8267 30.6739 81.1594 27.3399 89.4927 27.3382L99.4927 27.3363C107.826 27.3346 111.16 30.6673 111.162 39.0007L111.164 49.0007C111.165 57.334 107.833 60.668 99.4993 60.6696Z" stroke="white" stroke-width="3" stroke-linecap="round" stroke-linejoin="round"/>
<path d="M77.8875 97.0879C77.0875 97.0879 76.3621 96.9279 75.7115 96.6079C75.0608 96.2879 74.4955 95.8559 74.0155 95.3119C73.5461 94.7572 73.1835 94.1385 72.9275 93.4559C72.6715 92.7625 72.5435 92.0532 72.5435 91.3279C72.5435 90.5705 72.6768 89.8505 72.9435 89.1679C73.2208 88.4745 73.5995 87.8612 74.0795 87.3279C74.5701 86.7839 75.1408 86.3572 75.7915 86.0479C76.4421 85.7279 77.1515 85.5679 77.9195 85.5679C78.7195 85.5679 79.4448 85.7332 80.0955 86.0639C80.7461 86.3945 81.3061 86.8372 81.7755 87.3919C82.2448 87.9465 82.6075 88.5652 82.8635 89.2479C83.1195 89.9305 83.2475 90.6292 83.2475 91.3439C83.2475 92.1012 83.1141 92.8265 82.8475 93.5199C82.5808 94.2025 82.2021 94.8159 81.7115 95.3599C81.2315 95.8932 80.6661 96.3145 80.0155 96.6239C79.3648 96.9332 78.6555 97.0879 77.8875 97.0879ZM73.9995 91.3279C73.9995 91.9039 74.0901 92.4639 74.2715 93.0079C74.4635 93.5412 74.7301 94.0159 75.0715 94.4319C75.4128 94.8479 75.8235 95.1785 76.3035 95.4239C76.7835 95.6692 77.3168 95.7919 77.9035 95.7919C78.5115 95.7919 79.0555 95.6639 79.5355 95.4079C80.0155 95.1519 80.4208 94.8105 80.7515 94.3839C81.0928 93.9572 81.3488 93.4772 81.5195 92.9439C81.7008 92.4105 81.7915 91.8719 81.7915 91.3279C81.7915 90.7519 81.6955 90.1972 81.5035 89.6639C81.3221 89.1305 81.0555 88.6559 80.7035 88.2399C80.3621 87.8132 79.9515 87.4825 79.4715 87.2479C79.0021 87.0025 78.4795 86.8799 77.9035 86.8799C77.2955 86.8799 76.7515 87.0079 76.2715 87.2639C75.7915 87.5092 75.3808 87.8452 75.0395 88.2719C74.7088 88.6985 74.4528 89.1785 74.2715 89.7119C74.0901 90.2345 73.9995 90.7732 73.9995 91.3279ZM94.1182 94.0799C94.1182 94.6665 93.9689 95.1785 93.6702 95.6159C93.3715 96.0532 92.9662 96.3945 92.4542 96.6399C91.9529 96.8852 91.3982 97.0079 90.7902 97.0079H85.3982V85.6479H91.0462C91.5795 85.6479 92.0382 85.7919 92.4222 86.0799C92.8169 86.3572 93.1155 86.7199 93.3182 87.1679C93.5315 87.6052 93.6382 88.0639 93.6382 88.5439C93.6382 89.0985 93.4942 89.6212 93.2062 90.1119C92.9289 90.5919 92.5289 90.9492 92.0062 91.1839C92.6569 91.3759 93.1689 91.7332 93.5422 92.2559C93.9262 92.7679 94.1182 93.3759 94.1182 94.0799ZM92.6622 93.8239C92.6622 93.4719 92.5822 93.1465 92.4222 92.8479C92.2729 92.5492 92.0649 92.3092 91.7982 92.1279C91.5422 91.9465 91.2435 91.8559 90.9022 91.8559H86.8382V95.7599H90.7902C91.1422 95.7599 91.4569 95.6692 91.7342 95.4879C92.0222 95.3065 92.2462 95.0719 92.4062 94.7839C92.5769 94.4852 92.6622 94.1652 92.6622 93.8239ZM86.8382 86.8959V90.6879H90.4542C90.7955 90.6879 91.0942 90.6025 91.3502 90.4319C91.6169 90.2612 91.8249 90.0319 91.9742 89.7439C92.1342 89.4559 92.2142 89.1412 92.2142 88.7999C92.2142 88.4372 92.1395 88.1172 91.9902 87.8399C91.8515 87.5519 91.6542 87.3225 91.3982 87.1519C91.1529 86.9812 90.8702 86.8959 90.5502 86.8959H86.8382ZM103.995 95.7279V97.0079H96.2826V85.6479H103.851V86.9279H97.7226V90.6079H103.051V91.8079H97.7226V95.7279H103.995ZM107.56 88.3039V97.0079H106.12V85.6479H107.336L114.28 94.5279V85.6639H115.72V97.0079H114.408L107.56 88.3039Z" fill="white"/>
</svg>
