<svg width="189" height="126" viewBox="0 0 189 126" fill="none" xmlns="http://www.w3.org/2000/svg">
<rect x="-0.00396729" width="188.333" height="126" rx="6" fill="#145FCA"/>
<path d="M97.4951 39.5032L97.4961 44.3366L101.829 44.3357C102.163 44.3357 102.329 44.669 102.33 45.0023L101.663 48.1691C101.664 48.3358 101.33 48.5025 101.164 48.5025L97.4969 48.5032L97.4993 60.6699L92.4993 60.6709L92.4969 48.6709L89.6636 48.6715C89.3303 48.6715 89.1636 48.5049 89.1635 48.1716L89.1629 45.0049C89.1628 44.6716 89.3294 44.5049 89.6628 44.5048L92.4961 44.5042L92.495 39.0042C92.4945 36.1709 94.6607 34.0038 97.494 34.0032L101.994 34.0024C102.327 34.0023 102.494 34.1689 102.494 34.5023L102.495 38.5023C102.495 38.8356 102.328 39.0023 101.995 39.0024L97.995 39.0031C97.6617 39.0032 97.4951 39.1699 97.4951 39.5032Z" stroke="white" stroke-width="3" stroke-miterlimit="10" stroke-linecap="round"/>
<path d="M99.166 60.6697L89.166 60.6716C80.8326 60.6733 77.4986 57.3406 77.497 49.0072L77.495 39.0072C77.4934 30.6739 80.8261 27.3399 89.1594 27.3383L99.1594 27.3363C107.493 27.3347 110.827 30.6674 110.828 39.0007L110.83 49.0007C110.832 57.334 107.499 60.668 99.166 60.6697Z" stroke="white" stroke-width="3" stroke-linecap="round" stroke-linejoin="round"/>
<path d="M77.5541 97.0878C76.7541 97.0878 76.0288 96.9278 75.3781 96.6078C74.7275 96.2878 74.1621 95.8558 73.6821 95.3118C73.2128 94.7571 72.8501 94.1385 72.5941 93.4558C72.3381 92.7625 72.2101 92.0531 72.2101 91.3278C72.2101 90.5705 72.3435 89.8505 72.6101 89.1678C72.8875 88.4745 73.2661 87.8611 73.7461 87.3278C74.2368 86.7838 74.8075 86.3571 75.4581 86.0478C76.1088 85.7278 76.8181 85.5678 77.5861 85.5678C78.3861 85.5678 79.1115 85.7331 79.7621 86.0638C80.4128 86.3945 80.9728 86.8371 81.4421 87.3918C81.9115 87.9465 82.2741 88.5651 82.5301 89.2478C82.7861 89.9305 82.9141 90.6291 82.9141 91.3438C82.9141 92.1011 82.7808 92.8265 82.5141 93.5198C82.2475 94.2025 81.8688 94.8158 81.3781 95.3598C80.8981 95.8931 80.3328 96.3145 79.6821 96.6238C79.0315 96.9331 78.3221 97.0878 77.5541 97.0878ZM73.6661 91.3278C73.6661 91.9038 73.7568 92.4638 73.9381 93.0078C74.1301 93.5411 74.3968 94.0158 74.7381 94.4318C75.0795 94.8478 75.4901 95.1785 75.9701 95.4238C76.4501 95.6691 76.9835 95.7918 77.5701 95.7918C78.1781 95.7918 78.7221 95.6638 79.2021 95.4078C79.6821 95.1518 80.0875 94.8105 80.4181 94.3838C80.7595 93.9571 81.0155 93.4771 81.1861 92.9438C81.3675 92.4105 81.4581 91.8718 81.4581 91.3278C81.4581 90.7518 81.3621 90.1971 81.1701 89.6638C80.9888 89.1305 80.7221 88.6558 80.3701 88.2398C80.0288 87.8131 79.6181 87.4825 79.1381 87.2478C78.6688 87.0025 78.1461 86.8798 77.5701 86.8798C76.9621 86.8798 76.4181 87.0078 75.9381 87.2638C75.4581 87.5091 75.0475 87.8451 74.7061 88.2718C74.3755 88.6985 74.1195 89.1785 73.9381 89.7118C73.7568 90.2345 73.6661 90.7731 73.6661 91.3278ZM93.7849 94.0798C93.7849 94.6665 93.6356 95.1785 93.3369 95.6158C93.0382 96.0531 92.6329 96.3945 92.1209 96.6398C91.6196 96.8851 91.0649 97.0078 90.4569 97.0078H85.0649V85.6478H90.7129C91.2462 85.6478 91.7049 85.7918 92.0889 86.0798C92.4836 86.3571 92.7822 86.7198 92.9849 87.1678C93.1982 87.6051 93.3049 88.0638 93.3049 88.5438C93.3049 89.0985 93.1609 89.6211 92.8729 90.1118C92.5956 90.5918 92.1956 90.9491 91.6729 91.1838C92.3236 91.3758 92.8356 91.7331 93.2089 92.2558C93.5929 92.7678 93.7849 93.3758 93.7849 94.0798ZM92.3289 93.8238C92.3289 93.4718 92.2489 93.1465 92.0889 92.8478C91.9396 92.5491 91.7316 92.3091 91.4649 92.1278C91.2089 91.9465 90.9102 91.8558 90.5689 91.8558H86.5049V95.7598H90.4569C90.8089 95.7598 91.1236 95.6691 91.4009 95.4878C91.6889 95.3065 91.9129 95.0718 92.0729 94.7838C92.2436 94.4851 92.3289 94.1651 92.3289 93.8238ZM86.5049 86.8958V90.6878H90.1209C90.4622 90.6878 90.7609 90.6025 91.0169 90.4318C91.2836 90.2611 91.4916 90.0318 91.6409 89.7438C91.8009 89.4558 91.8809 89.1411 91.8809 88.7998C91.8809 88.4371 91.8062 88.1171 91.6569 87.8398C91.5182 87.5518 91.3209 87.3225 91.0649 87.1518C90.8196 86.9811 90.5369 86.8958 90.2169 86.8958H86.5049ZM103.661 95.7278V97.0078H95.9493V85.6478H103.517V86.9278H97.3893V90.6078H102.717V91.8078H97.3893V95.7278H103.661ZM107.227 88.3038V97.0078H105.787V85.6478H107.003L113.947 94.5278V85.6638H115.387V97.0078H114.075L107.227 88.3038Z" fill="white"/>
</svg>
