<svg width="16" height="16" viewBox="0 0 16 16" fill="none" xmlns="http://www.w3.org/2000/svg">
<path d="M15.2155 13.6425C15.2155 13.6425 14.25 14.5909 14.0134 14.8689C13.6279 15.2802 13.1738 15.4745 12.5784 15.4745C12.5211 15.4745 12.4601 15.4745 12.4028 15.4706C11.2694 15.3983 10.216 14.9565 9.42603 14.5794C7.26594 13.5359 5.36918 12.0543 3.793 10.1767C2.49161 8.61133 1.62146 7.16405 1.04518 5.61014C0.690258 4.66179 0.5605 3.92292 0.617746 3.22594C0.65591 2.78034 0.827649 2.4109 1.14441 2.09479L2.44581 0.796047C2.63281 0.62085 2.83127 0.525635 3.0259 0.525635C3.26634 0.525635 3.46097 0.670362 3.5831 0.792238C3.58692 0.796047 3.59073 0.799855 3.59455 0.803664C3.82735 1.02076 4.0487 1.24546 4.2815 1.48541C4.39981 1.60728 4.52194 1.72916 4.64406 1.85484L5.68594 2.89459C6.09048 3.29831 6.09048 3.67155 5.68594 4.07527C5.57527 4.18572 5.46841 4.29617 5.35773 4.40281C5.03715 4.73035 5.28899 4.47903 4.95696 4.7761C4.94933 4.78372 4.94169 4.78753 4.93788 4.79514C4.60966 5.12268 4.67073 5.44261 4.73942 5.6597C4.74324 5.67113 4.74706 5.68255 4.75087 5.69398C5.02184 6.34906 5.40348 6.96605 5.98357 7.70112L5.98739 7.70493C7.04072 8.99986 8.1513 10.0091 9.37637 10.7823C9.53284 10.8813 9.69313 10.9613 9.84579 11.0375C9.98318 11.106 10.1129 11.1708 10.2236 11.2393C10.2389 11.2469 10.2541 11.2584 10.2694 11.266C10.3992 11.3307 10.5213 11.3612 10.6472 11.3612C10.964 11.3612 11.1624 11.1632 11.2273 11.0984L11.9754 10.3519C12.1052 10.2224 12.3112 10.0662 12.5517 10.0662C12.7883 10.0662 12.9829 10.2148 13.1012 10.3442C13.1051 10.3481 13.1051 10.3481 13.1089 10.3519L15.2117 12.4504C15.6048 12.8389 15.2155 13.6425 15.2155 13.6425Z" stroke="white" stroke-linecap="round" stroke-linejoin="round"/>
</svg>
