<svg width="157" height="30" viewBox="0 0 157 30" fill="none" xmlns="http://www.w3.org/2000/svg">
<g clip-path="url(#clip0_106_592)">
<path d="M20.7867 30C19.3521 30 17.8839 29.7887 16.3764 29.3715C14.8689 28.9544 13.4399 28.337 12.1006 27.525C10.7556 26.713 9.60124 25.7508 8.62615 24.6329C6.58071 26.663 4.63615 27.6808 2.79245 27.6808C1.84538 27.6808 1.14489 27.4082 0.679763 26.8632C0.22024 26.3181 -0.00952148 25.6118 -0.00952148 24.7497C-0.00952148 23.1479 0.606912 21.2736 1.83417 19.1157C2.98298 17.0857 3.90763 16.0178 4.59692 15.9177C5.10688 15.9177 5.63365 16.4405 6.17163 17.4805L8.58692 22.1246C9.94308 20.3226 11.3609 18.3815 12.8459 16.3014C10.75 15.3615 9.70211 14.0044 9.70211 12.2247C9.70211 11.4627 9.88704 10.7564 10.2569 10.1112C10.6268 9.46607 11.1087 8.93771 11.6971 8.5317C12.2855 8.1257 12.8851 7.92547 13.5016 7.92547C14.3478 7.92547 14.9586 8.32036 15.3453 9.10456C15.3957 9.18243 15.4013 9.25473 15.3677 9.33259C15.3285 9.41046 15.2836 9.4327 15.2332 9.41046C15.0539 9.20467 14.7961 9.03226 14.4655 8.87653C14.1348 8.72636 13.8266 8.6485 13.5464 8.6485C13.0084 8.6485 12.5153 8.85985 12.067 9.27698C11.6187 9.69411 11.2712 10.1835 11.0302 10.7453C10.7893 11.3014 10.6884 11.7964 10.7444 12.2303C10.7444 13.5261 11.6635 14.6552 13.5072 15.6174C13.9443 14.9833 14.415 14.2937 14.925 13.5428C15.4349 12.792 15.9841 11.9855 16.5725 11.1235C21.6609 3.70412 25.8919 0 29.2655 0C31.6415 0 32.8352 1.10679 32.8352 3.31479C32.8352 5.32258 31.8489 7.68076 29.8819 10.3949C28.9124 11.7408 27.6852 12.9477 26.2001 14.01C24.7151 15.0779 23.1516 15.9177 21.4984 16.5406C19.8508 17.1635 18.2537 17.475 16.7238 17.475C16.3652 17.475 16.0121 17.4583 15.6703 17.4194C15.3285 17.3804 15.0146 17.3137 14.7288 17.208C14.062 18.0701 13.2942 19.0378 12.4256 20.1001C11.557 21.168 10.5987 22.3471 9.5508 23.6429C10.0103 24.277 10.6716 24.911 11.529 25.5451C12.3864 26.1791 13.3503 26.7464 14.4262 27.2414C15.5022 27.7364 16.5613 28.1368 17.6093 28.4427C18.6572 28.7486 19.6043 28.8988 20.4505 28.8988C21.4199 28.8988 22.3166 28.7931 23.1348 28.5762C23.9529 28.3593 24.6198 28.02 25.1298 27.5473C25.6397 27.0801 25.8975 26.4627 25.8975 25.7008V25.3949C25.8975 25.2948 25.8863 25.1891 25.8583 25.089C25.8583 25.0389 25.8527 25 25.8415 24.9722C25.8302 24.9499 25.8246 24.9221 25.8246 24.8943C25.8246 24.6385 25.9031 24.5161 26.0544 24.5161C26.3122 24.5161 26.5139 24.7108 26.6708 25.1057C26.8221 25.5006 26.9006 25.812 26.9006 26.04C26.9006 26.8243 26.5924 27.5195 25.9816 28.1146C25.3707 28.7097 24.5918 29.1769 23.6615 29.505C22.7257 29.8331 21.773 30 20.8035 30H20.7867ZM2.8709 26.6518C3.35845 26.6518 3.90203 26.4794 4.50165 26.1402C5.10127 25.7953 5.68408 25.3726 6.25008 24.8665C6.81047 24.3604 7.27 23.8654 7.62865 23.3815C7.27 22.8754 6.88893 22.2636 6.47984 21.5517C6.07075 20.8398 5.62244 20.0167 5.1349 19.0768C4.54648 17.8587 4.09817 17.3137 3.78995 17.4416C3.33043 17.5195 2.83168 18.3315 2.2937 19.8776C1.75572 21.4238 1.48673 22.8754 1.48673 24.2158C1.48673 25.8398 1.94625 26.6518 2.8653 26.6518H2.8709ZM16.4493 16.485C17.755 16.485 19.1447 16.1847 20.6298 15.5895C22.1148 14.9944 23.5158 14.2047 24.8327 13.2314C26.1497 12.2581 27.2144 11.1958 28.0382 10.0501C30.3638 6.82981 31.5295 4.37709 31.5295 2.703C31.5295 1.9911 31.3221 1.47386 30.913 1.14016C30.5039 0.812013 30.0052 0.645161 29.4168 0.645161C28.1391 0.645161 26.5532 1.71301 24.659 3.84316C24.0706 4.52725 23.2973 5.51168 22.339 6.79644C21.3807 8.07564 20.2487 9.66074 18.943 11.535C18.433 12.2692 17.867 13.0478 17.2562 13.8598C16.6454 14.6719 16.0009 15.5117 15.3397 16.3738C15.6983 16.4516 16.0682 16.4905 16.4549 16.4905L16.4493 16.485Z" fill="#0092FF"/>
<path d="M26.5026 26.2737C25.9423 26.2737 25.4715 26.0902 25.1017 25.7231C24.7318 25.356 24.5469 24.6997 24.5469 23.7598C24.5469 23.2259 24.6702 22.6141 24.9111 21.9133C25.1521 21.2181 25.4603 20.5117 25.8302 19.7998C26.2 19.0879 26.5643 18.4539 26.9229 17.8977C28.3519 15.5896 29.5344 14.4216 30.4534 14.3938C30.6832 14.3938 30.9634 14.4884 31.2996 14.6775C31.6303 14.8666 31.7984 15.0779 31.7984 15.3059L28.8843 19.0379C26.9678 21.5017 26.0095 23.2537 26.0095 24.2937C26.0095 25.1057 26.3289 25.5117 26.9678 25.5117C27.3769 25.5117 27.9092 25.3393 28.5593 25.0001C29.2094 24.6608 29.893 24.2214 30.6103 23.6875C31.3276 23.1536 32.0113 22.5807 32.6614 21.9745C33.3114 21.3627 33.8438 20.8065 34.2529 20.3004C34.5107 19.9722 34.7348 19.7442 34.9254 19.6163C35.1159 19.4884 35.2392 19.4272 35.2896 19.4272C35.3905 19.4272 35.4409 19.5051 35.4409 19.6552C35.4409 19.7831 35.2952 20.0334 34.9982 20.4172C34.7012 20.7954 34.3033 21.2403 33.7878 21.752C33.1713 22.3638 32.4933 23.0201 31.7535 23.732C31.0138 24.4439 30.2069 25.0445 29.3382 25.5395C28.4696 26.0345 27.5226 26.2793 26.497 26.2793L26.5026 26.2737ZM33.5972 12.7587C33.1601 12.7587 32.7847 12.6196 32.4652 12.3415C32.1458 12.0635 31.9833 11.7464 31.9833 11.3905C31.9833 10.6786 32.4708 10.3226 33.4403 10.3226C33.799 10.3226 34.1576 10.445 34.5163 10.6841C34.8749 10.9233 35.0543 11.2236 35.0543 11.5796C35.0543 11.8855 34.8861 12.158 34.5555 12.3972C34.2249 12.6363 33.9055 12.7587 33.5972 12.7587Z" fill="#0092FF"/>
<path d="M35.0599 25.9678C34.9086 25.9678 34.69 25.8955 34.4098 25.7564C34.1296 25.6174 33.8719 25.4505 33.6421 25.2614C33.4123 25.0723 33.2834 24.8999 33.261 24.7497C33.2386 24.5495 33.3675 23.9711 33.6645 23.02C33.9559 22.069 34.4266 20.7675 35.0655 19.1157C35.7043 17.4416 36.2423 16.1457 36.6794 15.2336C37.1165 14.3215 37.4304 13.7764 37.6377 13.5985C37.7386 13.4983 37.8787 13.4483 38.058 13.4483C38.3382 13.4483 38.6072 13.5706 38.865 13.8098C39.1228 14.049 39.2628 14.3382 39.2853 14.6663C39.2853 14.6941 38.6464 16.1902 37.3687 19.1602C36.1134 22.03 35.525 23.7431 35.6035 24.2992C36.7299 23.9433 38.6072 22.6863 41.241 20.5284C42.827 19.2102 43.9702 18.0089 44.6763 16.9299C45.3767 15.851 45.7298 14.8832 45.7298 14.0156C45.7298 13.5095 45.6065 13.0423 45.3655 12.6252C45.1246 12.208 44.6819 11.8576 44.043 11.5795C43.8637 11.5017 43.774 11.3904 43.774 11.2347C43.774 11.0067 43.9141 10.8899 44.1943 10.8899C44.934 10.8899 45.5841 11.129 46.1333 11.6129C46.6825 12.0968 46.9571 12.8198 46.9571 13.782C46.9571 14.7998 46.52 15.9455 45.6513 17.2303C44.7827 18.515 43.5387 19.8777 41.9303 21.3237C40.5237 22.5695 39.2516 23.5818 38.114 24.3715C36.9764 25.1613 35.9621 25.6897 35.0655 25.9733L35.0599 25.9678Z" fill="#0092FF"/>
<path d="M47.2989 26.346C46.4808 26.346 45.741 26.0846 45.0742 25.5673C44.4073 25.0501 44.0767 24.3549 44.0767 23.4928C44.0767 21.6908 45.1918 19.6329 47.4166 17.3248C49.6918 14.9889 51.726 13.8209 53.5137 13.8209C54.1021 13.8209 54.584 13.9822 54.9539 14.2992C55.3238 14.6163 55.5087 15.0056 55.5087 15.4616C55.5087 16.8854 54.3711 18.2814 52.0959 19.6496C50.0729 20.8676 48.3749 21.4794 46.9907 21.4794C46.7834 21.4794 46.6096 21.4572 46.4527 21.4016C46.0717 22.0857 45.8755 22.8087 45.8755 23.5706C45.8755 24.8888 46.5032 25.5506 47.7528 25.5506C49.0025 25.5506 50.6837 24.6997 52.7011 22.9978C54.259 21.752 55.5928 20.4338 56.6911 19.0378C56.9209 18.7319 57.1282 18.5818 57.302 18.5818C57.4533 18.5818 57.5317 18.6596 57.5317 18.8098C57.5317 18.96 57.4309 19.1769 57.2235 19.455C56.5062 20.3949 55.7385 21.257 54.9203 22.0467C54.1021 22.8365 53.2167 23.5595 52.2752 24.2158C50.3082 25.6396 48.6439 26.346 47.2877 26.346H47.2989ZM47.5287 20.634C48.4982 20.634 49.7647 20.1502 51.3282 19.188C51.8381 18.832 52.3425 18.4316 52.8412 17.9867C53.34 17.5417 53.7491 17.0912 54.0685 16.6352C54.3879 16.1791 54.5504 15.7731 54.5504 15.4171C54.5504 15.089 54.2814 14.9221 53.7435 14.9221C52.9757 14.9221 51.8998 15.495 50.5212 16.6352C49.8543 17.1913 49.2155 17.8031 48.6046 18.465C47.9882 19.1268 47.467 19.822 47.0299 20.5562C47.1812 20.6062 47.3494 20.634 47.5287 20.634Z" fill="#0092FF"/>
<path d="M82.8224 9.89982C82.7496 9.94988 82.6879 10.0166 82.6431 10.0945L81.8586 11.4404L81.4943 12.0633L80.3511 14.0322C80.1101 14.4438 80.4127 14.961 80.8891 14.961H81.5896C80.4632 19.2936 76.5068 22.4916 71.7883 22.4916C71.7659 22.4916 71.7378 22.4916 71.7154 22.4916C74.7976 22.4137 77.2689 19.9109 77.2689 16.8409C77.2689 13.7708 74.792 11.2569 71.7042 11.1901C71.6594 11.1901 71.6145 11.1901 71.5697 11.1901C68.4259 11.1901 65.8705 13.7207 65.8705 16.8464C65.8705 19.7274 68.0392 22.1023 70.8412 22.4582C70.8524 22.4582 70.8692 22.4582 70.8804 22.4582C70.886 22.4582 70.8916 22.4582 70.9028 22.4582C71.1214 22.486 71.34 22.4972 71.5641 22.4972C71.6033 22.4972 71.6426 22.4972 71.6818 22.4972H71.693V29.9888C71.6482 29.9888 71.6033 29.9888 71.5585 29.9888C64.2454 29.9888 58.3108 24.1045 58.3108 16.8409C58.3108 13.02 59.9527 9.5828 62.5754 7.18013C63.0125 6.77969 63.4776 6.40705 63.9708 6.06779C66.1227 4.57724 68.7341 3.69849 71.5585 3.69849C74.8536 3.69849 77.8742 4.89426 80.1942 6.87424C81.2141 7.74743 82.0995 8.77079 82.8168 9.90538L82.8224 9.89982Z" fill="white"/>
<path d="M71.7041 22.4916H71.7153C71.7377 22.4916 71.7657 22.4916 71.7882 22.4916C76.5011 22.4916 80.4631 19.2936 81.5895 14.961H80.889C80.407 14.961 80.11 14.4437 80.351 14.0322L81.4942 12.0633L81.8584 11.4404L82.643 10.0944C82.6934 10.011 82.7551 9.94428 82.8223 9.89979C83.1081 9.70512 83.5284 9.7663 83.7189 10.0944L86.011 14.0322C86.2519 14.4437 85.9493 14.961 85.473 14.961H84.6828C84.7725 15.5728 84.8173 16.2012 84.8173 16.8353C84.8173 24.0488 78.9612 29.9109 71.7041 29.9832" fill="url(#paint0_linear_106_592)"/>
<path d="M109.525 22.0857C109.525 27.2469 106.768 29.8276 101.254 29.8276H88.9644V3.69299H100.665C105.916 3.69299 108.545 5.77308 108.545 9.9277C108.545 12.6641 107.491 14.5606 105.384 15.6174C108.141 16.9355 109.52 19.0879 109.52 22.0857H109.525ZM101.254 11.4794C101.254 9.79978 100.408 8.96552 98.7208 8.96552H96.6922V13.9989H98.7993C100.436 13.9989 101.259 13.1591 101.259 11.485L101.254 11.4794ZM101.797 21.663C101.797 19.7775 100.85 18.8376 98.9506 18.8376H96.6866V24.4883H99.029C100.873 24.4883 101.797 23.5484 101.797 21.663Z" fill="white"/>
<path d="M113.179 29.8276V3.69299H129.408V6.76863C129.408 8.82091 128.405 9.84427 126.404 9.84427H120.901V13.5984H128.623V16.6963C128.623 18.7597 127.62 19.7942 125.62 19.7942H120.901V23.6652H129.408V26.7408C129.408 28.7931 128.405 29.8165 126.404 29.8165H113.179V29.8276Z" fill="white"/>
<path d="M149.274 15.3448V7.05779C149.274 4.81085 150.563 3.68738 153.135 3.68738H156.996V26.4516C156.996 28.6985 155.707 29.822 153.135 29.822C151.706 29.822 150.574 29.3325 149.739 28.3481L141.081 18.1256V26.4516C141.081 28.6985 139.792 29.822 137.22 29.822H133.359V3.70962L137.22 3.69294C138.873 3.68182 140.056 4.21018 140.767 5.27803L149.274 15.3448Z" fill="white"/>
<path d="M70.0286 22.4972H73.3853V28.3203C73.3853 29.238 72.6344 29.9833 71.7097 29.9833C70.7851 29.9833 70.0342 29.238 70.0342 28.3203V22.4972H70.0286Z" fill="white"/>
</g>
<defs>
<linearGradient id="paint0_linear_106_592" x1="85.6971" y1="14.288" x2="75.507" y2="24.3817" gradientUnits="userSpaceOnUse">
<stop stop-color="#0092FF"/>
<stop offset="1" stop-color="white"/>
</linearGradient>
<clipPath id="clip0_106_592">
<rect width="157" height="30" fill="white" transform="translate(-0.00390625)"/>
</clipPath>
</defs>
</svg>
