<svg width="189" height="126" viewBox="0 0 189 126" fill="none" xmlns="http://www.w3.org/2000/svg">
<rect x="-0.00390625" width="188.333" height="126" rx="6" fill="#3B444D"/>
<path d="M89.166 60.6716L99.166 60.6696C107.499 60.668 110.832 57.334 110.83 49.0007L110.828 39.0007C110.827 30.6673 107.493 27.3346 99.1595 27.3363L89.1595 27.3382C80.8261 27.3399 77.4935 30.6739 77.4951 39.0072L77.4971 49.0072C77.4987 57.3405 80.8327 60.6732 89.166 60.6716Z" stroke="white" stroke-width="3" stroke-linecap="round" stroke-linejoin="round"/>
<path d="M94.1639 49.8373C97.3855 49.8366 99.9967 47.2244 99.9961 44.0028C99.9954 40.7811 97.3832 38.17 94.1616 38.1706C90.9399 38.1712 88.3288 40.7834 88.3294 44.0051C88.33 47.2267 90.9422 49.8379 94.1639 49.8373Z" stroke="white" stroke-width="3" stroke-linecap="round" stroke-linejoin="round"/>
<path d="M103.555 35.6688L103.574 35.6688" stroke="white" stroke-width="3" stroke-linecap="round" stroke-linejoin="round"/>
<path d="M41.0121 87.3599C41.8014 87.3599 42.5481 87.5039 43.2521 87.7919C43.9561 88.0692 44.5801 88.4745 45.1241 89.0079C45.6681 89.5412 46.0947 90.1865 46.4041 90.9439C46.7241 91.6905 46.8841 92.5279 46.8841 93.4559C46.8841 93.6372 46.8681 93.8825 46.8361 94.1919C46.8147 94.5012 46.7614 94.8319 46.6761 95.1839C46.5907 95.5359 46.4627 95.8719 46.2921 96.1919C46.1214 96.5012 45.8867 96.7572 45.5881 96.9599C45.3001 97.1625 44.9374 97.2639 44.5001 97.2639C44.1374 97.2639 43.8601 97.1945 43.6681 97.0559C43.4761 96.9172 43.3427 96.7412 43.2681 96.5279C43.1934 96.3039 43.1401 96.0745 43.1081 95.8399C42.8094 96.1599 42.4201 96.4319 41.9401 96.6559C41.4707 96.8692 40.9534 96.9759 40.3881 96.9759C39.6094 96.9759 39.0067 96.7679 38.5801 96.3519C38.1641 95.9359 37.9561 95.4185 37.9561 94.7999C37.9561 94.2345 38.1054 93.7919 38.4041 93.4719C38.7027 93.1519 39.0814 92.9225 39.5401 92.7839C40.0094 92.6452 40.4787 92.5759 40.9481 92.5759C41.4067 92.5759 41.8067 92.6239 42.1481 92.7199C42.4894 92.8052 42.7454 92.8799 42.9161 92.9439C42.9161 92.4745 42.8627 92.0639 42.7561 91.7119C42.6494 91.3492 42.4521 91.0665 42.1641 90.8639C41.8867 90.6612 41.4921 90.5599 40.9801 90.5599C40.5534 90.5599 40.1534 90.6292 39.7801 90.7679C39.4067 90.8959 39.0707 91.0719 38.7721 91.2959L38.4521 90.5119C38.8361 90.2559 39.2521 90.0585 39.7001 89.9199C40.1481 89.7705 40.6174 89.6959 41.1081 89.6959C41.7374 89.6959 42.2334 89.7972 42.5961 89.9999C42.9587 90.1919 43.2254 90.4532 43.3961 90.7839C43.5667 91.1039 43.6787 91.4612 43.7321 91.8559C43.7854 92.2399 43.8121 92.6185 43.8121 92.9919V94.8959C43.8121 95.2052 43.8281 95.4879 43.8601 95.7439C43.8921 95.9999 43.9667 96.2025 44.0841 96.3519C44.2014 96.4905 44.3827 96.5599 44.6281 96.5599C44.9481 96.5599 45.2094 96.4532 45.4121 96.2399C45.6254 96.0159 45.7854 95.7385 45.8921 95.4079C46.0094 95.0665 46.0894 94.7199 46.1321 94.3679C46.1854 94.0052 46.2121 93.6905 46.2121 93.4239C46.2121 92.6559 46.0787 91.9465 45.8121 91.2959C45.5561 90.6345 45.1934 90.0585 44.7241 89.5679C44.2547 89.0772 43.7001 88.6932 43.0601 88.4159C42.4307 88.1385 41.7374 87.9999 40.9801 87.9999C40.2441 87.9999 39.5561 88.1332 38.9161 88.3999C38.2761 88.6559 37.7161 89.0239 37.2361 89.5039C36.7667 89.9839 36.3934 90.5492 36.1161 91.1999C35.8494 91.8505 35.7161 92.5599 35.7161 93.3279C35.7161 94.0745 35.8441 94.7732 36.1001 95.4239C36.3561 96.0745 36.7134 96.6452 37.1721 97.1359C37.6307 97.6265 38.1747 98.0105 38.8041 98.2879C39.4334 98.5652 40.1214 98.7039 40.8681 98.7039C41.3374 98.7039 41.7641 98.6452 42.1481 98.5279C42.5427 98.4212 42.9374 98.2772 43.3321 98.0959L43.5561 98.7039C43.1294 98.9172 42.6867 99.0772 42.2281 99.1839C41.7694 99.2905 41.3107 99.3439 40.8521 99.3439C40.0521 99.3439 39.3001 99.1945 38.5961 98.8959C37.9027 98.6079 37.2894 98.1919 36.7561 97.6479C36.2227 97.1145 35.8014 96.4799 35.4921 95.7439C35.1934 95.0079 35.0441 94.2025 35.0441 93.3279C35.0441 92.4105 35.2041 91.5839 35.5241 90.8479C35.8547 90.1119 36.2974 89.4879 36.8521 88.9759C37.4174 88.4532 38.0574 88.0532 38.7721 87.7759C39.4867 87.4985 40.2334 87.3599 41.0121 87.3599ZM41.9241 95.7919C42.2014 95.6639 42.4094 95.5199 42.5481 95.3599C42.6867 95.1892 42.7774 95.0132 42.8201 94.8319C42.8734 94.6399 42.9001 94.4532 42.9001 94.2719V93.6799C42.7614 93.6585 42.5161 93.5945 42.1641 93.4879C41.8227 93.3812 41.4121 93.3279 40.9321 93.3279C40.5694 93.3279 40.2281 93.3705 39.9081 93.4559C39.5987 93.5412 39.3481 93.6905 39.1561 93.9039C38.9641 94.1065 38.8681 94.3839 38.8681 94.7359C38.8681 95.0025 38.9321 95.2425 39.0601 95.4559C39.1987 95.6692 39.3854 95.8399 39.6201 95.9679C39.8547 96.0852 40.1321 96.1439 40.4521 96.1439C40.7081 96.1439 40.9641 96.1119 41.2201 96.0479C41.4867 95.9732 41.7214 95.8879 41.9241 95.7919ZM52.6796 97.1679C52.0502 97.1679 51.4796 97.0559 50.9676 96.8319C50.4556 96.5972 50.0129 96.2825 49.6396 95.8879C49.2662 95.4825 48.9782 95.0185 48.7756 94.4959C48.5729 93.9732 48.4716 93.4239 48.4716 92.8479C48.4716 92.2612 48.5729 91.7065 48.7756 91.1839C48.9782 90.6612 49.2662 90.2025 49.6396 89.8079C50.0129 89.4025 50.4556 89.0879 50.9676 88.8639C51.4902 88.6292 52.0609 88.5119 52.6796 88.5119C53.3089 88.5119 53.8796 88.6292 54.3916 88.8639C54.9036 89.0879 55.3462 89.4025 55.7196 89.8079C56.1036 90.2025 56.3969 90.6612 56.5996 91.1839C56.8022 91.7065 56.9036 92.2612 56.9036 92.8479C56.9036 93.4239 56.8022 93.9732 56.5996 94.4959C56.3969 95.0185 56.1089 95.4825 55.7356 95.8879C55.3622 96.2825 54.9142 96.5972 54.3916 96.8319C53.8796 97.0559 53.3089 97.1679 52.6796 97.1679ZM49.9116 92.8639C49.9116 93.4399 50.0342 93.9625 50.2796 94.4319C50.5356 94.9012 50.8716 95.2745 51.2876 95.5519C51.7036 95.8185 52.1676 95.9519 52.6796 95.9519C53.1916 95.9519 53.6556 95.8132 54.0716 95.5359C54.4982 95.2585 54.8342 94.8852 55.0796 94.4159C55.3356 93.9359 55.4636 93.4079 55.4636 92.8319C55.4636 92.2559 55.3356 91.7332 55.0796 91.2639C54.8342 90.7945 54.4982 90.4212 54.0716 90.1439C53.6556 89.8665 53.1916 89.7279 52.6796 89.7279C52.1676 89.7279 51.7036 89.8719 51.2876 90.1599C50.8716 90.4372 50.5356 90.8105 50.2796 91.2799C50.0342 91.7492 49.9116 92.2772 49.9116 92.8639ZM63.0477 97.1679C62.397 97.1679 61.805 97.0079 61.2717 96.6879C60.7384 96.3679 60.317 95.9519 60.0077 95.4399V97.0079H58.7597V85.3279H60.1677V90.3199C60.5197 89.7759 60.9517 89.3385 61.4637 89.0079C61.9757 88.6772 62.573 88.5119 63.2557 88.5119C63.8317 88.5119 64.349 88.6345 64.8077 88.8799C65.2664 89.1145 65.6557 89.4399 65.9757 89.8559C66.3064 90.2612 66.557 90.7252 66.7277 91.2479C66.909 91.7599 66.9997 92.2985 66.9997 92.8639C66.9997 93.4505 66.8984 94.0052 66.6957 94.5279C66.5037 95.0399 66.2264 95.4985 65.8637 95.9039C65.501 96.2985 65.0797 96.6079 64.5997 96.8319C64.1304 97.0559 63.613 97.1679 63.0477 97.1679ZM62.6957 95.9519C63.1117 95.9519 63.4957 95.8665 63.8477 95.6959C64.1997 95.5252 64.5037 95.2959 64.7597 95.0079C65.0157 94.7199 65.213 94.3892 65.3517 94.0159C65.4904 93.6425 65.5597 93.2585 65.5597 92.8639C65.5597 92.3199 65.4424 91.8079 65.2077 91.3279C64.9837 90.8479 64.6637 90.4639 64.2477 90.1759C63.8424 89.8772 63.3677 89.7279 62.8237 89.7279C62.429 89.7279 62.061 89.8185 61.7197 89.9999C61.3784 90.1812 61.0744 90.4212 60.8077 90.7199C60.5517 91.0079 60.3384 91.3279 60.1677 91.6799V94.0959C60.221 94.3625 60.333 94.6079 60.5037 94.8319C60.6744 95.0559 60.8824 95.2532 61.1277 95.4239C61.373 95.5839 61.629 95.7119 61.8957 95.8079C62.173 95.9039 62.4397 95.9519 62.6957 95.9519ZM72.5744 97.1679C71.9451 97.1679 71.3691 97.0559 70.8464 96.8319C70.3344 96.5972 69.8864 96.2825 69.5024 95.8879C69.1291 95.4825 68.8358 95.0185 68.6224 94.4959C68.4198 93.9732 68.3184 93.4185 68.3184 92.8319C68.3184 92.0425 68.4998 91.3225 68.8624 90.6719C69.2251 90.0212 69.7264 89.4985 70.3664 89.1039C71.0171 88.7092 71.7584 88.5119 72.5904 88.5119C73.4331 88.5119 74.1638 88.7145 74.7824 89.1199C75.4118 89.5145 75.8971 90.0372 76.2384 90.6879C76.5904 91.3279 76.7664 92.0212 76.7664 92.7679C76.7664 92.8745 76.7611 92.9812 76.7504 93.0879C76.7504 93.1839 76.7451 93.2585 76.7344 93.3119H69.8064C69.8491 93.8559 69.9984 94.3412 70.2544 94.7679C70.5211 95.1839 70.8624 95.5145 71.2784 95.7599C71.6944 95.9945 72.1424 96.1119 72.6224 96.1119C73.1344 96.1119 73.6144 95.9839 74.0624 95.7279C74.5211 95.4719 74.8358 95.1359 75.0064 94.7199L76.2224 95.0559C76.0411 95.4612 75.7691 95.8239 75.4064 96.1439C75.0544 96.4639 74.6331 96.7145 74.1424 96.8959C73.6624 97.0772 73.1398 97.1679 72.5744 97.1679ZM69.7584 92.3359H75.4544C75.4118 91.7919 75.2571 91.3119 74.9904 90.8959C74.7238 90.4799 74.3824 90.1545 73.9664 89.9199C73.5504 89.6852 73.0918 89.5679 72.5904 89.5679C72.0998 89.5679 71.6464 89.6852 71.2304 89.9199C70.8144 90.1545 70.4731 90.4799 70.2064 90.8959C69.9504 91.3119 69.8011 91.7919 69.7584 92.3359ZM85.7296 97.0079H84.3216V92.3359C84.3216 91.4505 84.1829 90.8052 83.9056 90.3999C83.6389 89.9839 83.2282 89.7759 82.6736 89.7759C82.2896 89.7759 81.9056 89.8719 81.5216 90.0639C81.1482 90.2559 80.8122 90.5172 80.5136 90.8479C80.2256 91.1679 80.0176 91.5412 79.8896 91.9679V97.0079H78.4816V88.6559H79.7616V90.4479C79.9856 90.0532 80.2736 89.7119 80.6256 89.4239C80.9776 89.1359 81.3776 88.9119 81.8256 88.7519C82.2736 88.5919 82.7429 88.5119 83.2336 88.5119C83.7136 88.5119 84.1136 88.6025 84.4336 88.7839C84.7642 88.9545 85.0202 89.1999 85.2016 89.5199C85.3936 89.8292 85.5269 90.1972 85.6016 90.6239C85.6869 91.0505 85.7296 91.5145 85.7296 92.0159V97.0079ZM87.9571 97.0079V95.2159H89.1411V97.0079H87.9571ZM98.7014 97.0079H97.2934V92.3359C97.2934 91.4505 97.1548 90.8052 96.8774 90.3999C96.6108 89.9839 96.2001 89.7759 95.6454 89.7759C95.2614 89.7759 94.8774 89.8719 94.4934 90.0639C94.1201 90.2559 93.7841 90.5172 93.4854 90.8479C93.1974 91.1679 92.9894 91.5412 92.8614 91.9679V97.0079H91.4534V88.6559H92.7334V90.4479C92.9574 90.0532 93.2454 89.7119 93.5974 89.4239C93.9494 89.1359 94.3494 88.9119 94.7974 88.7519C95.2454 88.5919 95.7148 88.5119 96.2054 88.5119C96.6854 88.5119 97.0854 88.6025 97.4054 88.7839C97.7361 88.9545 97.9921 89.1999 98.1734 89.5199C98.3654 89.8292 98.4988 90.1972 98.5734 90.6239C98.6588 91.0505 98.7014 91.5145 98.7014 92.0159V97.0079ZM100.961 93.6639V88.6559H102.369V93.3919C102.369 94.2452 102.518 94.8852 102.817 95.3119C103.116 95.7385 103.558 95.9519 104.145 95.9519C104.529 95.9519 104.897 95.8719 105.249 95.7119C105.612 95.5412 105.937 95.3012 106.225 94.9919C106.513 94.6825 106.737 94.3145 106.897 93.8879V88.6559H108.305V95.4079C108.305 95.5785 108.337 95.7065 108.401 95.7919C108.476 95.8665 108.593 95.9092 108.753 95.9199V97.0079C108.593 97.0292 108.465 97.0399 108.369 97.0399C108.284 97.0505 108.198 97.0559 108.113 97.0559C107.846 97.0559 107.617 96.9759 107.425 96.8159C107.233 96.6452 107.132 96.4372 107.121 96.1919L107.089 95.2159C106.726 95.8345 106.236 96.3145 105.617 96.6559C105.009 96.9972 104.342 97.1679 103.617 97.1679C102.742 97.1679 102.081 96.8745 101.633 96.2879C101.185 95.6905 100.961 94.8159 100.961 93.6639ZM115.12 96.5919C115.003 96.6452 114.843 96.7145 114.64 96.7999C114.438 96.8852 114.203 96.9599 113.936 97.0239C113.67 97.0879 113.387 97.1199 113.088 97.1199C112.747 97.1199 112.432 97.0612 112.144 96.9439C111.856 96.8159 111.627 96.6239 111.456 96.3679C111.286 96.1012 111.2 95.7705 111.2 95.3759V89.7599H110.064V88.6559H111.2V85.8719H112.608V88.6559H114.48V89.7599H112.608V94.9439C112.63 95.2425 112.731 95.4665 112.912 95.6159C113.094 95.7545 113.307 95.8239 113.552 95.8239C113.83 95.8239 114.086 95.7759 114.32 95.6799C114.555 95.5839 114.71 95.5145 114.784 95.4719L115.12 96.5919ZM120.991 89.8879C120.287 89.8985 119.663 90.0799 119.119 90.4319C118.586 90.7732 118.207 91.2479 117.983 91.8559V97.0079H116.575V88.6559H117.887V90.5919C118.175 90.0159 118.554 89.5519 119.023 89.1999C119.503 88.8372 120.005 88.6345 120.527 88.5919C120.634 88.5919 120.725 88.5919 120.799 88.5919C120.874 88.5919 120.938 88.5972 120.991 88.6079V89.8879ZM122.538 97.0079V88.6559H123.946V97.0079H122.538ZM122.538 87.0879V85.3279H123.946V87.0879H122.538ZM130.695 96.5919C130.578 96.6452 130.418 96.7145 130.215 96.7999C130.013 96.8852 129.778 96.9599 129.511 97.0239C129.245 97.0879 128.962 97.1199 128.663 97.1199C128.322 97.1199 128.007 97.0612 127.719 96.9439C127.431 96.8159 127.202 96.6239 127.031 96.3679C126.861 96.1012 126.775 95.7705 126.775 95.3759V89.7599H125.639V88.6559H126.775V85.8719H128.183V88.6559H130.055V89.7599H128.183V94.9439C128.205 95.2425 128.306 95.4665 128.487 95.6159C128.669 95.7545 128.882 95.8239 129.127 95.8239C129.405 95.8239 129.661 95.7759 129.895 95.6799C130.13 95.5839 130.285 95.5145 130.359 95.4719L130.695 96.5919ZM132.15 97.0079V88.6559H133.558V97.0079H132.15ZM132.15 87.0879V85.3279H133.558V87.0879H132.15ZM139.636 97.1679C139.006 97.1679 138.436 97.0559 137.924 96.8319C137.412 96.5972 136.969 96.2825 136.596 95.8879C136.222 95.4825 135.934 95.0185 135.732 94.4959C135.529 93.9732 135.428 93.4239 135.428 92.8479C135.428 92.2612 135.529 91.7065 135.732 91.1839C135.934 90.6612 136.222 90.2025 136.596 89.8079C136.969 89.4025 137.412 89.0879 137.924 88.8639C138.446 88.6292 139.017 88.5119 139.636 88.5119C140.265 88.5119 140.836 88.6292 141.348 88.8639C141.86 89.0879 142.302 89.4025 142.676 89.8079C143.06 90.2025 143.353 90.6612 143.556 91.1839C143.758 91.7065 143.86 92.2612 143.86 92.8479C143.86 93.4239 143.758 93.9732 143.556 94.4959C143.353 95.0185 143.065 95.4825 142.692 95.8879C142.318 96.2825 141.87 96.5972 141.348 96.8319C140.836 97.0559 140.265 97.1679 139.636 97.1679ZM136.868 92.8639C136.868 93.4399 136.99 93.9625 137.236 94.4319C137.492 94.9012 137.828 95.2745 138.244 95.5519C138.66 95.8185 139.124 95.9519 139.636 95.9519C140.148 95.9519 140.612 95.8132 141.028 95.5359C141.454 95.2585 141.79 94.8852 142.036 94.4159C142.292 93.9359 142.42 93.4079 142.42 92.8319C142.42 92.2559 142.292 91.7332 142.036 91.2639C141.79 90.7945 141.454 90.4212 141.028 90.1439C140.612 89.8665 140.148 89.7279 139.636 89.7279C139.124 89.7279 138.66 89.8719 138.244 90.1599C137.828 90.4372 137.492 90.8105 137.236 91.2799C136.99 91.7492 136.868 92.2772 136.868 92.8639ZM152.964 97.0079H151.556V92.3359C151.556 91.4505 151.417 90.8052 151.14 90.3999C150.873 89.9839 150.463 89.7759 149.908 89.7759C149.524 89.7759 149.14 89.8719 148.756 90.0639C148.383 90.2559 148.047 90.5172 147.748 90.8479C147.46 91.1679 147.252 91.5412 147.124 91.9679V97.0079H145.716V88.6559H146.996V90.4479C147.22 90.0532 147.508 89.7119 147.86 89.4239C148.212 89.1359 148.612 88.9119 149.06 88.7519C149.508 88.5919 149.977 88.5119 150.468 88.5119C150.948 88.5119 151.348 88.6025 151.668 88.7839C151.999 88.9545 152.255 89.1999 152.436 89.5199C152.628 89.8292 152.761 90.1972 152.836 90.6239C152.921 91.0505 152.964 91.5145 152.964 92.0159V97.0079Z" fill="white"/>
</svg>
