<svg width="189" height="126" viewBox="0 0 189 126" fill="none" xmlns="http://www.w3.org/2000/svg">
<rect x="0.66272" width="188.333" height="126" rx="6" fill="#145FCA"/>
<path d="M89.8326 60.6716L99.8326 60.6697C108.166 60.668 111.499 57.334 111.497 49.0007L111.495 39.0007C111.493 30.6674 108.159 27.3347 99.8261 27.3363L89.8261 27.3383C81.4928 27.3399 78.1601 30.6739 78.1617 39.0072L78.1637 49.0072C78.1653 57.3406 81.4993 60.6733 89.8326 60.6716Z" stroke="white" stroke-width="3" stroke-linecap="round" stroke-linejoin="round"/>
<path d="M94.8305 49.8372C98.0522 49.8365 100.663 47.2243 100.663 44.0027C100.662 40.781 98.0499 38.1699 94.8282 38.1705C91.6065 38.1711 88.9954 40.7833 88.996 44.005C88.9967 47.2266 91.6088 49.8378 94.8305 49.8372Z" stroke="white" stroke-width="3" stroke-linecap="round" stroke-linejoin="round"/>
<path d="M104.221 35.6688L104.241 35.6688" stroke="white" stroke-width="3" stroke-linecap="round" stroke-linejoin="round"/>
<path d="M41.6787 87.3598C42.468 87.3598 43.2147 87.5038 43.9187 87.7918C44.6227 88.0691 45.2467 88.4745 45.7907 89.0078C46.3347 89.5411 46.7614 90.1865 47.0707 90.9438C47.3907 91.6905 47.5507 92.5278 47.5507 93.4558C47.5507 93.6371 47.5347 93.8825 47.5027 94.1918C47.4814 94.5011 47.428 94.8318 47.3427 95.1838C47.2574 95.5358 47.1294 95.8718 46.9587 96.1918C46.788 96.5011 46.5534 96.7571 46.2547 96.9598C45.9667 97.1625 45.604 97.2638 45.1667 97.2638C44.804 97.2638 44.5267 97.1945 44.3347 97.0558C44.1427 96.9171 44.0094 96.7411 43.9347 96.5278C43.86 96.3038 43.8067 96.0745 43.7747 95.8398C43.476 96.1598 43.0867 96.4318 42.6067 96.6558C42.1374 96.8691 41.62 96.9758 41.0547 96.9758C40.276 96.9758 39.6734 96.7678 39.2467 96.3518C38.8307 95.9358 38.6227 95.4185 38.6227 94.7998C38.6227 94.2345 38.772 93.7918 39.0707 93.4718C39.3694 93.1518 39.748 92.9225 40.2067 92.7838C40.676 92.6451 41.1454 92.5758 41.6147 92.5758C42.0734 92.5758 42.4734 92.6238 42.8147 92.7198C43.156 92.8051 43.412 92.8798 43.5827 92.9438C43.5827 92.4745 43.5294 92.0638 43.4227 91.7118C43.316 91.3491 43.1187 91.0665 42.8307 90.8638C42.5534 90.6611 42.1587 90.5598 41.6467 90.5598C41.22 90.5598 40.82 90.6291 40.4467 90.7678C40.0734 90.8958 39.7374 91.0718 39.4387 91.2958L39.1187 90.5118C39.5027 90.2558 39.9187 90.0585 40.3667 89.9198C40.8147 89.7705 41.284 89.6958 41.7747 89.6958C42.404 89.6958 42.9 89.7971 43.2627 89.9998C43.6254 90.1918 43.892 90.4531 44.0627 90.7838C44.2334 91.1038 44.3454 91.4611 44.3987 91.8558C44.452 92.2398 44.4787 92.6185 44.4787 92.9918V94.8958C44.4787 95.2051 44.4947 95.4878 44.5267 95.7438C44.5587 95.9998 44.6334 96.2025 44.7507 96.3518C44.868 96.4905 45.0494 96.5598 45.2947 96.5598C45.6147 96.5598 45.876 96.4531 46.0787 96.2398C46.292 96.0158 46.452 95.7385 46.5587 95.4078C46.676 95.0665 46.756 94.7198 46.7987 94.3678C46.852 94.0051 46.8787 93.6905 46.8787 93.4238C46.8787 92.6558 46.7454 91.9465 46.4787 91.2958C46.2227 90.6345 45.86 90.0585 45.3907 89.5678C44.9214 89.0771 44.3667 88.6931 43.7267 88.4158C43.0974 88.1385 42.404 87.9998 41.6467 87.9998C40.9107 87.9998 40.2227 88.1331 39.5827 88.3998C38.9427 88.6558 38.3827 89.0238 37.9027 89.5038C37.4334 89.9838 37.06 90.5491 36.7827 91.1998C36.516 91.8505 36.3827 92.5598 36.3827 93.3278C36.3827 94.0745 36.5107 94.7731 36.7667 95.4238C37.0227 96.0745 37.38 96.6451 37.8387 97.1358C38.2974 97.6265 38.8414 98.0105 39.4707 98.2878C40.1 98.5651 40.788 98.7038 41.5347 98.7038C42.004 98.7038 42.4307 98.6451 42.8147 98.5278C43.2094 98.4211 43.604 98.2771 43.9987 98.0958L44.2227 98.7038C43.796 98.9171 43.3534 99.0771 42.8947 99.1838C42.436 99.2905 41.9774 99.3438 41.5187 99.3438C40.7187 99.3438 39.9667 99.1945 39.2627 98.8958C38.5694 98.6078 37.956 98.1918 37.4227 97.6478C36.8894 97.1145 36.468 96.4798 36.1587 95.7438C35.86 95.0078 35.7107 94.2025 35.7107 93.3278C35.7107 92.4105 35.8707 91.5838 36.1907 90.8478C36.5214 90.1118 36.964 89.4878 37.5187 88.9758C38.084 88.4531 38.724 88.0531 39.4387 87.7758C40.1534 87.4985 40.9 87.3598 41.6787 87.3598ZM42.5907 95.7918C42.868 95.6638 43.076 95.5198 43.2147 95.3598C43.3534 95.1891 43.444 95.0131 43.4867 94.8318C43.54 94.6398 43.5667 94.4531 43.5667 94.2718V93.6798C43.428 93.6585 43.1827 93.5945 42.8307 93.4878C42.4894 93.3811 42.0787 93.3278 41.5987 93.3278C41.236 93.3278 40.8947 93.3705 40.5747 93.4558C40.2654 93.5411 40.0147 93.6905 39.8227 93.9038C39.6307 94.1065 39.5347 94.3838 39.5347 94.7358C39.5347 95.0025 39.5987 95.2425 39.7267 95.4558C39.8654 95.6691 40.052 95.8398 40.2867 95.9678C40.5214 96.0851 40.7987 96.1438 41.1187 96.1438C41.3747 96.1438 41.6307 96.1118 41.8867 96.0478C42.1534 95.9731 42.388 95.8878 42.5907 95.7918ZM53.3462 97.1678C52.7169 97.1678 52.1462 97.0558 51.6342 96.8318C51.1222 96.5971 50.6795 96.2825 50.3062 95.8878C49.9329 95.4825 49.6449 95.0185 49.4422 94.4958C49.2395 93.9731 49.1382 93.4238 49.1382 92.8478C49.1382 92.2611 49.2395 91.7065 49.4422 91.1838C49.6449 90.6611 49.9329 90.2025 50.3062 89.8078C50.6795 89.4025 51.1222 89.0878 51.6342 88.8638C52.1569 88.6291 52.7275 88.5118 53.3462 88.5118C53.9755 88.5118 54.5462 88.6291 55.0582 88.8638C55.5702 89.0878 56.0129 89.4025 56.3862 89.8078C56.7702 90.2025 57.0635 90.6611 57.2662 91.1838C57.4689 91.7065 57.5702 92.2611 57.5702 92.8478C57.5702 93.4238 57.4689 93.9731 57.2662 94.4958C57.0635 95.0185 56.7755 95.4825 56.4022 95.8878C56.0289 96.2825 55.5809 96.5971 55.0582 96.8318C54.5462 97.0558 53.9755 97.1678 53.3462 97.1678ZM50.5782 92.8638C50.5782 93.4398 50.7009 93.9625 50.9462 94.4318C51.2022 94.9011 51.5382 95.2745 51.9542 95.5518C52.3702 95.8185 52.8342 95.9518 53.3462 95.9518C53.8582 95.9518 54.3222 95.8131 54.7382 95.5358C55.1649 95.2585 55.5009 94.8851 55.7462 94.4158C56.0022 93.9358 56.1302 93.4078 56.1302 92.8318C56.1302 92.2558 56.0022 91.7331 55.7462 91.2638C55.5009 90.7945 55.1649 90.4211 54.7382 90.1438C54.3222 89.8665 53.8582 89.7278 53.3462 89.7278C52.8342 89.7278 52.3702 89.8718 51.9542 90.1598C51.5382 90.4371 51.2022 90.8105 50.9462 91.2798C50.7009 91.7491 50.5782 92.2771 50.5782 92.8638ZM63.7143 97.1678C63.0637 97.1678 62.4717 97.0078 61.9383 96.6878C61.405 96.3678 60.9837 95.9518 60.6743 95.4398V97.0078H59.4263V85.3278H60.8343V90.3198C61.1863 89.7758 61.6183 89.3385 62.1303 89.0078C62.6423 88.6771 63.2397 88.5118 63.9223 88.5118C64.4983 88.5118 65.0157 88.6345 65.4743 88.8798C65.933 89.1145 66.3223 89.4398 66.6423 89.8558C66.973 90.2611 67.2237 90.7251 67.3943 91.2478C67.5757 91.7598 67.6663 92.2985 67.6663 92.8638C67.6663 93.4505 67.565 94.0051 67.3623 94.5278C67.1703 95.0398 66.893 95.4985 66.5303 95.9038C66.1677 96.2985 65.7463 96.6078 65.2663 96.8318C64.797 97.0558 64.2797 97.1678 63.7143 97.1678ZM63.3623 95.9518C63.7783 95.9518 64.1623 95.8665 64.5143 95.6958C64.8663 95.5251 65.1703 95.2958 65.4263 95.0078C65.6823 94.7198 65.8797 94.3891 66.0183 94.0158C66.157 93.6425 66.2263 93.2585 66.2263 92.8638C66.2263 92.3198 66.109 91.8078 65.8743 91.3278C65.6503 90.8478 65.3303 90.4638 64.9143 90.1758C64.509 89.8771 64.0343 89.7278 63.4903 89.7278C63.0957 89.7278 62.7277 89.8185 62.3863 89.9998C62.045 90.1811 61.741 90.4211 61.4743 90.7198C61.2183 91.0078 61.005 91.3278 60.8343 91.6798V94.0958C60.8877 94.3625 60.9997 94.6078 61.1703 94.8318C61.341 95.0558 61.549 95.2531 61.7943 95.4238C62.0397 95.5838 62.2957 95.7118 62.5623 95.8078C62.8397 95.9038 63.1063 95.9518 63.3623 95.9518ZM73.2411 97.1678C72.6117 97.1678 72.0357 97.0558 71.5131 96.8318C71.0011 96.5971 70.5531 96.2825 70.1691 95.8878C69.7957 95.4825 69.5024 95.0185 69.2891 94.4958C69.0864 93.9731 68.9851 93.4185 68.9851 92.8318C68.9851 92.0425 69.1664 91.3225 69.5291 90.6718C69.8917 90.0211 70.3931 89.4985 71.0331 89.1038C71.6837 88.7091 72.4251 88.5118 73.2571 88.5118C74.0997 88.5118 74.8304 88.7145 75.4491 89.1198C76.0784 89.5145 76.5637 90.0371 76.9051 90.6878C77.2571 91.3278 77.4331 92.0211 77.4331 92.7678C77.4331 92.8745 77.4277 92.9811 77.4171 93.0878C77.4171 93.1838 77.4117 93.2585 77.4011 93.3118H70.4731C70.5157 93.8558 70.6651 94.3411 70.9211 94.7678C71.1877 95.1838 71.5291 95.5145 71.9451 95.7598C72.3611 95.9945 72.8091 96.1118 73.2891 96.1118C73.8011 96.1118 74.2811 95.9838 74.7291 95.7278C75.1877 95.4718 75.5024 95.1358 75.6731 94.7198L76.8891 95.0558C76.7077 95.4611 76.4357 95.8238 76.0731 96.1438C75.7211 96.4638 75.2997 96.7145 74.8091 96.8958C74.3291 97.0771 73.8064 97.1678 73.2411 97.1678ZM70.4251 92.3358H76.1211C76.0784 91.7918 75.9237 91.3118 75.6571 90.8958C75.3904 90.4798 75.0491 90.1545 74.6331 89.9198C74.2171 89.6851 73.7584 89.5678 73.2571 89.5678C72.7664 89.5678 72.3131 89.6851 71.8971 89.9198C71.4811 90.1545 71.1397 90.4798 70.8731 90.8958C70.6171 91.3118 70.4677 91.7918 70.4251 92.3358ZM86.3962 97.0078H84.9882V92.3358C84.9882 91.4505 84.8495 90.8051 84.5722 90.3998C84.3055 89.9838 83.8949 89.7758 83.3402 89.7758C82.9562 89.7758 82.5722 89.8718 82.1882 90.0638C81.8149 90.2558 81.4789 90.5171 81.1802 90.8478C80.8922 91.1678 80.6842 91.5411 80.5562 91.9678V97.0078H79.1482V88.6558H80.4282V90.4478C80.6522 90.0531 80.9402 89.7118 81.2922 89.4238C81.6442 89.1358 82.0442 88.9118 82.4922 88.7518C82.9402 88.5918 83.4095 88.5118 83.9002 88.5118C84.3802 88.5118 84.7802 88.6025 85.1002 88.7838C85.4309 88.9545 85.6869 89.1998 85.8682 89.5198C86.0602 89.8291 86.1935 90.1971 86.2682 90.6238C86.3535 91.0505 86.3962 91.5145 86.3962 92.0158V97.0078ZM88.6237 97.0078V95.2158H89.8077V97.0078H88.6237ZM99.3681 97.0078H97.9601V92.3358C97.9601 91.4505 97.8214 90.8051 97.5441 90.3998C97.2774 89.9838 96.8667 89.7758 96.3121 89.7758C95.9281 89.7758 95.5441 89.8718 95.1601 90.0638C94.7867 90.2558 94.4507 90.5171 94.1521 90.8478C93.8641 91.1678 93.6561 91.5411 93.5281 91.9678V97.0078H92.1201V88.6558H93.4001V90.4478C93.6241 90.0531 93.9121 89.7118 94.2641 89.4238C94.6161 89.1358 95.0161 88.9118 95.4641 88.7518C95.9121 88.5918 96.3814 88.5118 96.8721 88.5118C97.3521 88.5118 97.7521 88.6025 98.0721 88.7838C98.4027 88.9545 98.6587 89.1998 98.8401 89.5198C99.0321 89.8291 99.1654 90.1971 99.2401 90.6238C99.3254 91.0505 99.3681 91.5145 99.3681 92.0158V97.0078ZM101.628 93.6638V88.6558H103.036V93.3918C103.036 94.2451 103.185 94.8851 103.484 95.3118C103.782 95.7385 104.225 95.9518 104.812 95.9518C105.196 95.9518 105.564 95.8718 105.916 95.7118C106.278 95.5411 106.604 95.3011 106.892 94.9918C107.18 94.6825 107.404 94.3145 107.564 93.8878V88.6558H108.972V95.4078C108.972 95.5785 109.004 95.7065 109.068 95.7918C109.142 95.8665 109.26 95.9091 109.42 95.9198V97.0078C109.26 97.0291 109.132 97.0398 109.036 97.0398C108.95 97.0505 108.865 97.0558 108.78 97.0558C108.513 97.0558 108.284 96.9758 108.092 96.8158C107.9 96.6451 107.798 96.4371 107.788 96.1918L107.756 95.2158C107.393 95.8345 106.902 96.3145 106.284 96.6558C105.676 96.9971 105.009 97.1678 104.284 97.1678C103.409 97.1678 102.748 96.8745 102.3 96.2878C101.852 95.6905 101.628 94.8158 101.628 93.6638ZM115.787 96.5918C115.67 96.6451 115.51 96.7145 115.307 96.7998C115.104 96.8851 114.87 96.9598 114.603 97.0238C114.336 97.0878 114.054 97.1198 113.755 97.1198C113.414 97.1198 113.099 97.0611 112.811 96.9438C112.523 96.8158 112.294 96.6238 112.123 96.3678C111.952 96.1011 111.867 95.7705 111.867 95.3758V89.7598H110.731V88.6558H111.867V85.8718H113.275V88.6558H115.147V89.7598H113.275V94.9438C113.296 95.2425 113.398 95.4665 113.579 95.6158C113.76 95.7545 113.974 95.8238 114.219 95.8238C114.496 95.8238 114.752 95.7758 114.987 95.6798C115.222 95.5838 115.376 95.5145 115.451 95.4718L115.787 96.5918ZM121.658 89.8878C120.954 89.8985 120.33 90.0798 119.786 90.4318C119.253 90.7731 118.874 91.2478 118.65 91.8558V97.0078H117.242V88.6558H118.554V90.5918C118.842 90.0158 119.221 89.5518 119.69 89.1998C120.17 88.8371 120.671 88.6345 121.194 88.5918C121.301 88.5918 121.391 88.5918 121.466 88.5918C121.541 88.5918 121.605 88.5971 121.658 88.6078V89.8878ZM123.204 97.0078V88.6558H124.612V97.0078H123.204ZM123.204 87.0878V85.3278H124.612V87.0878H123.204ZM131.362 96.5918C131.245 96.6451 131.085 96.7145 130.882 96.7998C130.679 96.8851 130.445 96.9598 130.178 97.0238C129.911 97.0878 129.629 97.1198 129.33 97.1198C128.989 97.1198 128.674 97.0611 128.386 96.9438C128.098 96.8158 127.869 96.6238 127.698 96.3678C127.527 96.1011 127.442 95.7705 127.442 95.3758V89.7598H126.306V88.6558H127.442V85.8718H128.85V88.6558H130.722V89.7598H128.85V94.9438C128.871 95.2425 128.973 95.4665 129.154 95.6158C129.335 95.7545 129.549 95.8238 129.794 95.8238C130.071 95.8238 130.327 95.7758 130.562 95.6798C130.797 95.5838 130.951 95.5145 131.026 95.4718L131.362 96.5918ZM132.817 97.0078V88.6558H134.225V97.0078H132.817ZM132.817 87.0878V85.3278H134.225V87.0878H132.817ZM140.302 97.1678C139.673 97.1678 139.102 97.0558 138.59 96.8318C138.078 96.5971 137.636 96.2825 137.262 95.8878C136.889 95.4825 136.601 95.0185 136.398 94.4958C136.196 93.9731 136.094 93.4238 136.094 92.8478C136.094 92.2611 136.196 91.7065 136.398 91.1838C136.601 90.6611 136.889 90.2025 137.262 89.8078C137.636 89.4025 138.078 89.0878 138.59 88.8638C139.113 88.6291 139.684 88.5118 140.302 88.5118C140.932 88.5118 141.502 88.6291 142.014 88.8638C142.526 89.0878 142.969 89.4025 143.342 89.8078C143.726 90.2025 144.02 90.6611 144.222 91.1838C144.425 91.7065 144.526 92.2611 144.526 92.8478C144.526 93.4238 144.425 93.9731 144.222 94.4958C144.02 95.0185 143.732 95.4825 143.358 95.8878C142.985 96.2825 142.537 96.5971 142.014 96.8318C141.502 97.0558 140.932 97.1678 140.302 97.1678ZM137.534 92.8638C137.534 93.4398 137.657 93.9625 137.902 94.4318C138.158 94.9011 138.494 95.2745 138.91 95.5518C139.326 95.8185 139.79 95.9518 140.302 95.9518C140.814 95.9518 141.278 95.8131 141.694 95.5358C142.121 95.2585 142.457 94.8851 142.702 94.4158C142.958 93.9358 143.086 93.4078 143.086 92.8318C143.086 92.2558 142.958 91.7331 142.702 91.2638C142.457 90.7945 142.121 90.4211 141.694 90.1438C141.278 89.8665 140.814 89.7278 140.302 89.7278C139.79 89.7278 139.326 89.8718 138.91 90.1598C138.494 90.4371 138.158 90.8105 137.902 91.2798C137.657 91.7491 137.534 92.2771 137.534 92.8638ZM153.631 97.0078H152.223V92.3358C152.223 91.4505 152.084 90.8051 151.807 90.3998C151.54 89.9838 151.129 89.7758 150.575 89.7758C150.191 89.7758 149.807 89.8718 149.423 90.0638C149.049 90.2558 148.713 90.5171 148.415 90.8478C148.127 91.1678 147.919 91.5411 147.791 91.9678V97.0078H146.383V88.6558H147.663V90.4478C147.887 90.0531 148.175 89.7118 148.527 89.4238C148.879 89.1358 149.279 88.9118 149.727 88.7518C150.175 88.5918 150.644 88.5118 151.135 88.5118C151.615 88.5118 152.015 88.6025 152.335 88.7838C152.665 88.9545 152.921 89.1998 153.103 89.5198C153.295 89.8291 153.428 90.1971 153.503 90.6238C153.588 91.0505 153.631 91.5145 153.631 92.0158V97.0078Z" fill="white"/>
</svg>
