<svg width="25" height="25" viewBox="0 0 25 25" fill="none" xmlns="http://www.w3.org/2000/svg">
<path d="M9.98 22.7506L15.98 22.7494C20.98 22.7484 22.9796 20.748 22.9786 15.748L22.9774 9.74802C22.9765 4.74802 20.9761 2.74842 15.9761 2.7494L9.97607 2.75058C4.97607 2.75156 2.97647 4.75195 2.97745 9.75195L2.97863 15.752C2.97961 20.752 4.98 22.7516 9.98 22.7506Z" stroke="white" stroke-width="1.5" stroke-linecap="round" stroke-linejoin="round"/>
<path d="M12.9788 16.2503C14.9118 16.2499 16.4785 14.6826 16.4781 12.7496C16.4777 10.8166 14.9104 9.24991 12.9774 9.25029C11.0444 9.25067 9.47772 10.818 9.4781 12.751C9.47848 14.684 11.0458 16.2507 12.9788 16.2503Z" stroke="white" stroke-width="1.5" stroke-linecap="round" stroke-linejoin="round"/>
<path d="M18.6131 7.7489L18.6247 7.7489" stroke="white" stroke-width="2" stroke-linecap="round" stroke-linejoin="round"/>
</svg>
