<svg width="189" height="126" viewBox="0 0 189 126" fill="none" xmlns="http://www.w3.org/2000/svg">
<rect x="0.66272" width="188.333" height="126" rx="6" fill="#3B444D"/>
<path fill-rule="evenodd" clip-rule="evenodd" d="M74.8267 30.2579C74.826 26.8061 77.6237 24.0073 81.0754 24.0066L108.575 24.0012C112.027 24.0006 114.826 26.7982 114.827 30.25L114.832 57.75C114.833 61.2018 112.035 64.0006 108.583 64.0012L81.0833 64.0066C77.6315 64.0073 74.8327 61.2096 74.8321 57.7579L74.8267 30.2579ZM85.0787 40.6308L85.0813 54.0058L89.3313 54.005L89.3287 40.63L85.0787 40.6308ZM84.8279 36.3809C84.8281 37.7559 85.8283 38.7557 87.2033 38.7554C88.5783 38.7552 89.5781 37.755 89.5779 36.38C89.5776 35.005 88.5774 34.0052 87.2024 34.0054C85.9524 34.0057 84.8276 35.0059 84.8279 36.3809ZM100.581 54.0028L104.581 54.002L104.58 45.752C104.579 41.627 102.079 40.2525 99.7036 40.253C97.5786 40.2534 96.0789 41.6287 95.7041 42.5038L95.7037 40.6288L91.7037 40.6295L91.7063 54.0045L95.9563 54.0037L95.9549 46.8787C95.9546 45.0037 97.2044 44.0035 98.4544 44.0032C99.7044 44.003 100.579 44.6278 100.58 46.7528L100.581 54.0028Z" fill="white"/>
<path d="M44.6974 97.0879C43.8974 97.0879 43.1721 96.9279 42.5214 96.6079C41.8707 96.2879 41.3054 95.8559 40.8254 95.3119C40.3561 94.7572 39.9934 94.1385 39.7374 93.4559C39.4814 92.7625 39.3534 92.0532 39.3534 91.3279C39.3534 90.5705 39.4867 89.8505 39.7534 89.1679C40.0307 88.4745 40.4094 87.8612 40.8894 87.3279C41.3801 86.7839 41.9507 86.3572 42.6014 86.0479C43.2521 85.7279 43.9614 85.5679 44.7294 85.5679C45.5294 85.5679 46.2547 85.7332 46.9054 86.0639C47.5561 86.3945 48.1161 86.8372 48.5854 87.3919C49.0547 87.9465 49.4174 88.5652 49.6734 89.2479C49.9294 89.9305 50.0574 90.6292 50.0574 91.3439C50.0574 92.1012 49.9241 92.8265 49.6574 93.5199C49.3907 94.2025 49.0121 94.8159 48.5214 95.3599C48.0414 95.8932 47.4761 96.3145 46.8254 96.6239C46.1747 96.9332 45.4654 97.0879 44.6974 97.0879ZM40.8094 91.3279C40.8094 91.9039 40.9001 92.4639 41.0814 93.0079C41.2734 93.5412 41.5401 94.0159 41.8814 94.4319C42.2227 94.8479 42.6334 95.1785 43.1134 95.4239C43.5934 95.6692 44.1267 95.7919 44.7134 95.7919C45.3214 95.7919 45.8654 95.6639 46.3454 95.4079C46.8254 95.1519 47.2307 94.8105 47.5614 94.3839C47.9027 93.9572 48.1587 93.4772 48.3294 92.9439C48.5107 92.4105 48.6014 91.8719 48.6014 91.3279C48.6014 90.7519 48.5054 90.1972 48.3134 89.6639C48.1321 89.1305 47.8654 88.6559 47.5134 88.2399C47.1721 87.8132 46.7614 87.4825 46.2814 87.2479C45.8121 87.0025 45.2894 86.8799 44.7134 86.8799C44.1054 86.8799 43.5614 87.0079 43.0814 87.2639C42.6014 87.5092 42.1907 87.8452 41.8494 88.2719C41.5187 88.6985 41.2627 89.1785 41.0814 89.7119C40.9001 90.2345 40.8094 90.7732 40.8094 91.3279ZM56.2721 97.1679C55.6215 97.1679 55.0295 97.0079 54.4961 96.6879C53.9628 96.3679 53.5415 95.9519 53.2321 95.4399V97.0079H51.9841V85.3279H53.3921V90.3199C53.7441 89.7759 54.1761 89.3385 54.6881 89.0079C55.2001 88.6772 55.7975 88.5119 56.4801 88.5119C57.0561 88.5119 57.5735 88.6345 58.0321 88.8799C58.4908 89.1145 58.8801 89.4399 59.2001 89.8559C59.5308 90.2612 59.7815 90.7252 59.9521 91.2479C60.1335 91.7599 60.2241 92.2985 60.2241 92.8639C60.2241 93.4505 60.1228 94.0052 59.9201 94.5279C59.7281 95.0399 59.4508 95.4985 59.0881 95.9039C58.7255 96.2985 58.3041 96.6079 57.8241 96.8319C57.3548 97.0559 56.8375 97.1679 56.2721 97.1679ZM55.9201 95.9519C56.3361 95.9519 56.7201 95.8665 57.0721 95.6959C57.4241 95.5252 57.7281 95.2959 57.9841 95.0079C58.2401 94.7199 58.4375 94.3892 58.5761 94.0159C58.7148 93.6425 58.7841 93.2585 58.7841 92.8639C58.7841 92.3199 58.6668 91.8079 58.4321 91.3279C58.2081 90.8479 57.8881 90.4639 57.4721 90.1759C57.0668 89.8772 56.5921 89.7279 56.0481 89.7279C55.6535 89.7279 55.2855 89.8185 54.9441 89.9999C54.6028 90.1812 54.2988 90.4212 54.0321 90.7199C53.7761 91.0079 53.5628 91.3279 53.3921 91.6799V94.0959C53.4455 94.3625 53.5575 94.6079 53.7281 94.8319C53.8988 95.0559 54.1068 95.2532 54.3521 95.4239C54.5975 95.5839 54.8535 95.7119 55.1201 95.8079C55.3975 95.9039 55.6641 95.9519 55.9201 95.9519ZM65.7989 97.1679C65.1696 97.1679 64.5936 97.0559 64.0709 96.8319C63.5589 96.5972 63.1109 96.2825 62.7269 95.8879C62.3536 95.4825 62.0602 95.0185 61.8469 94.4959C61.6442 93.9732 61.5429 93.4185 61.5429 92.8319C61.5429 92.0425 61.7242 91.3225 62.0869 90.6719C62.4496 90.0212 62.9509 89.4985 63.5909 89.1039C64.2416 88.7092 64.9829 88.5119 65.8149 88.5119C66.6576 88.5119 67.3882 88.7145 68.0069 89.1199C68.6362 89.5145 69.1216 90.0372 69.4629 90.6879C69.8149 91.3279 69.9909 92.0212 69.9909 92.7679C69.9909 92.8745 69.9856 92.9812 69.9749 93.0879C69.9749 93.1839 69.9696 93.2585 69.9589 93.3119H63.0309C63.0736 93.8559 63.2229 94.3412 63.4789 94.7679C63.7456 95.1839 64.0869 95.5145 64.5029 95.7599C64.9189 95.9945 65.3669 96.1119 65.8469 96.1119C66.3589 96.1119 66.8389 95.9839 67.2869 95.7279C67.7456 95.4719 68.0602 95.1359 68.2309 94.7199L69.4469 95.0559C69.2656 95.4612 68.9936 95.8239 68.6309 96.1439C68.2789 96.4639 67.8576 96.7145 67.3669 96.8959C66.8869 97.0772 66.3642 97.1679 65.7989 97.1679ZM62.9829 92.3359H68.6789C68.6362 91.7919 68.4816 91.3119 68.2149 90.8959C67.9482 90.4799 67.6069 90.1545 67.1909 89.9199C66.7749 89.6852 66.3162 89.5679 65.8149 89.5679C65.3242 89.5679 64.8709 89.6852 64.4549 89.9199C64.0389 90.1545 63.6976 90.4799 63.4309 90.8959C63.1749 91.3119 63.0256 91.7919 62.9829 92.3359ZM78.954 97.0079H77.546V92.3359C77.546 91.4505 77.4074 90.8052 77.13 90.3999C76.8634 89.9839 76.4527 89.7759 75.898 89.7759C75.514 89.7759 75.13 89.8719 74.746 90.0639C74.3727 90.2559 74.0367 90.5172 73.738 90.8479C73.45 91.1679 73.242 91.5412 73.114 91.9679V97.0079H71.706V88.6559H72.986V90.4479C73.21 90.0532 73.498 89.7119 73.85 89.4239C74.202 89.1359 74.602 88.9119 75.05 88.7519C75.498 88.5919 75.9674 88.5119 76.458 88.5119C76.938 88.5119 77.338 88.6025 77.658 88.7839C77.9887 88.9545 78.2447 89.1999 78.426 89.5199C78.618 89.8292 78.7514 90.1972 78.826 90.6239C78.9114 91.0505 78.954 91.5145 78.954 92.0159V97.0079ZM87.1544 88.3039V97.0079H85.7144V85.6479H86.9304L93.8744 94.5279V85.6639H95.3144V97.0079H94.0024L87.1544 88.3039ZM97.8729 93.6639V88.6559H99.2809V93.3919C99.2809 94.2452 99.4302 94.8852 99.7289 95.3119C100.028 95.7385 100.47 95.9519 101.057 95.9519C101.441 95.9519 101.809 95.8719 102.161 95.7119C102.524 95.5412 102.849 95.3012 103.137 94.9919C103.425 94.6825 103.649 94.3145 103.809 93.8879V88.6559H105.217V95.4079C105.217 95.5785 105.249 95.7065 105.313 95.7919C105.388 95.8665 105.505 95.9092 105.665 95.9199V97.0079C105.505 97.0292 105.377 97.0399 105.281 97.0399C105.196 97.0505 105.11 97.0559 105.025 97.0559C104.758 97.0559 104.529 96.9759 104.337 96.8159C104.145 96.6452 104.044 96.4372 104.033 96.1919L104.001 95.2159C103.638 95.8345 103.148 96.3145 102.529 96.6559C101.921 96.9972 101.254 97.1679 100.529 97.1679C99.6542 97.1679 98.9929 96.8745 98.5449 96.2879C98.0969 95.6905 97.8729 94.8159 97.8729 93.6639ZM112.032 96.5919C111.915 96.6452 111.755 96.7145 111.552 96.7999C111.35 96.8852 111.115 96.9599 110.848 97.0239C110.582 97.0879 110.299 97.1199 110 97.1199C109.659 97.1199 109.344 97.0612 109.056 96.9439C108.768 96.8159 108.539 96.6239 108.368 96.3679C108.198 96.1012 108.112 95.7705 108.112 95.3759V89.7599H106.976V88.6559H108.112V85.8719H109.52V88.6559H111.392V89.7599H109.52V94.9439C109.542 95.2425 109.643 95.4665 109.824 95.6159C110.006 95.7545 110.219 95.8239 110.464 95.8239C110.742 95.8239 110.998 95.7759 111.232 95.6799C111.467 95.5839 111.622 95.5145 111.696 95.4719L112.032 96.5919ZM117.903 89.8879C117.199 89.8985 116.575 90.0799 116.031 90.4319C115.498 90.7732 115.119 91.2479 114.895 91.8559V97.0079H113.487V88.6559H114.799V90.5919C115.087 90.0159 115.466 89.5519 115.935 89.1999C116.415 88.8372 116.917 88.6345 117.439 88.5919C117.546 88.5919 117.637 88.5919 117.711 88.5919C117.786 88.5919 117.85 88.5972 117.903 88.6079V89.8879ZM119.45 97.0079V88.6559H120.858V97.0079H119.45ZM119.45 87.0879V85.3279H120.858V87.0879H119.45ZM127.607 96.5919C127.49 96.6452 127.33 96.7145 127.127 96.7999C126.925 96.8852 126.69 96.9599 126.423 97.0239C126.157 97.0879 125.874 97.1199 125.575 97.1199C125.234 97.1199 124.919 97.0612 124.631 96.9439C124.343 96.8159 124.114 96.6239 123.943 96.3679C123.773 96.1012 123.687 95.7705 123.687 95.3759V89.7599H122.551V88.6559H123.687V85.8719H125.095V88.6559H126.967V89.7599H125.095V94.9439C125.117 95.2425 125.218 95.4665 125.399 95.6159C125.581 95.7545 125.794 95.8239 126.039 95.8239C126.317 95.8239 126.573 95.7759 126.807 95.6799C127.042 95.5839 127.197 95.5145 127.271 95.4719L127.607 96.5919ZM129.062 97.0079V88.6559H130.47V97.0079H129.062ZM129.062 87.0879V85.3279H130.47V87.0879H129.062ZM136.548 97.1679C135.918 97.1679 135.348 97.0559 134.836 96.8319C134.324 96.5972 133.881 96.2825 133.508 95.8879C133.134 95.4825 132.846 95.0185 132.644 94.4959C132.441 93.9732 132.34 93.4239 132.34 92.8479C132.34 92.2612 132.441 91.7065 132.644 91.1839C132.846 90.6612 133.134 90.2025 133.508 89.8079C133.881 89.4025 134.324 89.0879 134.836 88.8639C135.358 88.6292 135.929 88.5119 136.548 88.5119C137.177 88.5119 137.748 88.6292 138.26 88.8639C138.772 89.0879 139.214 89.4025 139.588 89.8079C139.972 90.2025 140.265 90.6612 140.468 91.1839C140.67 91.7065 140.772 92.2612 140.772 92.8479C140.772 93.4239 140.67 93.9732 140.468 94.4959C140.265 95.0185 139.977 95.4825 139.604 95.8879C139.23 96.2825 138.782 96.5972 138.26 96.8319C137.748 97.0559 137.177 97.1679 136.548 97.1679ZM133.78 92.8639C133.78 93.4399 133.902 93.9625 134.148 94.4319C134.404 94.9012 134.74 95.2745 135.156 95.5519C135.572 95.8185 136.036 95.9519 136.548 95.9519C137.06 95.9519 137.524 95.8132 137.94 95.5359C138.366 95.2585 138.702 94.8852 138.948 94.4159C139.204 93.9359 139.332 93.4079 139.332 92.8319C139.332 92.2559 139.204 91.7332 138.948 91.2639C138.702 90.7945 138.366 90.4212 137.94 90.1439C137.524 89.8665 137.06 89.7279 136.548 89.7279C136.036 89.7279 135.572 89.8719 135.156 90.1599C134.74 90.4372 134.404 90.8105 134.148 91.2799C133.902 91.7492 133.78 92.2772 133.78 92.8639ZM149.876 97.0079H148.468V92.3359C148.468 91.4505 148.329 90.8052 148.052 90.3999C147.785 89.9839 147.375 89.7759 146.82 89.7759C146.436 89.7759 146.052 89.8719 145.668 90.0639C145.295 90.2559 144.959 90.5172 144.66 90.8479C144.372 91.1679 144.164 91.5412 144.036 91.9679V97.0079H142.628V88.6559H143.908V90.4479C144.132 90.0532 144.42 89.7119 144.772 89.4239C145.124 89.1359 145.524 88.9119 145.972 88.7519C146.42 88.5919 146.889 88.5119 147.38 88.5119C147.86 88.5119 148.26 88.6025 148.58 88.7839C148.911 88.9545 149.167 89.1999 149.348 89.5199C149.54 89.8292 149.673 90.1972 149.748 90.6239C149.833 91.0505 149.876 91.5145 149.876 92.0159V97.0079Z" fill="white"/>
</svg>
