<svg width="189" height="126" viewBox="0 0 189 126" fill="none" xmlns="http://www.w3.org/2000/svg">
<rect x="0.662842" width="188.333" height="126" rx="6" fill="#145FCA"/>
<path fill-rule="evenodd" clip-rule="evenodd" d="M74.8268 30.2578C74.8261 26.806 77.6238 24.0073 81.0756 24.0066L108.576 24.0012C112.027 24.0005 114.826 26.7982 114.827 30.25L114.832 57.75C114.833 61.2017 112.035 64.0005 108.583 64.0012L81.0834 64.0066C77.6316 64.0073 74.8329 61.2096 74.8322 57.7578L74.8268 30.2578ZM85.0788 40.6308L85.0814 54.0058L89.3315 54.005L89.3288 40.63L85.0788 40.6308ZM84.828 36.3809C84.8283 37.7558 85.8285 38.7557 87.2035 38.7554C88.5785 38.7551 89.5783 37.7549 89.578 36.3799C89.5777 35.0049 88.5775 34.0051 87.2025 34.0054C85.9525 34.0056 84.8277 35.0059 84.828 36.3809ZM100.581 54.0028L104.581 54.002L104.58 45.752C104.579 41.627 102.079 40.2525 99.7037 40.2529C97.5787 40.2533 96.079 41.6286 95.7042 42.5037L95.7038 40.6287L91.7038 40.6295L91.7065 54.0045L95.9564 54.0037L95.955 46.8787C95.9547 45.0037 97.2045 44.0034 98.4545 44.0032C99.7045 44.0029 100.58 44.6278 100.58 46.7528L100.581 54.0028Z" fill="white"/>
<path d="M44.6975 97.0878C43.8975 97.0878 43.1722 96.9278 42.5215 96.6078C41.8708 96.2878 41.3055 95.8558 40.8255 95.3118C40.3562 94.7571 39.9935 94.1385 39.7375 93.4558C39.4815 92.7625 39.3535 92.0531 39.3535 91.3278C39.3535 90.5705 39.4868 89.8505 39.7535 89.1678C40.0308 88.4745 40.4095 87.8611 40.8895 87.3278C41.3802 86.7838 41.9508 86.3571 42.6015 86.0478C43.2522 85.7278 43.9615 85.5678 44.7295 85.5678C45.5295 85.5678 46.2548 85.7331 46.9055 86.0638C47.5562 86.3945 48.1162 86.8371 48.5855 87.3918C49.0548 87.9465 49.4175 88.5651 49.6735 89.2478C49.9295 89.9305 50.0575 90.6291 50.0575 91.3438C50.0575 92.1011 49.9242 92.8265 49.6575 93.5198C49.3908 94.2025 49.0122 94.8158 48.5215 95.3598C48.0415 95.8931 47.4762 96.3145 46.8255 96.6238C46.1748 96.9331 45.4655 97.0878 44.6975 97.0878ZM40.8095 91.3278C40.8095 91.9038 40.9002 92.4638 41.0815 93.0078C41.2735 93.5411 41.5402 94.0158 41.8815 94.4318C42.2228 94.8478 42.6335 95.1785 43.1135 95.4238C43.5935 95.6691 44.1268 95.7918 44.7135 95.7918C45.3215 95.7918 45.8655 95.6638 46.3455 95.4078C46.8255 95.1518 47.2308 94.8105 47.5615 94.3838C47.9028 93.9571 48.1588 93.4771 48.3295 92.9438C48.5108 92.4105 48.6015 91.8718 48.6015 91.3278C48.6015 90.7518 48.5055 90.1971 48.3135 89.6638C48.1322 89.1305 47.8655 88.6558 47.5135 88.2398C47.1722 87.8131 46.7615 87.4825 46.2815 87.2478C45.8122 87.0025 45.2895 86.8798 44.7135 86.8798C44.1055 86.8798 43.5615 87.0078 43.0815 87.2638C42.6015 87.5091 42.1908 87.8451 41.8495 88.2718C41.5188 88.6985 41.2628 89.1785 41.0815 89.7118C40.9002 90.2345 40.8095 90.7731 40.8095 91.3278ZM56.2723 97.1678C55.6216 97.1678 55.0296 97.0078 54.4963 96.6878C53.9629 96.3678 53.5416 95.9518 53.2323 95.4398V97.0078H51.9843V85.3278H53.3923V90.3198C53.7443 89.7758 54.1763 89.3385 54.6883 89.0078C55.2003 88.6771 55.7976 88.5118 56.4803 88.5118C57.0563 88.5118 57.5736 88.6345 58.0323 88.8798C58.4909 89.1145 58.8803 89.4398 59.2003 89.8558C59.5309 90.2611 59.7816 90.7251 59.9523 91.2478C60.1336 91.7598 60.2243 92.2985 60.2243 92.8638C60.2243 93.4505 60.1229 94.0051 59.9203 94.5278C59.7283 95.0398 59.4509 95.4985 59.0883 95.9038C58.7256 96.2985 58.3043 96.6078 57.8243 96.8318C57.3549 97.0558 56.8376 97.1678 56.2723 97.1678ZM55.9203 95.9518C56.3363 95.9518 56.7203 95.8665 57.0723 95.6958C57.4243 95.5251 57.7283 95.2958 57.9843 95.0078C58.2403 94.7198 58.4376 94.3891 58.5763 94.0158C58.7149 93.6425 58.7843 93.2585 58.7843 92.8638C58.7843 92.3198 58.6669 91.8078 58.4323 91.3278C58.2083 90.8478 57.8883 90.4638 57.4723 90.1758C57.0669 89.8771 56.5923 89.7278 56.0483 89.7278C55.6536 89.7278 55.2856 89.8185 54.9443 89.9998C54.6029 90.1811 54.2989 90.4211 54.0323 90.7198C53.7763 91.0078 53.5629 91.3278 53.3923 91.6798V94.0958C53.4456 94.3625 53.5576 94.6078 53.7283 94.8318C53.8989 95.0558 54.1069 95.2531 54.3523 95.4238C54.5976 95.5838 54.8536 95.7118 55.1203 95.8078C55.3976 95.9038 55.6643 95.9518 55.9203 95.9518ZM65.799 97.1678C65.1697 97.1678 64.5937 97.0558 64.071 96.8318C63.559 96.5971 63.111 96.2825 62.727 95.8878C62.3537 95.4825 62.0603 95.0185 61.847 94.4958C61.6443 93.9731 61.543 93.4185 61.543 92.8318C61.543 92.0425 61.7243 91.3225 62.087 90.6718C62.4497 90.0211 62.951 89.4985 63.591 89.1038C64.2417 88.7091 64.983 88.5118 65.815 88.5118C66.6577 88.5118 67.3883 88.7145 68.007 89.1198C68.6363 89.5145 69.1217 90.0371 69.463 90.6878C69.815 91.3278 69.991 92.0211 69.991 92.7678C69.991 92.8745 69.9857 92.9811 69.975 93.0878C69.975 93.1838 69.9697 93.2585 69.959 93.3118H63.031C63.0737 93.8558 63.223 94.3411 63.479 94.7678C63.7457 95.1838 64.087 95.5145 64.503 95.7598C64.919 95.9945 65.367 96.1118 65.847 96.1118C66.359 96.1118 66.839 95.9838 67.287 95.7278C67.7457 95.4718 68.0603 95.1358 68.231 94.7198L69.447 95.0558C69.2657 95.4611 68.9937 95.8238 68.631 96.1438C68.279 96.4638 67.8577 96.7145 67.367 96.8958C66.887 97.0771 66.3643 97.1678 65.799 97.1678ZM62.983 92.3358H68.679C68.6363 91.7918 68.4817 91.3118 68.215 90.8958C67.9483 90.4798 67.607 90.1545 67.191 89.9198C66.775 89.6851 66.3163 89.5678 65.815 89.5678C65.3243 89.5678 64.871 89.6851 64.455 89.9198C64.039 90.1545 63.6977 90.4798 63.431 90.8958C63.175 91.3118 63.0257 91.7918 62.983 92.3358ZM78.9541 97.0078H77.5461V92.3358C77.5461 91.4505 77.4075 90.8051 77.1301 90.3998C76.8635 89.9838 76.4528 89.7758 75.8981 89.7758C75.5141 89.7758 75.1301 89.8718 74.7461 90.0638C74.3728 90.2558 74.0368 90.5171 73.7381 90.8478C73.4501 91.1678 73.2421 91.5411 73.1141 91.9678V97.0078H71.7061V88.6558H72.9861V90.4478C73.2101 90.0531 73.4981 89.7118 73.8501 89.4238C74.2021 89.1358 74.6021 88.9118 75.0501 88.7518C75.4981 88.5918 75.9675 88.5118 76.4581 88.5118C76.9381 88.5118 77.3381 88.6025 77.6581 88.7838C77.9888 88.9545 78.2448 89.1998 78.4261 89.5198C78.6181 89.8291 78.7515 90.1971 78.8261 90.6238C78.9115 91.0505 78.9541 91.5145 78.9541 92.0158V97.0078ZM87.1545 88.3038V97.0078H85.7145V85.6478H86.9305L93.8745 94.5278V85.6638H95.3145V97.0078H94.0025L87.1545 88.3038ZM97.873 93.6638V88.6558H99.281V93.3918C99.281 94.2451 99.4304 94.8851 99.729 95.3118C100.028 95.7385 100.47 95.9518 101.057 95.9518C101.441 95.9518 101.809 95.8718 102.161 95.7118C102.524 95.5411 102.849 95.3011 103.137 94.9918C103.425 94.6825 103.649 94.3145 103.809 93.8878V88.6558H105.217V95.4078C105.217 95.5785 105.249 95.7065 105.313 95.7918C105.388 95.8665 105.505 95.9091 105.665 95.9198V97.0078C105.505 97.0291 105.377 97.0398 105.281 97.0398C105.196 97.0505 105.11 97.0558 105.025 97.0558C104.758 97.0558 104.529 96.9758 104.337 96.8158C104.145 96.6451 104.044 96.4371 104.033 96.1918L104.001 95.2158C103.638 95.8345 103.148 96.3145 102.529 96.6558C101.921 96.9971 101.254 97.1678 100.529 97.1678C99.6544 97.1678 98.993 96.8745 98.545 96.2878C98.097 95.6905 97.873 94.8158 97.873 93.6638ZM112.032 96.5918C111.915 96.6451 111.755 96.7145 111.552 96.7998C111.35 96.8851 111.115 96.9598 110.848 97.0238C110.582 97.0878 110.299 97.1198 110 97.1198C109.659 97.1198 109.344 97.0611 109.056 96.9438C108.768 96.8158 108.539 96.6238 108.368 96.3678C108.198 96.1011 108.112 95.7705 108.112 95.3758V89.7598H106.976V88.6558H108.112V85.8718H109.52V88.6558H111.392V89.7598H109.52V94.9438C109.542 95.2425 109.643 95.4665 109.824 95.6158C110.006 95.7545 110.219 95.8238 110.464 95.8238C110.742 95.8238 110.998 95.7758 111.232 95.6798C111.467 95.5838 111.622 95.5145 111.696 95.4718L112.032 96.5918ZM117.903 89.8878C117.199 89.8985 116.575 90.0798 116.031 90.4318C115.498 90.7731 115.119 91.2478 114.895 91.8558V97.0078H113.487V88.6558H114.799V90.5918C115.087 90.0158 115.466 89.5518 115.935 89.1998C116.415 88.8371 116.917 88.6345 117.439 88.5918C117.546 88.5918 117.637 88.5918 117.711 88.5918C117.786 88.5918 117.85 88.5971 117.903 88.6078V89.8878ZM119.45 97.0078V88.6558H120.858V97.0078H119.45ZM119.45 87.0878V85.3278H120.858V87.0878H119.45ZM127.607 96.5918C127.49 96.6451 127.33 96.7145 127.127 96.7998C126.925 96.8851 126.69 96.9598 126.423 97.0238C126.157 97.0878 125.874 97.1198 125.575 97.1198C125.234 97.1198 124.919 97.0611 124.631 96.9438C124.343 96.8158 124.114 96.6238 123.943 96.3678C123.773 96.1011 123.687 95.7705 123.687 95.3758V89.7598H122.551V88.6558H123.687V85.8718H125.095V88.6558H126.967V89.7598H125.095V94.9438C125.117 95.2425 125.218 95.4665 125.399 95.6158C125.581 95.7545 125.794 95.8238 126.039 95.8238C126.317 95.8238 126.573 95.7758 126.807 95.6798C127.042 95.5838 127.197 95.5145 127.271 95.4718L127.607 96.5918ZM129.062 97.0078V88.6558H130.47V97.0078H129.062ZM129.062 87.0878V85.3278H130.47V87.0878H129.062ZM136.548 97.1678C135.919 97.1678 135.348 97.0558 134.836 96.8318C134.324 96.5971 133.881 96.2825 133.508 95.8878C133.135 95.4825 132.847 95.0185 132.644 94.4958C132.441 93.9731 132.34 93.4238 132.34 92.8478C132.34 92.2611 132.441 91.7065 132.644 91.1838C132.847 90.6611 133.135 90.2025 133.508 89.8078C133.881 89.4025 134.324 89.0878 134.836 88.8638C135.359 88.6291 135.929 88.5118 136.548 88.5118C137.177 88.5118 137.748 88.6291 138.26 88.8638C138.772 89.0878 139.215 89.4025 139.588 89.8078C139.972 90.2025 140.265 90.6611 140.468 91.1838C140.671 91.7065 140.772 92.2611 140.772 92.8478C140.772 93.4238 140.671 93.9731 140.468 94.4958C140.265 95.0185 139.977 95.4825 139.604 95.8878C139.231 96.2825 138.783 96.5971 138.26 96.8318C137.748 97.0558 137.177 97.1678 136.548 97.1678ZM133.78 92.8638C133.78 93.4398 133.903 93.9625 134.148 94.4318C134.404 94.9011 134.74 95.2745 135.156 95.5518C135.572 95.8185 136.036 95.9518 136.548 95.9518C137.06 95.9518 137.524 95.8131 137.94 95.5358C138.367 95.2585 138.703 94.8851 138.948 94.4158C139.204 93.9358 139.332 93.4078 139.332 92.8318C139.332 92.2558 139.204 91.7331 138.948 91.2638C138.703 90.7945 138.367 90.4211 137.94 90.1438C137.524 89.8665 137.06 89.7278 136.548 89.7278C136.036 89.7278 135.572 89.8718 135.156 90.1598C134.74 90.4371 134.404 90.8105 134.148 91.2798C133.903 91.7491 133.78 92.2771 133.78 92.8638ZM149.876 97.0078H148.468V92.3358C148.468 91.4505 148.329 90.8051 148.052 90.3998C147.785 89.9838 147.375 89.7758 146.82 89.7758C146.436 89.7758 146.052 89.8718 145.668 90.0638C145.295 90.2558 144.959 90.5171 144.66 90.8478C144.372 91.1678 144.164 91.5411 144.036 91.9678V97.0078H142.628V88.6558H143.908V90.4478C144.132 90.0531 144.42 89.7118 144.772 89.4238C145.124 89.1358 145.524 88.9118 145.972 88.7518C146.42 88.5918 146.889 88.5118 147.38 88.5118C147.86 88.5118 148.26 88.6025 148.58 88.7838C148.911 88.9545 149.167 89.1998 149.348 89.5198C149.54 89.8291 149.673 90.1971 149.748 90.6238C149.833 91.0505 149.876 91.5145 149.876 92.0158V97.0078Z" fill="white"/>
</svg>
