<svg width="312" height="60" viewBox="0 0 312 60" fill="none" xmlns="http://www.w3.org/2000/svg">
<g clip-path="url(#clip0_106_578)">
<path d="M41.3124 60C38.4614 60 35.5437 59.5773 32.548 58.7431C29.5522 57.9088 26.7124 56.6741 24.0508 55.0501C21.3781 53.426 19.0839 51.5017 17.1462 49.2659C13.0814 53.3259 9.21702 55.3615 5.55311 55.3615C3.67104 55.3615 2.27898 54.8165 1.35465 53.7264C0.44146 52.6363 -0.0151367 51.2236 -0.0151367 49.4994C-0.0151367 46.2959 1.20988 42.5473 3.64877 38.2314C5.93175 34.1713 7.76927 32.0356 9.13906 31.8354C10.1525 31.8354 11.1993 32.881 12.2684 34.9611L17.0682 44.2492C19.7633 40.6452 22.5808 36.7631 25.532 32.6029C21.3669 30.723 19.2844 28.0089 19.2844 24.4494C19.2844 22.9255 19.6519 21.5128 20.3869 20.2225C21.1219 18.9321 22.0797 17.8754 23.249 17.0634C24.4183 16.2514 25.6099 15.8509 26.8349 15.8509C28.5166 15.8509 29.7304 16.6407 30.4989 18.2091C30.5991 18.3649 30.6102 18.5095 30.5434 18.6652C30.4654 18.8209 30.3764 18.8654 30.2761 18.8209C29.9198 18.4093 29.4075 18.0645 28.7504 17.7531C28.0934 17.4527 27.4809 17.297 26.924 17.297C25.8549 17.297 24.8749 17.7197 23.984 18.554C23.0931 19.3882 22.4026 20.3671 21.9238 21.4905C21.4449 22.6029 21.2444 23.5929 21.3558 24.4605C21.3558 27.0523 23.1822 29.3103 26.8461 31.2347C27.7147 29.9666 28.6502 28.5873 29.6636 27.0857C30.677 25.584 31.7684 23.9711 32.9377 22.2469C43.0497 7.40823 51.4577 0 58.1619 0C62.8838 0 65.2558 2.21357 65.2558 6.62959C65.2558 10.6452 63.2958 15.3615 59.3869 20.7898C57.4603 23.4816 55.0214 25.8954 52.0702 28.02C49.1191 30.1557 46.012 31.8354 42.7267 33.0812C39.4526 34.327 36.2787 34.9499 33.2384 34.9499C32.5257 34.9499 31.8241 34.9166 31.1448 34.8387C30.4654 34.7608 29.8418 34.6274 29.2738 34.416C27.9486 36.1402 26.4229 38.0756 24.6967 40.2002C22.9706 42.3359 21.0662 44.6941 18.9837 47.2859C19.8969 48.554 21.211 49.822 22.9149 51.0901C24.6188 52.3582 26.5343 53.4928 28.6725 54.4828C30.8107 55.4728 32.9155 56.2736 34.998 56.8854C37.0805 57.4972 38.9626 57.7976 40.6442 57.7976C42.5708 57.7976 44.3526 57.5862 45.9786 57.1524C47.6045 56.7186 48.9297 56.04 49.9432 55.0946C50.9566 54.1602 51.4689 52.9255 51.4689 51.4016V50.7898C51.4689 50.5895 51.4466 50.3782 51.3909 50.178C51.3909 50.0779 51.3798 50 51.3575 49.9444C51.3352 49.8999 51.3241 49.8443 51.3241 49.7887C51.3241 49.277 51.48 49.0323 51.7807 49.0323C52.293 49.0323 52.6939 49.4216 53.0057 50.2113C53.3064 51.0011 53.4623 51.624 53.4623 52.0801C53.4623 53.6485 52.8498 55.0389 51.6359 56.2291C50.422 57.4194 48.8741 58.3537 47.0254 59.01C45.1656 59.6663 43.2724 60 41.3458 60H41.3124ZM5.70902 53.3037C6.6779 53.3037 7.75814 52.9588 8.94974 52.2803C10.1413 51.5907 11.2995 50.7453 12.4243 49.733C13.538 48.7208 14.4512 47.7308 15.1639 46.7631C14.4512 45.7508 13.6939 44.5273 12.8809 43.1035C12.068 41.6796 11.177 40.0334 10.2082 38.1535C9.03883 35.7175 8.14791 34.6274 7.53541 34.8832C6.62221 35.0389 5.63106 36.663 4.56196 39.7553C3.49286 42.8476 2.95831 45.7508 2.95831 48.4316C2.95831 51.6796 3.8715 53.3037 5.69788 53.3037H5.70902ZM32.6927 32.97C35.2875 32.97 38.0494 32.3693 41.0006 31.1791C43.9517 29.9889 46.7359 28.4093 49.3529 26.4627C51.97 24.5161 54.0859 22.3915 55.723 20.1001C60.3447 13.6596 62.661 8.75417 62.661 5.40601C62.661 3.9822 62.249 2.94772 61.436 2.28031C60.6231 1.62403 59.6319 1.29032 58.4626 1.29032C55.9235 1.29032 52.7718 3.42603 49.0077 7.68632C47.8384 9.05451 46.3015 11.0234 44.3972 13.5929C42.4929 16.1513 40.2433 19.3215 37.6485 23.0701C36.6351 24.5384 35.5103 26.0957 34.2964 27.7197C33.0825 29.3437 31.8018 31.0234 30.4877 32.7475C31.2005 32.9032 31.9355 32.9811 32.7039 32.9811L32.6927 32.97Z" fill="#0092FF"/>
<path d="M52.6717 52.5471C51.558 52.5471 50.6226 52.1801 49.8875 51.4459C49.1525 50.7118 48.785 49.3992 48.785 47.5193C48.785 46.4515 49.03 45.2279 49.5089 43.8263C49.9878 42.4359 50.6003 41.0232 51.3353 39.5994C52.0703 38.1756 52.7942 36.9075 53.5069 35.7952C56.3467 31.1789 58.6965 28.843 60.5229 28.7874C60.9795 28.7874 61.5363 28.9765 62.2045 29.3547C62.8616 29.7329 63.1957 30.1556 63.1957 30.6117L57.4047 38.0755C53.596 43.0032 51.6917 46.5071 51.6917 48.5872C51.6917 50.2112 52.3264 51.0232 53.596 51.0232C54.409 51.0232 55.4669 50.6784 56.7588 49.9999C58.0506 49.3213 59.4092 48.4426 60.8347 47.3747C62.2602 46.3069 63.6188 45.1611 64.9107 43.9487C66.2025 42.7251 67.2605 41.6128 68.0734 40.6005C68.5857 39.9442 69.0312 39.4882 69.4098 39.2323C69.7885 38.9765 70.0335 38.8541 70.1337 38.8541C70.3341 38.8541 70.4344 39.0099 70.4344 39.3102C70.4344 39.566 70.1448 40.0666 69.5546 40.8341C68.9644 41.5905 68.1737 42.4804 67.1491 43.5038C65.9241 44.7273 64.5766 46.0399 63.1066 47.4637C61.6365 48.8875 60.0329 50.0888 58.3067 51.0788C56.5806 52.0688 54.6985 52.5583 52.6605 52.5583L52.6717 52.5471ZM66.7705 25.5171C65.9018 25.5171 65.1557 25.239 64.5209 24.6828C63.8861 24.1267 63.5632 23.4926 63.5632 22.7807C63.5632 21.3569 64.532 20.645 66.4586 20.645C67.1714 20.645 67.8841 20.8897 68.5969 21.368C69.3096 21.8464 69.666 22.447 69.666 23.1589C69.666 23.7707 69.3319 24.3158 68.6748 24.7941C68.0178 25.2724 67.383 25.5171 66.7705 25.5171Z" fill="#0092FF"/>
<path d="M69.677 51.9355C69.3764 51.9355 68.942 51.7909 68.3852 51.5128C67.8284 51.2347 67.3161 50.901 66.8595 50.5228C66.4029 50.1446 66.1468 49.7998 66.1022 49.4995C66.0577 49.099 66.3138 47.9422 66.9041 46.0401C67.4832 44.138 68.4186 41.5351 69.6882 38.2314C70.9577 34.8832 72.0268 32.2915 72.8955 30.4672C73.7641 28.643 74.3878 27.5529 74.7998 27.1969C75.0003 26.9967 75.2787 26.8966 75.6351 26.8966C76.1919 26.8966 76.7264 27.1413 77.2387 27.6196C77.751 28.0979 78.0294 28.6763 78.074 29.3326C78.074 29.3882 76.8044 32.3805 74.2653 38.3204C71.7707 44.0601 70.6014 47.4861 70.7573 48.5985C72.9957 47.8866 76.7264 45.3727 81.9606 41.0568C85.1122 38.4205 87.3841 36.0178 88.7873 33.8599C90.1793 31.7019 90.8809 29.7664 90.8809 28.0312C90.8809 27.0189 90.6359 26.0846 90.1571 25.2503C89.6782 24.416 88.7984 23.7153 87.5288 23.1591C87.1725 23.0034 86.9943 22.7809 86.9943 22.4694C86.9943 22.0134 87.2727 21.7798 87.8295 21.7798C89.2995 21.7798 90.5914 22.2581 91.6828 23.2258C92.7741 24.1936 93.3198 25.6396 93.3198 27.564C93.3198 29.5996 92.4512 31.891 90.725 34.4605C88.9989 37.0301 86.5266 39.7553 83.3304 42.6474C80.5351 45.1391 78.0071 47.1635 75.7464 48.7431C73.4857 50.3226 71.47 51.3793 69.6882 51.9466L69.677 51.9355Z" fill="#0092FF"/>
<path d="M93.9992 52.6917C92.3733 52.6917 90.9032 52.1689 89.578 51.1344C88.2528 50.0999 87.5957 48.7095 87.5957 46.9853C87.5957 43.3813 89.8119 39.2656 94.2331 34.6494C98.7545 29.9775 102.797 27.6416 106.35 27.6416C107.519 27.6416 108.477 27.9642 109.212 28.5982C109.947 29.2323 110.314 30.0109 110.314 30.923C110.314 33.7706 108.053 36.5626 103.532 39.299C99.5117 41.735 96.1374 42.9586 93.3867 42.9586C92.9746 42.9586 92.6294 42.9141 92.3176 42.8029C91.5603 44.1711 91.1705 45.6171 91.1705 47.141C91.1705 49.7773 92.4178 51.101 94.9012 51.101C97.3847 51.101 100.726 49.3991 104.735 45.9953C107.831 43.5037 110.481 40.8674 112.664 38.0754C113.121 37.4636 113.533 37.1633 113.878 37.1633C114.179 37.1633 114.334 37.319 114.334 37.6194C114.334 37.9197 114.134 38.3535 113.722 38.9097C112.296 40.7895 110.771 42.5137 109.145 44.0932C107.519 45.6727 105.759 47.1188 103.888 48.4314C99.9795 51.279 96.6719 52.6917 93.9769 52.6917H93.9992ZM94.4558 41.2679C96.3824 41.2679 98.8992 40.3001 102.006 38.3758C103.02 37.6638 104.022 36.863 105.013 35.9731C106.004 35.0832 106.817 34.1822 107.452 33.2701C108.087 32.358 108.41 31.5459 108.41 30.834C108.41 30.1778 107.875 29.844 106.806 29.844C105.28 29.844 103.142 30.9898 100.403 33.2701C99.0774 34.3824 97.8079 35.606 96.594 36.9297C95.369 38.2534 94.3333 39.6438 93.4646 41.1121C93.7653 41.2122 94.0994 41.2679 94.4558 41.2679Z" fill="#0092FF"/>
<path d="M164.593 19.8001C164.449 19.9002 164.326 20.0337 164.237 20.1895L162.678 22.8813L161.954 24.1272L159.682 28.0649C159.203 28.888 159.805 29.9225 160.751 29.9225H162.143C159.905 38.5877 152.043 44.9837 142.666 44.9837C142.621 44.9837 142.565 44.9837 142.521 44.9837C148.646 44.8279 153.557 39.8224 153.557 33.6822C153.557 27.5421 148.635 22.5143 142.499 22.3808C142.41 22.3808 142.32 22.3808 142.231 22.3808C135.984 22.3808 130.906 27.442 130.906 33.6933C130.906 39.4553 135.215 44.205 140.784 44.9169C140.806 44.9169 140.839 44.9169 140.862 44.9169C140.873 44.9169 140.884 44.9169 140.906 44.9169C141.34 44.9725 141.775 44.9948 142.22 44.9948C142.298 44.9948 142.376 44.9948 142.454 44.9948H142.476V59.9781C142.387 59.9781 142.298 59.9781 142.209 59.9781C127.676 59.9781 115.882 48.2095 115.882 33.6822C115.882 26.0404 119.145 19.1661 124.357 14.3608C125.226 13.5599 126.15 12.8146 127.13 12.1361C131.407 9.15497 136.596 7.39746 142.209 7.39746C148.757 7.39746 154.76 9.78901 159.37 13.749C161.397 15.4953 163.157 17.5421 164.582 19.8113L164.593 19.8001Z" fill="#3B444D"/>
<path d="M142.499 44.9836H142.521C142.565 44.9836 142.621 44.9836 142.666 44.9836C152.031 44.9836 159.905 38.5876 162.143 29.9224H160.751C159.794 29.9224 159.203 28.8879 159.682 28.0648L161.954 24.1271L162.678 22.8813L164.237 20.1894C164.337 20.0225 164.46 19.889 164.593 19.8001C165.161 19.4107 165.997 19.5331 166.375 20.1894L170.93 28.0648C171.409 28.8879 170.808 29.9224 169.861 29.9224H168.291C168.469 31.146 168.558 32.403 168.558 33.671C168.558 48.0982 156.92 59.8223 142.499 59.9669" fill="url(#paint0_linear_106_578)"/>
<path d="M217.659 44.1716C217.659 54.4941 212.18 59.6554 201.221 59.6554H176.799V7.38623H200.052C210.487 7.38623 215.71 11.5464 215.71 19.8556C215.71 25.3284 213.616 29.1215 209.429 31.235C214.908 33.8712 217.648 38.176 217.648 44.1716H217.659ZM201.221 22.9591C201.221 19.5998 199.54 17.9313 196.188 17.9313H192.156V27.998H196.344C199.595 27.998 201.233 26.3184 201.233 22.9702L201.221 22.9591ZM202.302 43.3262C202.302 39.5553 200.42 37.6754 196.644 37.6754H192.145V48.9769H196.8C200.464 48.9769 202.302 47.097 202.302 43.3262Z" fill="#3B444D"/>
<path d="M224.92 59.6554V7.38623H257.171V13.5375C257.171 17.6421 255.178 19.6888 251.202 19.6888H240.266V27.1971H255.612V33.3929C255.612 37.5197 253.619 39.5887 249.643 39.5887H240.266V47.3306H257.171V53.4819C257.171 57.5865 255.178 59.6332 251.202 59.6332H224.92V59.6554Z" fill="#3B444D"/>
<path d="M296.65 30.6898V14.1158C296.65 9.62194 299.211 7.375 304.323 7.375H311.996V52.9034C311.996 57.3973 309.435 59.6442 304.323 59.6442C301.483 59.6442 299.234 58.6653 297.574 56.6965L280.368 36.2515V52.9034C280.368 57.3973 277.807 59.6442 272.695 59.6442H265.022V7.41949L272.695 7.38612C275.981 7.36388 278.33 8.42061 279.745 10.5563L296.65 30.6898Z" fill="#3B444D"/>
<path d="M139.169 44.9946H145.84V56.6409C145.84 58.4763 144.347 59.9668 142.51 59.9668C140.672 59.9668 139.18 58.4763 139.18 56.6409V44.9946H139.169Z" fill="#3B444D"/>
</g>
<defs>
<linearGradient id="paint0_linear_106_578" x1="170.306" y1="28.5765" x2="149.928" y2="48.6337" gradientUnits="userSpaceOnUse">
<stop stop-color="#0092FF"/>
<stop offset="1" stop-color="#3B444D"/>
</linearGradient>
<clipPath id="clip0_106_578">
<rect width="312" height="60" fill="white" transform="translate(-0.00390625)"/>
</clipPath>
</defs>
</svg>
