<svg width="189" height="126" viewBox="0 0 189 126" fill="none" xmlns="http://www.w3.org/2000/svg">
<rect x="0.66272" width="188.333" height="126" rx="6" fill="#3B444D"/>
<path d="M81.8293 35L93.6909 43.2119C94.3758 43.686 95.2829 43.686 95.9678 43.2119L107.829 35M82.8293 56H106.829C109.038 56 110.829 54.2091 110.829 52V36C110.829 33.7909 109.038 32 106.829 32H82.8293C80.6202 32 78.8293 33.7909 78.8293 36V52C78.8293 54.2091 80.6202 56 82.8293 56Z" stroke="white" stroke-width="3" stroke-linecap="round" stroke-linejoin="round"/>
<path d="M37.1435 97V88.648H38.5515V97H37.1435ZM37.1435 87.08V85.32H38.5515V87.08H37.1435ZM48.229 97H46.821V92.328C46.821 91.4427 46.6823 90.7973 46.405 90.392C46.1383 89.976 45.7277 89.768 45.173 89.768C44.789 89.768 44.405 89.864 44.021 90.056C43.6477 90.248 43.3117 90.5093 43.013 90.84C42.725 91.16 42.517 91.5333 42.389 91.96V97H40.981V88.648H42.261V90.44C42.485 90.0453 42.773 89.704 43.125 89.416C43.477 89.128 43.877 88.904 44.325 88.744C44.773 88.584 45.2423 88.504 45.733 88.504C46.213 88.504 46.613 88.5947 46.933 88.776C47.2637 88.9467 47.5197 89.192 47.701 89.512C47.893 89.8213 48.0263 90.1893 48.101 90.616C48.1863 91.0427 48.229 91.5067 48.229 92.008V97ZM50.9384 97V89.752H49.8024V88.648H50.9384V88.472C50.9384 87.7893 51.0397 87.2027 51.2424 86.712C51.4557 86.2107 51.7544 85.8267 52.1384 85.56C52.5224 85.2933 52.9757 85.16 53.4984 85.16C53.8291 85.16 54.1544 85.208 54.4744 85.304C54.7944 85.3893 55.0824 85.512 55.3384 85.672L54.9864 86.712C54.8371 86.6053 54.6504 86.52 54.4264 86.456C54.2131 86.392 53.9997 86.36 53.7864 86.36C53.3277 86.36 52.9704 86.5413 52.7144 86.904C52.4691 87.256 52.3464 87.7627 52.3464 88.424V88.648H54.5704V89.752H52.3464V97H50.9384ZM59.5696 97.16C58.9403 97.16 58.3696 97.048 57.8576 96.824C57.3456 96.5893 56.903 96.2747 56.5296 95.88C56.1563 95.4747 55.8683 95.0107 55.6656 94.488C55.463 93.9653 55.3616 93.416 55.3616 92.84C55.3616 92.2533 55.463 91.6987 55.6656 91.176C55.8683 90.6533 56.1563 90.1947 56.5296 89.8C56.903 89.3947 57.3456 89.08 57.8576 88.856C58.3803 88.6213 58.951 88.504 59.5696 88.504C60.199 88.504 60.7696 88.6213 61.2816 88.856C61.7936 89.08 62.2363 89.3947 62.6096 89.8C62.9936 90.1947 63.287 90.6533 63.4896 91.176C63.6923 91.6987 63.7936 92.2533 63.7936 92.84C63.7936 93.416 63.6923 93.9653 63.4896 94.488C63.287 95.0107 62.999 95.4747 62.6256 95.88C62.2523 96.2747 61.8043 96.5893 61.2816 96.824C60.7696 97.048 60.199 97.16 59.5696 97.16ZM56.8016 92.856C56.8016 93.432 56.9243 93.9547 57.1696 94.424C57.4256 94.8933 57.7616 95.2667 58.1776 95.544C58.5936 95.8107 59.0576 95.944 59.5696 95.944C60.0816 95.944 60.5456 95.8053 60.9616 95.528C61.3883 95.2507 61.7243 94.8773 61.9696 94.408C62.2256 93.928 62.3536 93.4 62.3536 92.824C62.3536 92.248 62.2256 91.7253 61.9696 91.256C61.7243 90.7867 61.3883 90.4133 60.9616 90.136C60.5456 89.8587 60.0816 89.72 59.5696 89.72C59.0576 89.72 58.5936 89.864 58.1776 90.152C57.7616 90.4293 57.4256 90.8027 57.1696 91.272C56.9243 91.7413 56.8016 92.2693 56.8016 92.856ZM71.2178 87.352C72.0071 87.352 72.7538 87.496 73.4578 87.784C74.1618 88.0613 74.7858 88.4667 75.3298 89C75.8738 89.5333 76.3004 90.1787 76.6098 90.936C76.9298 91.6827 77.0898 92.52 77.0898 93.448C77.0898 93.6293 77.0738 93.8747 77.0418 94.184C77.0204 94.4933 76.9671 94.824 76.8818 95.176C76.7964 95.528 76.6684 95.864 76.4978 96.184C76.3271 96.4933 76.0924 96.7493 75.7938 96.952C75.5058 97.1547 75.1431 97.256 74.7058 97.256C74.3431 97.256 74.0658 97.1867 73.8738 97.048C73.6818 96.9093 73.5484 96.7333 73.4738 96.52C73.3991 96.296 73.3458 96.0667 73.3138 95.832C73.0151 96.152 72.6258 96.424 72.1458 96.648C71.6764 96.8613 71.1591 96.968 70.5938 96.968C69.8151 96.968 69.2124 96.76 68.7858 96.344C68.3698 95.928 68.1618 95.4107 68.1618 94.792C68.1618 94.2267 68.3111 93.784 68.6098 93.464C68.9084 93.144 69.2871 92.9147 69.7458 92.776C70.2151 92.6373 70.6844 92.568 71.1538 92.568C71.6124 92.568 72.0124 92.616 72.3538 92.712C72.6951 92.7973 72.9511 92.872 73.1218 92.936C73.1218 92.4667 73.0684 92.056 72.9618 91.704C72.8551 91.3413 72.6578 91.0587 72.3698 90.856C72.0924 90.6533 71.6978 90.552 71.1858 90.552C70.7591 90.552 70.3591 90.6213 69.9858 90.76C69.6124 90.888 69.2764 91.064 68.9778 91.288L68.6578 90.504C69.0418 90.248 69.4578 90.0507 69.9058 89.912C70.3538 89.7627 70.8231 89.688 71.3138 89.688C71.9431 89.688 72.4391 89.7893 72.8018 89.992C73.1644 90.184 73.4311 90.4453 73.6018 90.776C73.7724 91.096 73.8844 91.4533 73.9378 91.848C73.9911 92.232 74.0178 92.6107 74.0178 92.984V94.888C74.0178 95.1973 74.0338 95.48 74.0658 95.736C74.0978 95.992 74.1724 96.1947 74.2898 96.344C74.4071 96.4827 74.5884 96.552 74.8338 96.552C75.1538 96.552 75.4151 96.4453 75.6178 96.232C75.8311 96.008 75.9911 95.7307 76.0978 95.4C76.2151 95.0587 76.2951 94.712 76.3378 94.36C76.3911 93.9973 76.4178 93.6827 76.4178 93.416C76.4178 92.648 76.2844 91.9387 76.0178 91.288C75.7618 90.6267 75.3991 90.0507 74.9298 89.56C74.4604 89.0693 73.9058 88.6853 73.2658 88.408C72.6364 88.1307 71.9431 87.992 71.1858 87.992C70.4498 87.992 69.7618 88.1253 69.1218 88.392C68.4818 88.648 67.9218 89.016 67.4418 89.496C66.9724 89.976 66.5991 90.5413 66.3218 91.192C66.0551 91.8427 65.9218 92.552 65.9218 93.32C65.9218 94.0667 66.0498 94.7653 66.3058 95.416C66.5618 96.0667 66.9191 96.6373 67.3778 97.128C67.8364 97.6187 68.3804 98.0027 69.0098 98.28C69.6391 98.5573 70.3271 98.696 71.0738 98.696C71.5431 98.696 71.9698 98.6373 72.3538 98.52C72.7484 98.4133 73.1431 98.2693 73.5378 98.088L73.7618 98.696C73.3351 98.9093 72.8924 99.0693 72.4338 99.176C71.9751 99.2827 71.5164 99.336 71.0578 99.336C70.2578 99.336 69.5058 99.1867 68.8018 98.888C68.1084 98.6 67.4951 98.184 66.9618 97.64C66.4284 97.1067 66.0071 96.472 65.6978 95.736C65.3991 95 65.2498 94.1947 65.2498 93.32C65.2498 92.4027 65.4098 91.576 65.7298 90.84C66.0604 90.104 66.5031 89.48 67.0578 88.968C67.6231 88.4453 68.2631 88.0453 68.9778 87.768C69.6924 87.4907 70.4391 87.352 71.2178 87.352ZM72.1298 95.784C72.4071 95.656 72.6151 95.512 72.7538 95.352C72.8924 95.1813 72.9831 95.0053 73.0258 94.824C73.0791 94.632 73.1058 94.4453 73.1058 94.264V93.672C72.9671 93.6507 72.7218 93.5867 72.3698 93.48C72.0284 93.3733 71.6178 93.32 71.1378 93.32C70.7751 93.32 70.4338 93.3627 70.1138 93.448C69.8044 93.5333 69.5538 93.6827 69.3618 93.896C69.1698 94.0987 69.0738 94.376 69.0738 94.728C69.0738 94.9947 69.1378 95.2347 69.2658 95.448C69.4044 95.6613 69.5911 95.832 69.8258 95.96C70.0604 96.0773 70.3378 96.136 70.6578 96.136C70.9138 96.136 71.1698 96.104 71.4258 96.04C71.6924 95.9653 71.9271 95.88 72.1298 95.784ZM82.8853 97.16C82.2559 97.16 81.6853 97.048 81.1733 96.824C80.6613 96.5893 80.2186 96.2747 79.8453 95.88C79.4719 95.4747 79.1839 95.0107 78.9813 94.488C78.7786 93.9653 78.6773 93.416 78.6773 92.84C78.6773 92.2533 78.7786 91.6987 78.9813 91.176C79.1839 90.6533 79.4719 90.1947 79.8453 89.8C80.2186 89.3947 80.6613 89.08 81.1733 88.856C81.6959 88.6213 82.2666 88.504 82.8853 88.504C83.5146 88.504 84.0853 88.6213 84.5973 88.856C85.1093 89.08 85.5519 89.3947 85.9253 89.8C86.3093 90.1947 86.6026 90.6533 86.8053 91.176C87.0079 91.6987 87.1093 92.2533 87.1093 92.84C87.1093 93.416 87.0079 93.9653 86.8053 94.488C86.6026 95.0107 86.3146 95.4747 85.9413 95.88C85.5679 96.2747 85.1199 96.5893 84.5973 96.824C84.0853 97.048 83.5146 97.16 82.8853 97.16ZM80.1173 92.856C80.1173 93.432 80.2399 93.9547 80.4853 94.424C80.7413 94.8933 81.0773 95.2667 81.4933 95.544C81.9093 95.8107 82.3733 95.944 82.8853 95.944C83.3973 95.944 83.8613 95.8053 84.2773 95.528C84.7039 95.2507 85.0399 94.8773 85.2853 94.408C85.5413 93.928 85.6693 93.4 85.6693 92.824C85.6693 92.248 85.5413 91.7253 85.2853 91.256C85.0399 90.7867 84.7039 90.4133 84.2773 90.136C83.8613 89.8587 83.3973 89.72 82.8853 89.72C82.3733 89.72 81.9093 89.864 81.4933 90.152C81.0773 90.4293 80.7413 90.8027 80.4853 91.272C80.2399 91.7413 80.1173 92.2693 80.1173 92.856ZM93.2534 97.16C92.6027 97.16 92.0107 97 91.4774 96.68C90.9441 96.36 90.5227 95.944 90.2134 95.432V97H88.9654V85.32H90.3734V90.312C90.7254 89.768 91.1574 89.3307 91.6694 89C92.1814 88.6693 92.7787 88.504 93.4614 88.504C94.0374 88.504 94.5547 88.6267 95.0134 88.872C95.4721 89.1067 95.8614 89.432 96.1814 89.848C96.5121 90.2533 96.7627 90.7173 96.9334 91.24C97.1147 91.752 97.2054 92.2907 97.2054 92.856C97.2054 93.4427 97.1041 93.9973 96.9014 94.52C96.7094 95.032 96.4321 95.4907 96.0694 95.896C95.7067 96.2907 95.2854 96.6 94.8054 96.824C94.3361 97.048 93.8187 97.16 93.2534 97.16ZM92.9014 95.944C93.3174 95.944 93.7014 95.8587 94.0534 95.688C94.4054 95.5173 94.7094 95.288 94.9654 95C95.2214 94.712 95.4187 94.3813 95.5574 94.008C95.6961 93.6347 95.7654 93.2507 95.7654 92.856C95.7654 92.312 95.6481 91.8 95.4134 91.32C95.1894 90.84 94.8694 90.456 94.4534 90.168C94.0481 89.8693 93.5734 89.72 93.0294 89.72C92.6347 89.72 92.2667 89.8107 91.9254 89.992C91.5841 90.1733 91.2801 90.4133 91.0134 90.712C90.7574 91 90.5441 91.32 90.3734 91.672V94.088C90.4267 94.3547 90.5387 94.6 90.7094 94.824C90.8801 95.048 91.0881 95.2453 91.3334 95.416C91.5787 95.576 91.8347 95.704 92.1014 95.8C92.3787 95.896 92.6454 95.944 92.9014 95.944ZM102.78 97.16C102.151 97.16 101.575 97.048 101.052 96.824C100.54 96.5893 100.092 96.2747 99.7081 95.88C99.3348 95.4747 99.0415 95.0107 98.8281 94.488C98.6255 93.9653 98.5241 93.4107 98.5241 92.824C98.5241 92.0347 98.7055 91.3147 99.0681 90.664C99.4308 90.0133 99.9321 89.4907 100.572 89.096C101.223 88.7013 101.964 88.504 102.796 88.504C103.639 88.504 104.369 88.7067 104.988 89.112C105.617 89.5067 106.103 90.0293 106.444 90.68C106.796 91.32 106.972 92.0133 106.972 92.76C106.972 92.8667 106.967 92.9733 106.956 93.08C106.956 93.176 106.951 93.2507 106.94 93.304H100.012C100.055 93.848 100.204 94.3333 100.46 94.76C100.727 95.176 101.068 95.5067 101.484 95.752C101.9 95.9867 102.348 96.104 102.828 96.104C103.34 96.104 103.82 95.976 104.268 95.72C104.727 95.464 105.041 95.128 105.212 94.712L106.428 95.048C106.247 95.4533 105.975 95.816 105.612 96.136C105.26 96.456 104.839 96.7067 104.348 96.888C103.868 97.0693 103.345 97.16 102.78 97.16ZM99.9641 92.328H105.66C105.617 91.784 105.463 91.304 105.196 90.888C104.929 90.472 104.588 90.1467 104.172 89.912C103.756 89.6773 103.297 89.56 102.796 89.56C102.305 89.56 101.852 89.6773 101.436 89.912C101.02 90.1467 100.679 90.472 100.412 90.888C100.156 91.304 100.007 91.784 99.9641 92.328ZM115.935 97H114.527V92.328C114.527 91.4427 114.389 90.7973 114.111 90.392C113.845 89.976 113.434 89.768 112.879 89.768C112.495 89.768 112.111 89.864 111.727 90.056C111.354 90.248 111.018 90.5093 110.719 90.84C110.431 91.16 110.223 91.5333 110.095 91.96V97H108.687V88.648H109.967V90.44C110.191 90.0453 110.479 89.704 110.831 89.416C111.183 89.128 111.583 88.904 112.031 88.744C112.479 88.584 112.949 88.504 113.439 88.504C113.919 88.504 114.319 88.5947 114.639 88.776C114.97 88.9467 115.226 89.192 115.407 89.512C115.599 89.8213 115.733 90.1893 115.807 90.616C115.893 91.0427 115.935 91.5067 115.935 92.008V97ZM118.163 97V95.208H119.347V97H118.163ZM125.043 97.16C124.413 97.16 123.837 97.048 123.315 96.824C122.803 96.5893 122.355 96.2693 121.971 95.864C121.597 95.4587 121.304 94.9947 121.091 94.472C120.888 93.9493 120.787 93.3947 120.787 92.808C120.787 92.0187 120.963 91.2987 121.315 90.648C121.667 89.9973 122.163 89.48 122.803 89.096C123.443 88.7013 124.184 88.504 125.027 88.504C125.848 88.504 126.563 88.6907 127.171 89.064C127.789 89.4267 128.248 89.9173 128.547 90.536L127.171 90.968C126.957 90.5733 126.659 90.2693 126.275 90.056C125.891 89.832 125.464 89.72 124.995 89.72C124.483 89.72 124.013 89.8533 123.587 90.12C123.171 90.3867 122.84 90.7547 122.595 91.224C122.349 91.6827 122.227 92.2107 122.227 92.808C122.227 93.3947 122.349 93.928 122.595 94.408C122.851 94.8773 123.187 95.2507 123.603 95.528C124.029 95.8053 124.499 95.944 125.011 95.944C125.341 95.944 125.656 95.8853 125.955 95.768C126.264 95.6507 126.531 95.496 126.755 95.304C126.989 95.1013 127.149 94.8827 127.235 94.648L128.611 95.064C128.44 95.4693 128.179 95.832 127.827 96.152C127.485 96.4613 127.075 96.7067 126.595 96.888C126.125 97.0693 125.608 97.16 125.043 97.16ZM133.926 97.16C133.297 97.16 132.726 97.048 132.214 96.824C131.702 96.5893 131.259 96.2747 130.886 95.88C130.513 95.4747 130.225 95.0107 130.022 94.488C129.819 93.9653 129.718 93.416 129.718 92.84C129.718 92.2533 129.819 91.6987 130.022 91.176C130.225 90.6533 130.513 90.1947 130.886 89.8C131.259 89.3947 131.702 89.08 132.214 88.856C132.737 88.6213 133.307 88.504 133.926 88.504C134.555 88.504 135.126 88.6213 135.638 88.856C136.15 89.08 136.593 89.3947 136.966 89.8C137.35 90.1947 137.643 90.6533 137.846 91.176C138.049 91.6987 138.15 92.2533 138.15 92.84C138.15 93.416 138.049 93.9653 137.846 94.488C137.643 95.0107 137.355 95.4747 136.982 95.88C136.609 96.2747 136.161 96.5893 135.638 96.824C135.126 97.048 134.555 97.16 133.926 97.16ZM131.158 92.856C131.158 93.432 131.281 93.9547 131.526 94.424C131.782 94.8933 132.118 95.2667 132.534 95.544C132.95 95.8107 133.414 95.944 133.926 95.944C134.438 95.944 134.902 95.8053 135.318 95.528C135.745 95.2507 136.081 94.8773 136.326 94.408C136.582 93.928 136.71 93.4 136.71 92.824C136.71 92.248 136.582 91.7253 136.326 91.256C136.081 90.7867 135.745 90.4133 135.318 90.136C134.902 89.8587 134.438 89.72 133.926 89.72C133.414 89.72 132.95 89.864 132.534 90.152C132.118 90.4293 131.782 90.8027 131.526 91.272C131.281 91.7413 131.158 92.2693 131.158 92.856ZM152.598 97H151.19V92.328C151.19 91.4533 151.046 90.808 150.758 90.392C150.481 89.976 150.065 89.768 149.51 89.768C148.945 89.768 148.433 89.976 147.974 90.392C147.515 90.7973 147.19 91.3253 146.998 91.976V97H145.59V92.328C145.59 91.4427 145.451 90.7973 145.174 90.392C144.897 89.976 144.481 89.768 143.926 89.768C143.371 89.768 142.859 89.9707 142.39 90.376C141.931 90.7707 141.606 91.2987 141.414 91.96V97H140.006V88.648H141.286V90.44C141.627 89.8213 142.07 89.3467 142.614 89.016C143.158 88.6747 143.771 88.504 144.454 88.504C145.147 88.504 145.702 88.696 146.118 89.08C146.534 89.4533 146.79 89.9387 146.886 90.536C147.259 89.8747 147.713 89.3733 148.246 89.032C148.779 88.68 149.387 88.504 150.07 88.504C150.55 88.504 150.95 88.5947 151.27 88.776C151.601 88.9467 151.862 89.192 152.054 89.512C152.246 89.8213 152.385 90.1893 152.47 90.616C152.555 91.0427 152.598 91.5067 152.598 92.008V97Z" fill="white"/>
</svg>
