<svg width="189" height="126" viewBox="0 0 189 126" fill="none" xmlns="http://www.w3.org/2000/svg">
<rect x="-0.00390625" width="188.333" height="126" rx="6" fill="#3B444D"/>
<path d="M94.1627 60C94.1627 60 106.684 48.8696 106.684 40.5217C106.684 33.6062 101.078 28 94.1627 28C87.2472 28 81.641 33.6062 81.641 40.5217C81.641 48.8696 94.1627 60 94.1627 60Z" stroke="white" stroke-width="3"/>
<path d="M98.1632 40.0003C98.1632 42.2094 96.3724 44.0003 94.1632 44.0003C91.9541 44.0003 90.1632 42.2094 90.1632 40.0003C90.1632 37.7911 91.9541 36.0003 94.1632 36.0003C96.3724 36.0003 98.1632 37.7911 98.1632 40.0003Z" stroke="white" stroke-width="3"/>
<path d="M62.1576 97.08C61.251 97.08 60.4883 96.9253 59.8696 96.616C59.251 96.296 58.755 95.8693 58.3816 95.336C58.0083 94.792 57.7363 94.1787 57.5656 93.496C57.395 92.8133 57.3096 92.1093 57.3096 91.384V85.64H58.7496V91.384C58.7496 91.9387 58.803 92.4827 58.9096 93.016C59.027 93.5387 59.2136 94.008 59.4696 94.424C59.7256 94.84 60.0723 95.1707 60.5096 95.416C60.947 95.6613 61.491 95.784 62.1416 95.784C62.803 95.784 63.3523 95.6613 63.7896 95.416C64.227 95.16 64.5736 94.824 64.8296 94.408C65.0856 93.9813 65.267 93.5067 65.3736 92.984C65.491 92.4613 65.5496 91.928 65.5496 91.384V85.64H66.9896V91.384C66.9896 92.152 66.899 92.8827 66.7176 93.576C66.547 94.2587 66.2696 94.8613 65.8856 95.384C65.5016 95.9067 65.0003 96.3227 64.3816 96.632C63.7736 96.9307 63.0323 97.08 62.1576 97.08ZM73.6524 97.16C73.0017 97.16 72.4097 97 71.8764 96.68C71.3431 96.36 70.9217 95.944 70.6124 95.432V97H69.3644V85.32H70.7724V90.312C71.1244 89.768 71.5564 89.3307 72.0684 89C72.5804 88.6693 73.1777 88.504 73.8604 88.504C74.4364 88.504 74.9537 88.6267 75.4124 88.872C75.8711 89.1067 76.2604 89.432 76.5804 89.848C76.9111 90.2533 77.1617 90.7173 77.3324 91.24C77.5137 91.752 77.6044 92.2907 77.6044 92.856C77.6044 93.4427 77.5031 93.9973 77.3004 94.52C77.1084 95.032 76.8311 95.4907 76.4684 95.896C76.1057 96.2907 75.6844 96.6 75.2044 96.824C74.7351 97.048 74.2177 97.16 73.6524 97.16ZM73.3004 95.944C73.7164 95.944 74.1004 95.8587 74.4524 95.688C74.8044 95.5173 75.1084 95.288 75.3644 95C75.6204 94.712 75.8177 94.3813 75.9564 94.008C76.0951 93.6347 76.1644 93.2507 76.1644 92.856C76.1644 92.312 76.0471 91.8 75.8124 91.32C75.5884 90.84 75.2684 90.456 74.8524 90.168C74.4471 89.8693 73.9724 89.72 73.4284 89.72C73.0337 89.72 72.6657 89.8107 72.3244 89.992C71.9831 90.1733 71.6791 90.4133 71.4124 90.712C71.1564 91 70.9431 91.32 70.7724 91.672V94.088C70.8257 94.3547 70.9377 94.6 71.1084 94.824C71.2791 95.048 71.4871 95.2453 71.7324 95.416C71.9777 95.576 72.2337 95.704 72.5004 95.8C72.7777 95.896 73.0444 95.944 73.3004 95.944ZM79.4831 97V88.648H80.8911V97H79.4831ZM79.4831 87.08V85.32H80.8911V87.08H79.4831ZM87.0166 97.16C86.3873 97.16 85.8113 97.048 85.2886 96.824C84.7766 96.5893 84.3286 96.2693 83.9446 95.864C83.5713 95.4587 83.278 94.9947 83.0646 94.472C82.862 93.9493 82.7606 93.3947 82.7606 92.808C82.7606 92.0187 82.9366 91.2987 83.2886 90.648C83.6406 89.9973 84.1366 89.48 84.7766 89.096C85.4166 88.7013 86.158 88.504 87.0006 88.504C87.822 88.504 88.5366 88.6907 89.1446 89.064C89.7633 89.4267 90.222 89.9173 90.5206 90.536L89.1446 90.968C88.9313 90.5733 88.6326 90.2693 88.2486 90.056C87.8646 89.832 87.438 89.72 86.9686 89.72C86.4566 89.72 85.9873 89.8533 85.5606 90.12C85.1446 90.3867 84.814 90.7547 84.5686 91.224C84.3233 91.6827 84.2006 92.2107 84.2006 92.808C84.2006 93.3947 84.3233 93.928 84.5686 94.408C84.8246 94.8773 85.1606 95.2507 85.5766 95.528C86.0033 95.8053 86.4726 95.944 86.9846 95.944C87.3153 95.944 87.63 95.8853 87.9286 95.768C88.238 95.6507 88.5046 95.496 88.7286 95.304C88.9633 95.1013 89.1233 94.8827 89.2086 94.648L90.5846 95.064C90.414 95.4693 90.1526 95.832 89.8006 96.152C89.4593 96.4613 89.0486 96.7067 88.5686 96.888C88.0993 97.0693 87.582 97.16 87.0166 97.16ZM91.674 94.584C91.674 94.0507 91.8233 93.592 92.122 93.208C92.4313 92.8133 92.8527 92.5093 93.386 92.296C93.9193 92.0827 94.538 91.976 95.242 91.976C95.6153 91.976 96.01 92.008 96.426 92.072C96.842 92.1253 97.21 92.2107 97.53 92.328V91.72C97.53 91.08 97.338 90.5787 96.954 90.216C96.57 89.8427 96.026 89.656 95.322 89.656C94.8633 89.656 94.4207 89.7413 93.994 89.912C93.578 90.072 93.1353 90.3067 92.666 90.616L92.154 89.624C92.698 89.2507 93.242 88.9733 93.786 88.792C94.33 88.6 94.8953 88.504 95.482 88.504C96.5487 88.504 97.3913 88.8027 98.01 89.4C98.6287 89.9867 98.938 90.808 98.938 91.864V95.4C98.938 95.5707 98.97 95.6987 99.034 95.784C99.1087 95.8587 99.226 95.9013 99.386 95.912V97C99.2473 97.0213 99.1247 97.0373 99.018 97.048C98.922 97.0587 98.842 97.064 98.778 97.064C98.4473 97.064 98.1967 96.9733 98.026 96.792C97.866 96.6107 97.7753 96.4187 97.754 96.216L97.722 95.688C97.3593 96.1573 96.8847 96.52 96.298 96.776C95.7113 97.032 95.13 97.16 94.554 97.16C93.9993 97.16 93.5033 97.048 93.066 96.824C92.6287 96.5893 92.2873 96.28 92.042 95.896C91.7967 95.5013 91.674 95.064 91.674 94.584ZM97.114 95.176C97.242 95.0267 97.3433 94.8773 97.418 94.728C97.4927 94.568 97.53 94.4347 97.53 94.328V93.288C97.1993 93.16 96.8527 93.064 96.49 93C96.1273 92.9253 95.77 92.888 95.418 92.888C94.7033 92.888 94.122 93.032 93.674 93.32C93.2367 93.5973 93.018 93.9813 93.018 94.472C93.018 94.7387 93.0873 95 93.226 95.256C93.3753 95.5013 93.5887 95.704 93.866 95.864C94.154 96.024 94.506 96.104 94.922 96.104C95.3593 96.104 95.7753 96.0187 96.17 95.848C96.5647 95.6667 96.8793 95.4427 97.114 95.176ZM105.035 97.16C104.406 97.16 103.83 97.048 103.307 96.824C102.795 96.5893 102.347 96.2693 101.963 95.864C101.59 95.4587 101.297 94.9947 101.083 94.472C100.881 93.9493 100.779 93.3947 100.779 92.808C100.779 92.0187 100.955 91.2987 101.307 90.648C101.659 89.9973 102.155 89.48 102.795 89.096C103.435 88.7013 104.177 88.504 105.019 88.504C105.841 88.504 106.555 88.6907 107.163 89.064C107.782 89.4267 108.241 89.9173 108.539 90.536L107.163 90.968C106.95 90.5733 106.651 90.2693 106.267 90.056C105.883 89.832 105.457 89.72 104.987 89.72C104.475 89.72 104.006 89.8533 103.579 90.12C103.163 90.3867 102.833 90.7547 102.587 91.224C102.342 91.6827 102.219 92.2107 102.219 92.808C102.219 93.3947 102.342 93.928 102.587 94.408C102.843 94.8773 103.179 95.2507 103.595 95.528C104.022 95.8053 104.491 95.944 105.003 95.944C105.334 95.944 105.649 95.8853 105.947 95.768C106.257 95.6507 106.523 95.496 106.747 95.304C106.982 95.1013 107.142 94.8827 107.227 94.648L108.603 95.064C108.433 95.4693 108.171 95.832 107.819 96.152C107.478 96.4613 107.067 96.7067 106.587 96.888C106.118 97.0693 105.601 97.16 105.035 97.16ZM110.349 97V88.648H111.757V97H110.349ZM110.349 87.08V85.32H111.757V87.08H110.349ZM117.834 97.16C117.205 97.16 116.634 97.048 116.122 96.824C115.61 96.5893 115.168 96.2747 114.794 95.88C114.421 95.4747 114.133 95.0107 113.93 94.488C113.728 93.9653 113.626 93.416 113.626 92.84C113.626 92.2533 113.728 91.6987 113.93 91.176C114.133 90.6533 114.421 90.1947 114.794 89.8C115.168 89.3947 115.61 89.08 116.122 88.856C116.645 88.6213 117.216 88.504 117.834 88.504C118.464 88.504 119.034 88.6213 119.546 88.856C120.058 89.08 120.501 89.3947 120.874 89.8C121.258 90.1947 121.552 90.6533 121.754 91.176C121.957 91.6987 122.058 92.2533 122.058 92.84C122.058 93.416 121.957 93.9653 121.754 94.488C121.552 95.0107 121.264 95.4747 120.89 95.88C120.517 96.2747 120.069 96.5893 119.546 96.824C119.034 97.048 118.464 97.16 117.834 97.16ZM115.066 92.856C115.066 93.432 115.189 93.9547 115.434 94.424C115.69 94.8933 116.026 95.2667 116.442 95.544C116.858 95.8107 117.322 95.944 117.834 95.944C118.346 95.944 118.81 95.8053 119.226 95.528C119.653 95.2507 119.989 94.8773 120.234 94.408C120.49 93.928 120.618 93.4 120.618 92.824C120.618 92.248 120.49 91.7253 120.234 91.256C119.989 90.7867 119.653 90.4133 119.226 90.136C118.81 89.8587 118.346 89.72 117.834 89.72C117.322 89.72 116.858 89.864 116.442 90.152C116.026 90.4293 115.69 90.8027 115.434 91.272C115.189 91.7413 115.066 92.2693 115.066 92.856ZM118.33 87.256L117.402 86.936L118.33 85.32H119.738L118.33 87.256ZM131.162 97H129.754V92.328C129.754 91.4427 129.616 90.7973 129.338 90.392C129.072 89.976 128.661 89.768 128.106 89.768C127.722 89.768 127.338 89.864 126.954 90.056C126.581 90.248 126.245 90.5093 125.946 90.84C125.658 91.16 125.45 91.5333 125.322 91.96V97H123.914V88.648H125.194V90.44C125.418 90.0453 125.706 89.704 126.058 89.416C126.41 89.128 126.81 88.904 127.258 88.744C127.706 88.584 128.176 88.504 128.666 88.504C129.146 88.504 129.546 88.5947 129.866 88.776C130.197 88.9467 130.453 89.192 130.634 89.512C130.826 89.8213 130.96 90.1893 131.034 90.616C131.12 91.0427 131.162 91.5067 131.162 92.008V97Z" fill="white"/>
</svg>
