<svg width="24" height="24" viewBox="0 0 24 24" fill="none" xmlns="http://www.w3.org/2000/svg">
<rect x="-0.00390625" width="24" height="24" rx="6" fill="#0092FF"/>
<path d="M13.6312 13.224C14.2925 13.3413 14.8258 13.6613 15.2312 14.184C15.6472 14.696 15.8552 15.3253 15.8552 16.072C15.8552 16.5733 15.7538 17.0267 15.5512 17.432C15.3592 17.8373 15.0818 18.1787 14.7192 18.456C14.3672 18.744 13.9352 18.9627 13.4232 19.112C12.9112 19.272 12.3352 19.352 11.6952 19.352C10.8845 19.352 10.1645 19.2187 9.53516 18.952C8.91649 18.696 8.39916 18.3173 7.98316 17.816L9.19916 16.296C9.47649 16.648 9.80716 16.92 10.1912 17.112C10.5752 17.304 11.0552 17.4 11.6312 17.4C12.2818 17.4 12.7778 17.272 13.1192 17.016C13.4605 16.76 13.6312 16.3653 13.6312 15.832C13.6312 15.2773 13.4338 14.8507 13.0392 14.552C12.6445 14.2533 12.0472 14.104 11.2472 14.104H10.7992V12.504H11.2952C11.9565 12.504 12.4685 12.36 12.8312 12.072C13.1938 11.7733 13.3752 11.3947 13.3752 10.936C13.3752 10.4987 13.2258 10.1733 12.9272 9.96C12.6285 9.74667 12.2392 9.64 11.7592 9.64C11.2685 9.64 10.8258 9.752 10.4312 9.976C10.0472 10.2 9.73249 10.5147 9.48716 10.92L8.14316 9.416C8.30316 9.17067 8.51649 8.952 8.78316 8.76C9.04982 8.55733 9.34849 8.38667 9.67916 8.248C10.0205 8.09867 10.3885 7.98667 10.7832 7.912C11.1778 7.82667 11.5832 7.784 11.9992 7.784C12.5432 7.784 13.0392 7.85333 13.4872 7.992C13.9352 8.13067 14.3192 8.32267 14.6392 8.568C14.9698 8.81333 15.2205 9.112 15.3912 9.464C15.5725 9.80533 15.6632 10.1893 15.6632 10.616C15.6632 10.936 15.6152 11.24 15.5192 11.528C15.4232 11.816 15.2845 12.0773 15.1032 12.312C14.9218 12.5467 14.7032 12.744 14.4472 12.904C14.2018 13.064 13.9298 13.1707 13.6312 13.224Z" fill="white"/>
</svg>
