<svg width="24" height="24" viewBox="0 0 24 24" fill="none" xmlns="http://www.w3.org/2000/svg">
<rect x="-0.00390625" width="24" height="24" rx="6" fill="#0092FF"/>
<path d="M15.563 15.064V17H9.06697V15.064H11.339V10.216C11.243 10.344 11.0883 10.4773 10.875 10.616C10.6723 10.744 10.4483 10.8667 10.203 10.984C9.95764 11.1013 9.70164 11.1973 9.43497 11.272C9.17897 11.3467 8.94964 11.384 8.74697 11.384V9.384C8.93897 9.384 9.17364 9.32533 9.45097 9.208C9.7283 9.08 10.0003 8.93067 10.267 8.76C10.5336 8.58933 10.763 8.424 10.955 8.264C11.1576 8.09333 11.2856 7.96 11.339 7.864H13.531V15.064H15.563Z" fill="white"/>
</svg>
