<svg width="24" height="24" viewBox="0 0 24 24" fill="none" xmlns="http://www.w3.org/2000/svg">
<rect x="-0.00390625" width="24" height="24" rx="6" fill="#0092FF"/>
<path d="M8.08847 17C8.08847 16.52 8.1258 16.088 8.20047 15.704C8.27514 15.3093 8.40314 14.9467 8.58447 14.616C8.77647 14.2853 9.03247 13.976 9.35247 13.688C9.68314 13.4 10.0991 13.1173 10.6005 12.84C11.0378 12.6053 11.4218 12.4027 11.7525 12.232C12.0938 12.0507 12.3765 11.8853 12.6005 11.736C12.8245 11.5867 12.9951 11.4373 13.1125 11.288C13.2298 11.128 13.2885 10.9467 13.2885 10.744C13.2885 10.424 13.1605 10.152 12.9045 9.928C12.6485 9.69333 12.2805 9.576 11.8005 9.576C11.5445 9.576 11.3098 9.61333 11.0965 9.688C10.8831 9.752 10.6805 9.84267 10.4885 9.96C10.3071 10.0773 10.1365 10.2107 9.97647 10.36C9.82714 10.4987 9.68847 10.648 9.56047 10.808L8.18447 9.224C8.32314 9.07467 8.52047 8.91467 8.77647 8.744C9.03247 8.56267 9.33114 8.39733 9.67247 8.248C10.0245 8.088 10.4085 7.96 10.8245 7.864C11.2511 7.75733 11.7045 7.704 12.1845 7.704C12.7285 7.704 13.2138 7.77333 13.6405 7.912C14.0671 8.04 14.4245 8.22667 14.7125 8.472C15.0111 8.70667 15.2351 8.99467 15.3845 9.336C15.5445 9.66667 15.6245 10.0293 15.6245 10.424C15.6245 10.7973 15.5551 11.128 15.4165 11.416C15.2778 11.704 15.1018 11.96 14.8885 12.184C14.6751 12.408 14.4405 12.6053 14.1845 12.776C13.9391 12.936 13.6991 13.08 13.4645 13.208C13.2725 13.3147 13.0538 13.4373 12.8085 13.576C12.5631 13.7147 12.3178 13.8693 12.0725 14.04C11.8378 14.2 11.6191 14.3707 11.4165 14.552C11.2138 14.7227 11.0591 14.8933 10.9525 15.064H15.8005V17H8.08847Z" fill="white"/>
</svg>
