<svg width="40" height="40" viewBox="0 0 40 40" fill="none" xmlns="http://www.w3.org/2000/svg">
<path d="M34.9961 19.1668C34.9961 27.9168 27.9127 35.0002 19.1627 35.0002C10.4127 35.0002 3.32941 27.9168 3.32941 19.1668C3.32941 10.4168 10.4127 3.3335 19.1627 3.3335" stroke="#0092FF" stroke-width="3" stroke-linecap="round" stroke-linejoin="round"/>
<path d="M36.6627 36.6668L33.3294 33.3335" stroke="#0092FF" stroke-width="3" stroke-linecap="round" stroke-linejoin="round"/>
<path d="M24.1627 10.2165C23.5794 8.38314 24.2627 6.09981 26.1961 5.48314C27.2127 5.14981 28.4627 5.43314 29.1794 6.41648C29.8461 5.39981 31.1461 5.16648 32.1461 5.48314C34.0794 6.09981 34.7627 8.38314 34.1794 10.2165C33.2627 13.1331 30.0627 14.6498 29.1794 14.6498C28.2794 14.6498 25.1127 13.1665 24.1627 10.2165Z" stroke="#0092FF" stroke-width="3" stroke-linecap="round" stroke-linejoin="round"/>
</svg>
