<svg width="40" height="40" viewBox="0 0 40 40" fill="none" xmlns="http://www.w3.org/2000/svg">
<path d="M18.3294 3.3335H14.9961C6.66277 3.3335 3.32944 6.66683 3.32944 15.0002V25.0002C3.32944 33.3335 6.66277 36.6668 14.9961 36.6668H24.9961C33.3294 36.6668 36.6628 33.3335 36.6628 25.0002V21.6668" stroke="#0092FF" stroke-width="3" stroke-linecap="round" stroke-linejoin="round"/>
<path d="M26.7294 5.03327L13.5961 18.1666C13.0961 18.6666 12.5961 19.6499 12.4961 20.3666L11.7794 25.3833C11.5128 27.1999 12.7961 28.4666 14.6128 28.2166L19.6294 27.4999C20.3294 27.3999 21.3128 26.8999 21.8294 26.3999L34.9628 13.2666C37.2294 10.9999 38.2961 8.3666 34.9628 5.03327C31.6294 1.69993 28.9961 2.7666 26.7294 5.03327Z" stroke="#0092FF" stroke-width="3" stroke-miterlimit="10" stroke-linecap="round" stroke-linejoin="round"/>
<path d="M24.8461 6.9165C25.9628 10.8998 29.0794 14.0165 33.0794 15.1498" stroke="#0092FF" stroke-width="3" stroke-miterlimit="10" stroke-linecap="round" stroke-linejoin="round"/>
</svg>
