<svg width="25" height="25" viewBox="0 0 25 25" fill="none" xmlns="http://www.w3.org/2000/svg">
<path d="M21.6427 19.5386C21.6427 19.5386 20.4843 20.6768 20.2004 21.0105C19.738 21.5042 19.193 21.7374 18.4786 21.7375C18.4099 21.7375 18.3366 21.7375 18.2679 21.733C16.9077 21.6464 15.6436 21.1165 14.6956 20.6642C12.1032 19.4125 9.82674 17.6351 7.93488 15.3822C6.37284 13.5041 5.32833 11.7676 4.63643 9.90306C4.21029 8.76513 4.05441 7.87851 4.12294 7.04213C4.16863 6.50739 4.37463 6.06402 4.75467 5.68461L6.31604 4.12582C6.5404 3.91554 6.77853 3.80123 7.01209 3.80119C7.30061 3.80113 7.53421 3.97476 7.68079 4.12098C7.68537 4.12555 7.68995 4.13012 7.69453 4.13469C7.97394 4.39514 8.23962 4.66474 8.51904 4.95262C8.66104 5.09884 8.80762 5.24506 8.9542 5.39585L10.2047 6.64331C10.6902 7.12767 10.6903 7.57557 10.205 8.06012C10.0722 8.19268 9.94399 8.32525 9.8112 8.45324C9.42658 8.84637 9.72872 8.54473 9.33036 8.90129C9.3212 8.91043 9.31204 8.91501 9.30746 8.92415C8.91369 9.31727 8.98704 9.70117 9.06952 9.96166C9.07411 9.97537 9.07869 9.98908 9.08327 10.0028C9.40858 10.7888 9.8667 11.5291 10.563 12.4111L10.5676 12.4156C11.8319 13.9693 13.1648 15.1802 14.6351 16.1077C14.8229 16.2265 15.0152 16.3224 15.1984 16.4138C15.3633 16.496 15.519 16.5737 15.6519 16.6559C15.6702 16.6651 15.6885 16.6788 15.7068 16.6879C15.8626 16.7656 16.0091 16.8021 16.1602 16.8021C16.5404 16.802 16.7785 16.5643 16.8563 16.4866L17.7538 15.5906C17.9095 15.4351 18.1567 15.2477 18.4453 15.2476C18.7292 15.2476 18.9628 15.4258 19.1048 15.5811C19.1094 15.5857 19.1094 15.5857 19.114 15.5903L21.6379 18.1081C22.1097 18.5741 21.6427 19.5386 21.6427 19.5386Z" stroke="white" stroke-width="2" stroke-linecap="round" stroke-linejoin="round"/>
</svg>
