<svg width="189" height="126" viewBox="0 0 189 126" fill="none" xmlns="http://www.w3.org/2000/svg">
<rect x="0.329346" width="188.333" height="126" rx="6" fill="#3B444D"/>
<path d="M108.935 55.2849C108.935 55.2849 107.004 57.1816 106.531 57.7377C105.76 58.5603 104.851 58.9488 103.661 58.9488C103.546 58.9488 103.424 58.9488 103.309 58.9412C101.043 58.7965 98.9358 57.9129 97.3558 57.1588C93.0357 55.0717 89.2421 52.1085 86.0898 48.3532C83.487 45.2226 81.7467 42.328 80.5942 39.2202C79.8843 37.3235 79.6248 35.8458 79.7393 34.4518C79.8156 33.5606 80.1591 32.8217 80.7926 32.1895L83.3954 29.592C83.7694 29.2416 84.1663 29.0512 84.5556 29.0512C85.0365 29.0512 85.4257 29.3406 85.67 29.5844C85.6776 29.592 85.6852 29.5996 85.6929 29.6072C86.1585 30.0414 86.6012 30.4908 87.0668 30.9707C87.3034 31.2145 87.5477 31.4582 87.7919 31.7096L89.8757 33.7891C90.6848 34.5965 90.6848 35.343 89.8757 36.1504C89.6543 36.3713 89.4406 36.5922 89.2192 36.8055C88.5781 37.4606 89.0818 36.958 88.4177 37.5521C88.4024 37.5673 88.3872 37.575 88.3795 37.5902C87.7231 38.2453 87.8452 38.8851 87.9826 39.3193C87.9903 39.3422 87.9979 39.365 88.0055 39.3879C88.5475 40.698 89.3107 41.932 90.4709 43.4021L90.4786 43.4098C92.5852 45.9996 94.8064 48.0182 97.2565 49.5645C97.5695 49.7625 97.89 49.9225 98.1954 50.0748C98.4701 50.212 98.7297 50.3414 98.951 50.4786C98.9815 50.4938 99.0121 50.5166 99.0426 50.5319C99.3021 50.6614 99.5464 50.7223 99.7982 50.7223C100.432 50.7223 100.829 50.3262 100.958 50.1967L102.455 48.7036C102.714 48.4447 103.126 48.1323 103.607 48.1323C104.08 48.1323 104.47 48.4294 104.706 48.6884C104.714 48.696 104.714 48.696 104.722 48.7036L108.927 52.9007C109.713 53.6777 108.935 55.2849 108.935 55.2849Z" stroke="white" stroke-width="3" stroke-linecap="round" stroke-linejoin="round"/>
<path d="M42.7833 90.744V91.896H40.8953V93.944H39.6153V91.896H37.7273V90.744H39.6153V88.696H40.8953V90.744H42.7833ZM49.2271 93.224C49.6858 93.2987 50.0805 93.4693 50.4111 93.736C50.7418 93.992 50.9978 94.3227 51.1791 94.728C51.3605 95.1227 51.4511 95.5707 51.4511 96.072C51.4511 96.7227 51.2911 97.2933 50.9711 97.784C50.6618 98.2853 50.2191 98.6693 49.6431 98.936C49.0671 99.2133 48.3951 99.352 47.6271 99.352C46.8165 99.352 46.1018 99.1973 45.4831 98.888C44.8751 98.5893 44.4005 98.1627 44.0591 97.608L45.0031 96.664C45.2485 97.0907 45.5791 97.432 45.9951 97.688C46.4218 97.944 46.9658 98.072 47.6271 98.072C48.3631 98.072 48.9391 97.9013 49.3551 97.56C49.7818 97.2293 49.9951 96.7333 49.9951 96.072C49.9951 95.4 49.7658 94.8667 49.3071 94.472C48.8591 94.0667 48.2031 93.864 47.3391 93.864H46.9231V92.68H47.3711C48.1391 92.68 48.7258 92.4933 49.1311 92.12C49.5471 91.7467 49.7551 91.2827 49.7551 90.728C49.7551 90.344 49.6645 90.0293 49.4831 89.784C49.3018 89.5387 49.0565 89.3573 48.7471 89.24C48.4378 89.112 48.0805 89.048 47.6751 89.048C47.0885 89.048 46.5711 89.176 46.1231 89.432C45.6858 89.6773 45.3445 90.024 45.0991 90.472L44.2351 89.576C44.4271 89.2133 44.6991 88.8987 45.0511 88.632C45.4138 88.3653 45.8298 88.1573 46.2991 88.008C46.7791 87.8587 47.2858 87.784 47.8191 87.784C48.4911 87.784 49.0831 87.9013 49.5951 88.136C50.1178 88.3707 50.5231 88.7013 50.8111 89.128C51.0991 89.5547 51.2431 90.056 51.2431 90.632C51.2431 91.048 51.1631 91.4427 51.0031 91.816C50.8431 92.1787 50.6085 92.488 50.2991 92.744C50.0005 92.9893 49.6431 93.1493 49.2271 93.224ZM52.8658 91.784C52.8658 91.0587 53.0418 90.4027 53.3938 89.816C53.7564 89.2187 54.2471 88.744 54.8658 88.392C55.4844 88.04 56.1724 87.864 56.9298 87.864C57.7511 87.864 58.4658 88.0613 59.0738 88.456C59.6924 88.84 60.1724 89.4 60.5138 90.136C60.8658 90.8613 61.0418 91.736 61.0418 92.76C61.0418 94.2533 60.8658 95.496 60.5138 96.488C60.1618 97.48 59.6658 98.2213 59.0258 98.712C58.3858 99.2133 57.6391 99.464 56.7858 99.464C56.0498 99.464 55.3778 99.2827 54.7698 98.92C54.1724 98.568 53.7031 98.0773 53.3618 97.448L54.2258 96.6C54.4604 97.0907 54.8071 97.4853 55.2658 97.784C55.7351 98.0827 56.2471 98.232 56.8018 98.232C57.3884 98.232 57.8951 98.056 58.3218 97.704C58.7591 97.352 59.0951 96.8453 59.3298 96.184C59.5751 95.5227 59.7031 94.7227 59.7138 93.784C59.5644 94.1467 59.3404 94.4667 59.0418 94.744C58.7538 95.0213 58.4178 95.2347 58.0338 95.384C57.6498 95.5333 57.2338 95.608 56.7858 95.608C56.0604 95.608 55.3991 95.4373 54.8018 95.096C54.2044 94.7547 53.7298 94.296 53.3778 93.72C53.0364 93.144 52.8658 92.4987 52.8658 91.784ZM56.9138 89.08C56.4231 89.08 55.9698 89.2027 55.5538 89.448C55.1484 89.6933 54.8231 90.0187 54.5778 90.424C54.3324 90.8293 54.2098 91.2827 54.2098 91.784C54.2098 92.2747 54.3324 92.7227 54.5778 93.128C54.8231 93.5333 55.1484 93.8587 55.5538 94.104C55.9698 94.3493 56.4231 94.472 56.9138 94.472C57.4151 94.472 57.8684 94.3493 58.2738 94.104C58.6791 93.8587 59.0044 93.5333 59.2498 93.128C59.4951 92.7227 59.6178 92.2747 59.6178 91.784C59.6178 91.2933 59.4951 90.8453 59.2498 90.44C59.0044 90.024 58.6738 89.6933 58.2578 89.448C57.8524 89.2027 57.4044 89.08 56.9138 89.08ZM75.0185 92.312C75.0185 93.2507 74.8425 94.088 74.4905 94.824C74.1385 95.5493 73.6585 96.12 73.0505 96.536C72.4425 96.952 71.7492 97.16 70.9705 97.16C70.1919 97.16 69.4985 96.952 68.8905 96.536C68.2825 96.12 67.8025 95.5493 67.4505 94.824C67.0985 94.088 66.9225 93.2507 66.9225 92.312C66.9225 91.3733 67.0985 90.5413 67.4505 89.816C67.8025 89.08 68.2825 88.504 68.8905 88.088C69.4985 87.6613 70.1919 87.448 70.9705 87.448C71.7492 87.448 72.4425 87.6613 73.0505 88.088C73.6585 88.504 74.1385 89.08 74.4905 89.816C74.8425 90.5413 75.0185 91.3733 75.0185 92.312ZM73.5945 92.312C73.5945 91.608 73.4825 90.9893 73.2585 90.456C73.0345 89.9227 72.7252 89.5067 72.3305 89.208C71.9359 88.9093 71.4825 88.76 70.9705 88.76C70.4479 88.76 69.9892 88.9093 69.5945 89.208C69.1999 89.5067 68.8905 89.9227 68.6665 90.456C68.4425 90.9893 68.3305 91.608 68.3305 92.312C68.3305 93.016 68.4425 93.6347 68.6665 94.168C68.8905 94.6907 69.1999 95.1013 69.5945 95.4C69.9892 95.6987 70.4479 95.848 70.9705 95.848C71.4825 95.848 71.9359 95.6987 72.3305 95.4C72.7252 95.1013 73.0345 94.6907 73.2585 94.168C73.4825 93.6347 73.5945 93.016 73.5945 92.312ZM81.7646 93.224C82.2233 93.2987 82.618 93.4693 82.9486 93.736C83.2793 93.992 83.5353 94.3227 83.7166 94.728C83.898 95.1227 83.9886 95.5707 83.9886 96.072C83.9886 96.7227 83.8286 97.2933 83.5086 97.784C83.1993 98.2853 82.7566 98.6693 82.1806 98.936C81.6046 99.2133 80.9326 99.352 80.1646 99.352C79.354 99.352 78.6393 99.1973 78.0206 98.888C77.4126 98.5893 76.938 98.1627 76.5966 97.608L77.5406 96.664C77.786 97.0907 78.1166 97.432 78.5326 97.688C78.9593 97.944 79.5033 98.072 80.1646 98.072C80.9006 98.072 81.4766 97.9013 81.8926 97.56C82.3193 97.2293 82.5326 96.7333 82.5326 96.072C82.5326 95.4 82.3033 94.8667 81.8446 94.472C81.3966 94.0667 80.7406 93.864 79.8766 93.864H79.4606V92.68H79.9086C80.6766 92.68 81.2633 92.4933 81.6686 92.12C82.0846 91.7467 82.2926 91.2827 82.2926 90.728C82.2926 90.344 82.202 90.0293 82.0206 89.784C81.8393 89.5387 81.594 89.3573 81.2846 89.24C80.9753 89.112 80.618 89.048 80.2126 89.048C79.626 89.048 79.1086 89.176 78.6606 89.432C78.2233 89.6773 77.882 90.024 77.6366 90.472L76.7726 89.576C76.9646 89.2133 77.2366 88.8987 77.5886 88.632C77.9513 88.3653 78.3673 88.1573 78.8366 88.008C79.3166 87.8587 79.8233 87.784 80.3566 87.784C81.0286 87.784 81.6206 87.9013 82.1326 88.136C82.6553 88.3707 83.0606 88.7013 83.3486 89.128C83.6366 89.5547 83.7806 90.056 83.7806 90.632C83.7806 91.048 83.7006 91.4427 83.5406 91.816C83.3806 92.1787 83.146 92.488 82.8366 92.744C82.538 92.9893 82.1806 93.1493 81.7646 93.224ZM93.7873 92.312C93.7873 93.2507 93.6113 94.088 93.2593 94.824C92.9073 95.5493 92.4273 96.12 91.8193 96.536C91.2113 96.952 90.5179 97.16 89.7393 97.16C88.9606 97.16 88.2673 96.952 87.6593 96.536C87.0513 96.12 86.5713 95.5493 86.2193 94.824C85.8673 94.088 85.6913 93.2507 85.6913 92.312C85.6913 91.3733 85.8673 90.5413 86.2193 89.816C86.5713 89.08 87.0513 88.504 87.6593 88.088C88.2673 87.6613 88.9606 87.448 89.7393 87.448C90.5179 87.448 91.2113 87.6613 91.8193 88.088C92.4273 88.504 92.9073 89.08 93.2593 89.816C93.6113 90.5413 93.7873 91.3733 93.7873 92.312ZM92.3633 92.312C92.3633 91.608 92.2513 90.9893 92.0273 90.456C91.8033 89.9227 91.4939 89.5067 91.0993 89.208C90.7046 88.9093 90.2513 88.76 89.7393 88.76C89.2166 88.76 88.7579 88.9093 88.3633 89.208C87.9686 89.5067 87.6593 89.9227 87.4353 90.456C87.2113 90.9893 87.0993 91.608 87.0993 92.312C87.0993 93.016 87.2113 93.6347 87.4353 94.168C87.6593 94.6907 87.9686 95.1013 88.3633 95.4C88.7579 95.6987 89.2166 95.848 89.7393 95.848C90.2513 95.848 90.7046 95.6987 91.0993 95.4C91.4939 95.1013 91.8033 94.6907 92.0273 94.168C92.2513 93.6347 92.3633 93.016 92.3633 92.312ZM104.73 93.224C105.189 93.2987 105.584 93.4693 105.914 93.736C106.245 93.992 106.501 94.3227 106.682 94.728C106.864 95.1227 106.954 95.5707 106.954 96.072C106.954 96.7227 106.794 97.2933 106.474 97.784C106.165 98.2853 105.722 98.6693 105.146 98.936C104.57 99.2133 103.898 99.352 103.13 99.352C102.32 99.352 101.605 99.1973 100.986 98.888C100.378 98.5893 99.9036 98.1627 99.5623 97.608L100.506 96.664C100.752 97.0907 101.082 97.432 101.498 97.688C101.925 97.944 102.469 98.072 103.13 98.072C103.866 98.072 104.442 97.9013 104.858 97.56C105.285 97.2293 105.498 96.7333 105.498 96.072C105.498 95.4 105.269 94.8667 104.81 94.472C104.362 94.0667 103.706 93.864 102.842 93.864H102.426V92.68H102.874C103.642 92.68 104.229 92.4933 104.634 92.12C105.05 91.7467 105.258 91.2827 105.258 90.728C105.258 90.344 105.168 90.0293 104.986 89.784C104.805 89.5387 104.56 89.3573 104.25 89.24C103.941 89.112 103.584 89.048 103.178 89.048C102.592 89.048 102.074 89.176 101.626 89.432C101.189 89.6773 100.848 90.024 100.602 90.472L99.7383 89.576C99.9303 89.2133 100.202 88.8987 100.554 88.632C100.917 88.3653 101.333 88.1573 101.802 88.008C102.282 87.8587 102.789 87.784 103.322 87.784C103.994 87.784 104.586 87.9013 105.098 88.136C105.621 88.3707 106.026 88.7013 106.314 89.128C106.602 89.5547 106.746 90.056 106.746 90.632C106.746 91.048 106.666 91.4427 106.506 91.816C106.346 92.1787 106.112 92.488 105.802 92.744C105.504 92.9893 105.146 93.1493 104.73 93.224ZM113.313 99.032V96.328H108.177V95.08L113.761 87.864H114.721V95.048H116.129V96.328H114.721V99.032H113.313ZM109.633 95.048H113.457V90.04L109.633 95.048ZM123.137 88.968H117.297V87.672H125.361L119.649 99.032H118.049L123.137 88.968ZM132.393 95.72V97H126.649V95.72H128.921V89.48C128.825 89.608 128.676 89.7467 128.473 89.896C128.271 90.0347 128.041 90.168 127.785 90.296C127.529 90.424 127.273 90.5307 127.017 90.616C126.761 90.6907 126.527 90.728 126.313 90.728V89.384C126.548 89.384 126.804 89.32 127.081 89.192C127.369 89.0533 127.647 88.8933 127.913 88.712C128.18 88.5307 128.404 88.36 128.585 88.2C128.777 88.04 128.889 87.928 128.921 87.864H130.361V95.72H132.393ZM133.506 91.784C133.506 91.0587 133.682 90.4027 134.034 89.816C134.397 89.2187 134.888 88.744 135.506 88.392C136.125 88.04 136.813 87.864 137.57 87.864C138.392 87.864 139.106 88.0613 139.714 88.456C140.333 88.84 140.813 89.4 141.154 90.136C141.506 90.8613 141.682 91.736 141.682 92.76C141.682 94.2533 141.506 95.496 141.154 96.488C140.802 97.48 140.306 98.2213 139.666 98.712C139.026 99.2133 138.28 99.464 137.426 99.464C136.69 99.464 136.018 99.2827 135.41 98.92C134.813 98.568 134.344 98.0773 134.002 97.448L134.866 96.6C135.101 97.0907 135.448 97.4853 135.906 97.784C136.376 98.0827 136.888 98.232 137.442 98.232C138.029 98.232 138.536 98.056 138.962 97.704C139.4 97.352 139.736 96.8453 139.97 96.184C140.216 95.5227 140.344 94.7227 140.354 93.784C140.205 94.1467 139.981 94.4667 139.682 94.744C139.394 95.0213 139.058 95.2347 138.674 95.384C138.29 95.5333 137.874 95.608 137.426 95.608C136.701 95.608 136.04 95.4373 135.442 95.096C134.845 94.7547 134.37 94.296 134.018 93.72C133.677 93.144 133.506 92.4987 133.506 91.784ZM137.554 89.08C137.064 89.08 136.61 89.2027 136.194 89.448C135.789 89.6933 135.464 90.0187 135.218 90.424C134.973 90.8293 134.85 91.2827 134.85 91.784C134.85 92.2747 134.973 92.7227 135.218 93.128C135.464 93.5333 135.789 93.8587 136.194 94.104C136.61 94.3493 137.064 94.472 137.554 94.472C138.056 94.472 138.509 94.3493 138.914 94.104C139.32 93.8587 139.645 93.5333 139.89 93.128C140.136 92.7227 140.258 92.2747 140.258 91.784C140.258 91.2933 140.136 90.8453 139.89 90.44C139.645 90.024 139.314 89.6933 138.898 89.448C138.493 89.2027 138.045 89.08 137.554 89.08ZM151.286 93.784C151.286 94.456 151.1 95.0427 150.726 95.544C150.364 96.0453 149.873 96.4347 149.254 96.712C148.646 96.9893 147.98 97.128 147.254 97.128C146.497 97.128 145.82 96.9787 145.222 96.68C144.625 96.3707 144.15 95.96 143.798 95.448C143.457 94.936 143.286 94.36 143.286 93.72C143.286 93.2507 143.393 92.8293 143.606 92.456C143.82 92.0827 144.086 91.768 144.406 91.512C144.737 91.2453 145.073 91.048 145.414 90.92C145.105 90.7813 144.817 90.6 144.55 90.376C144.284 90.152 144.07 89.8907 143.91 89.592C143.75 89.2933 143.67 88.968 143.67 88.616C143.67 88.136 143.777 87.7147 143.99 87.352C144.204 86.9787 144.486 86.664 144.838 86.408C145.19 86.152 145.58 85.96 146.006 85.832C146.433 85.704 146.86 85.64 147.286 85.64C147.713 85.64 148.14 85.704 148.566 85.832C148.993 85.96 149.382 86.152 149.734 86.408C150.097 86.6533 150.385 86.9627 150.598 87.336C150.812 87.6987 150.918 88.12 150.918 88.6C150.918 88.952 150.838 89.2827 150.678 89.592C150.518 89.8907 150.3 90.152 150.022 90.376C149.756 90.6 149.462 90.7813 149.142 90.92C149.526 91.0693 149.878 91.2827 150.198 91.56C150.529 91.8267 150.79 92.1467 150.982 92.52C151.185 92.8933 151.286 93.3147 151.286 93.784ZM149.862 93.688C149.862 93.3467 149.788 93.0427 149.638 92.776C149.489 92.4987 149.286 92.2693 149.03 92.088C148.774 91.896 148.492 91.752 148.182 91.656C147.884 91.56 147.58 91.512 147.27 91.512C146.844 91.512 146.433 91.6027 146.038 91.784C145.654 91.9653 145.34 92.2213 145.094 92.552C144.849 92.872 144.726 93.256 144.726 93.704C144.726 94.0347 144.801 94.3333 144.95 94.6C145.1 94.8667 145.297 95.096 145.542 95.288C145.798 95.48 146.076 95.624 146.374 95.72C146.684 95.816 146.993 95.864 147.302 95.864C147.729 95.864 148.134 95.7733 148.518 95.592C148.913 95.4107 149.233 95.1547 149.478 94.824C149.734 94.4933 149.862 94.1147 149.862 93.688ZM145.094 88.664C145.094 89.0373 145.206 89.3573 145.43 89.624C145.654 89.8907 145.937 90.0933 146.278 90.232C146.62 90.36 146.956 90.424 147.286 90.424C147.628 90.424 147.964 90.3547 148.294 90.216C148.636 90.0773 148.918 89.8747 149.142 89.608C149.366 89.3413 149.478 89.016 149.478 88.632C149.478 88.2693 149.372 87.96 149.158 87.704C148.956 87.448 148.684 87.2507 148.342 87.112C148.012 86.9733 147.654 86.904 147.27 86.904C146.897 86.904 146.54 86.9787 146.198 87.128C145.868 87.2667 145.601 87.4693 145.398 87.736C145.196 87.992 145.094 88.3013 145.094 88.664Z" fill="white"/>
</svg>
