<svg width="20" height="20" viewBox="0 0 20 20" fill="none" xmlns="http://www.w3.org/2000/svg">
<path d="M18.6594 16.771C18.6594 16.771 17.5008 17.909 17.2168 18.2427C16.7543 18.7363 16.2093 18.9693 15.4949 18.9693C15.4262 18.9693 15.3529 18.9693 15.2842 18.9648C13.924 18.8779 12.66 18.3478 11.712 17.8953C9.11993 16.643 6.84382 14.8652 4.95241 12.612C3.39073 10.7336 2.34656 8.99687 1.65503 7.13217C1.22911 5.99415 1.0734 5.1075 1.1421 4.27113C1.1879 3.7364 1.39398 3.29308 1.7741 2.91374L3.33577 1.35526C3.56018 1.14502 3.79832 1.03076 4.03189 1.03076C4.32041 1.03076 4.55397 1.20443 4.70052 1.35069C4.7051 1.35526 4.70968 1.35983 4.71426 1.3644C4.99363 1.62491 5.25925 1.89456 5.53861 2.18249C5.68058 2.32874 5.82713 2.47499 5.97368 2.62581L7.22394 3.87351C7.70939 4.35797 7.70939 4.80586 7.22394 5.29032C7.09113 5.42286 6.96289 5.5554 6.83008 5.68337C6.44539 6.07642 6.74759 5.77483 6.34916 6.13132C6.34 6.14046 6.33084 6.14503 6.32626 6.15417C5.9324 6.54722 6.00568 6.93113 6.08811 7.19164C6.09269 7.20535 6.09727 7.21906 6.10185 7.23277C6.42701 8.01887 6.88498 8.75926 7.58109 9.64134L7.58567 9.64591C8.84967 11.1998 10.1824 12.411 11.6524 13.3387C11.8402 13.4576 12.0326 13.5536 12.2157 13.645C12.3806 13.7272 12.5363 13.8049 12.6691 13.8872C12.6875 13.8963 12.7058 13.91 12.7241 13.9192C12.8798 13.9969 13.0264 14.0334 13.1775 14.0334C13.5576 14.0334 13.7957 13.7958 13.8736 13.7181L14.7713 12.8222C14.927 12.6668 15.1743 12.4795 15.4628 12.4795C15.7468 12.4795 15.9803 12.6577 16.1223 12.8131C16.1269 12.8177 16.1269 12.8177 16.1315 12.8222L18.6549 15.3405C19.1266 15.8067 18.6594 16.771 18.6594 16.771Z" stroke="white" stroke-width="2" stroke-linecap="round" stroke-linejoin="round"/>
</svg>
