<svg width="24" height="24" viewBox="0 0 24 24" fill="none" xmlns="http://www.w3.org/2000/svg">
<path d="M22.0918 12.6C22.0918 12.0478 21.6441 11.6 21.0918 11.6C20.5395 11.6 20.0918 12.0478 20.0918 12.6H22.0918ZM11.4918 4.00005C12.0441 4.00005 12.4918 3.55233 12.4918 3.00005C12.4918 2.44776 12.0441 2.00005 11.4918 2.00005V4.00005ZM17.2918 12.6C17.2918 12.0478 16.8441 11.6 16.2918 11.6C15.7395 11.6 15.2918 12.0478 15.2918 12.6H17.2918ZM11.4918 8.80005C12.0441 8.80005 12.4918 8.35233 12.4918 7.80005C12.4918 7.24776 12.0441 6.80005 11.4918 6.80005V8.80005ZM16.4415 8.87102C16.8321 8.4805 16.8321 7.84733 16.4415 7.45681C16.051 7.06629 15.4178 7.06629 15.0273 7.45681L16.4415 8.87102ZM10.7847 11.6995C10.3942 12.09 10.3942 12.7231 10.7847 13.1137C11.1752 13.5042 11.8084 13.5042 12.1989 13.1137L10.7847 11.6995ZM22.1004 5.19416L22.8075 5.90127C23.0753 5.63344 23.1689 5.23727 23.0491 4.87793C22.9293 4.5186 22.6168 4.25778 22.2418 4.20421L22.1004 5.19416ZM18.282 9.01254L17.9658 9.96122C18.3251 10.081 18.7213 9.98748 18.9891 9.71964L18.282 9.01254ZM14.8879 5.61843L14.1808 4.91132C13.913 5.17915 13.8195 5.57532 13.9392 5.93465L14.8879 5.61843ZM18.7063 1.80005L19.6962 1.65863C19.6427 1.28366 19.3819 0.971144 19.0225 0.851366C18.6632 0.731587 18.267 0.82511 17.9992 1.09294L18.7063 1.80005ZM15.7365 8.16401L14.7878 8.48024C14.8873 8.77884 15.1216 9.01316 15.4202 9.11269L15.7365 8.16401ZM19.1306 4.7699L18.1406 4.91132C18.2035 5.3513 18.5492 5.69699 18.9891 5.75985L19.1306 4.7699ZM20.0918 12.6C20.0918 17.3497 16.2414 21.2001 11.4918 21.2001V23.2001C17.346 23.2001 22.0918 18.4543 22.0918 12.6H20.0918ZM11.4918 21.2001C6.74214 21.2001 2.89178 17.3497 2.89178 12.6H0.891785C0.891785 18.4543 5.63757 23.2001 11.4918 23.2001V21.2001ZM2.89178 12.6C2.89178 7.8504 6.74214 4.00005 11.4918 4.00005V2.00005C5.63757 2.00005 0.891785 6.74583 0.891785 12.6H2.89178ZM15.2918 12.6C15.2918 14.6987 13.5905 16.4 11.4918 16.4V18.4C14.695 18.4 17.2918 15.8033 17.2918 12.6H15.2918ZM11.4918 16.4C9.3931 16.4 7.69178 14.6987 7.69178 12.6H5.69178C5.69178 15.8033 8.28853 18.4 11.4918 18.4V16.4ZM7.69178 12.6C7.69178 10.5014 9.3931 8.80005 11.4918 8.80005V6.80005C8.28853 6.80005 5.69178 9.3968 5.69178 12.6H7.69178ZM15.0273 7.45681L10.7847 11.6995L12.1989 13.1137L16.4415 8.87102L15.0273 7.45681ZM21.3933 4.48705L17.5749 8.30543L18.9891 9.71964L22.8075 5.90127L21.3933 4.48705ZM15.595 6.32553L19.4134 2.50716L17.9992 1.09294L14.1808 4.91132L15.595 6.32553ZM18.5983 8.06385L16.0527 7.21533L15.4202 9.11269L17.9658 9.96122L18.5983 8.06385ZM16.6851 7.84778L15.8366 5.3022L13.9392 5.93465L14.7878 8.48024L16.6851 7.84778ZM17.7163 1.94147L18.1406 4.91132L20.1205 4.62848L19.6962 1.65863L17.7163 1.94147ZM18.9891 5.75985L21.959 6.18411L22.2418 4.20421L19.272 3.77995L18.9891 5.75985Z" fill="#0092FF"/>
</svg>
