<svg width="24" height="22" viewBox="0 0 24 22" fill="none" xmlns="http://www.w3.org/2000/svg">
<path d="M8.75211 3.25546L10.0232 1.42882C10.2101 1.16017 10.5167 1 10.844 1H12.6491C12.9752 1 13.2808 1.15898 13.4679 1.426L14.7257 3.22032M8.75211 3.25546C8.40526 3.75031 7.82872 3.99279 7.21677 3.94956M8.75211 3.25546C8.40358 3.74912 7.82872 3.9948 7.21677 3.94956M7.21677 3.94956L4.96767 3.80836C4.64683 3.78821 4.33586 3.92355 4.13194 4.17208L2.99144 5.56208C2.77524 5.82557 2.70813 6.18104 2.8134 6.50522L3.46924 8.52504M3.46924 8.52504C3.55817 8.81338 3.56955 9.12227 3.50591 9.41401M3.46924 8.52504C3.55943 8.81286 3.57039 9.12114 3.50549 9.41699M3.50591 9.41401C3.44143 9.70229 3.30319 9.9745 3.09794 10.1949M3.50591 9.41401L3.50549 9.41699M3.09794 10.1949L1.61184 11.7933C1.38344 12.0389 1.29341 12.3827 1.37209 12.7088L1.77465 14.377C1.85308 14.702 2.08872 14.9663 2.40263 15.0813L4.44448 15.8297C4.72938 15.9399 4.9755 16.1191 5.16178 16.3449M3.09794 10.1949C3.30445 9.9763 3.44143 9.70497 3.50549 9.41699M5.16178 16.3449C5.3468 16.5713 5.47281 16.8445 5.5217 17.1404M5.16178 16.3449C5.34849 16.5713 5.47492 16.8438 5.5217 17.1404M5.16178 16.3449L5.15883 16.3416C5.14661 16.3268 5.13355 16.3114 5.1209 16.297M5.5217 17.1404L5.86937 19.2759C5.92263 19.6031 6.13459 19.8827 6.43526 20.0223L8.06319 20.7781C8.35426 20.9132 8.6925 20.9005 8.97256 20.7438L10.8863 19.6731M10.8863 19.6731C11.1514 19.5242 11.4473 19.4495 11.7431 19.4491M10.8863 19.6731C10.9913 19.6134 11.1013 19.5657 11.2142 19.5299C11.3858 19.4756 11.5644 19.4488 11.7431 19.4491M11.7431 19.4491C11.897 19.4495 12.0508 19.4698 12.2008 19.51C12.3403 19.5474 12.476 19.6018 12.6046 19.6731M11.7431 19.4491C12.0403 19.4487 12.3378 19.5234 12.6046 19.6731M12.6046 19.6731L14.6081 20.7576C14.8893 20.9099 15.2265 20.9185 15.5151 20.7806L17.1352 20.0068C17.4348 19.8637 17.6439 19.5812 17.6932 19.2529L18.0046 17.178M18.0046 17.178C18.0514 16.8805 18.1757 16.6052 18.3603 16.3768M18.0046 17.178C18.0497 16.8798 18.1749 16.6049 18.3603 16.3768M18.3603 16.3768C18.5437 16.1508 18.7868 15.9707 19.0701 15.8593M18.3603 16.3768C18.5432 16.1499 18.7856 15.9693 19.0701 15.8593M19.0701 15.8593L21.133 15.0508C21.441 14.9301 21.6694 14.6649 21.743 14.3425L22.1287 12.6539C22.2022 12.3323 22.1123 11.9952 21.8885 11.7528L20.3934 10.134M20.3934 10.134C20.1844 9.91277 20.0385 9.64855 19.9677 9.36774M20.3934 10.134C20.2952 10.0307 20.2109 9.91771 20.1422 9.79797C20.0638 9.66199 20.0052 9.51726 19.9677 9.36774M19.9677 9.36774C19.8982 9.08893 19.9024 8.79349 19.9905 8.50752L20.6371 6.43487C20.7375 6.11307 20.669 5.76235 20.4549 5.50196L19.3425 4.14894C19.1362 3.89805 18.821 3.76298 18.497 3.7867L16.2737 3.94956M16.2737 3.94956C15.9694 3.97104 15.6702 3.91308 15.4039 3.78839M16.2737 3.94956C15.969 3.97228 15.6702 3.91385 15.4039 3.78839M15.4039 3.78839C15.1358 3.6621 14.9006 3.4679 14.7257 3.22032M15.4039 3.78839C15.1354 3.66256 14.8998 3.46888 14.7257 3.22032M3.50549 9.41699L3.50633 9.41261M15.132 11.0106C15.132 12.8756 13.5861 14.3874 11.6795 14.3874C9.77287 14.3874 8.22699 12.8756 8.22699 11.0106C8.22699 9.14566 9.77287 7.63386 11.6795 7.63386C13.5861 7.63386 15.132 9.14566 15.132 11.0106Z" stroke="#0092FF" stroke-width="2"/>
</svg>
