<svg width="50" height="50" viewBox="0 0 50 50" fill="none" xmlns="http://www.w3.org/2000/svg">
<path d="M18.0625 29.8538C18.0625 32.5413 20.125 34.7079 22.6875 34.7079H27.9167C30.1458 34.7079 31.9583 32.8121 31.9583 30.4788C31.9583 27.9371 30.8542 27.0413 29.2083 26.4579L20.8125 23.5413C19.1667 22.9579 18.0625 22.0621 18.0625 19.5204C18.0625 17.1871 19.875 15.2913 22.1042 15.2913H27.3333C29.8958 15.2913 31.9583 17.4579 31.9583 20.1454" stroke="white" stroke-width="3" stroke-linecap="round" stroke-linejoin="round"/>
<path d="M24.9961 12.5V37.5" stroke="white" stroke-width="3" stroke-linecap="round" stroke-linejoin="round"/>
<path d="M31.2461 45.8334H18.7461C8.32942 45.8334 4.16276 41.6667 4.16276 31.2501V18.7501C4.16276 8.33341 8.32942 4.16675 18.7461 4.16675H31.2461C41.6628 4.16675 45.8294 8.33341 45.8294 18.7501V31.2501C45.8294 41.6667 41.6628 45.8334 31.2461 45.8334Z" stroke="white" stroke-width="3" stroke-linecap="round" stroke-linejoin="round"/>
</svg>
