<svg width="44" height="44" viewBox="0 0 44 44" fill="none" xmlns="http://www.w3.org/2000/svg">
<path d="M15.9961 16V14.5C15.1677 14.5 14.4961 15.1716 14.4961 16H15.9961ZM16.1953 16H17.6953C17.6953 15.1716 17.0237 14.5 16.1953 14.5V16ZM27.9961 16V14.5C27.1677 14.5 26.4961 15.1716 26.4961 16H27.9961ZM28.1732 16H29.6732C29.6732 15.1716 29.0016 14.5 28.1732 14.5V16ZM16.1953 16.1602V17.6602C17.0237 17.6602 17.6953 16.9886 17.6953 16.1602H16.1953ZM15.9961 16.1602H14.4961C14.4961 16.9886 15.1677 17.6602 15.9961 17.6602V16.1602ZM28.1732 16.1602V17.6602C29.0016 17.6602 29.6732 16.9886 29.6732 16.1602H28.1732ZM27.9961 16.1602H26.4961C26.4961 16.9886 27.1677 17.6602 27.9961 17.6602V16.1602ZM16.3381 27.2921C15.9021 26.5877 14.9776 26.3701 14.2732 26.8062C13.5688 27.2422 13.3512 28.1667 13.7872 28.8711L16.3381 27.2921ZM30.2049 28.8711C30.641 28.1667 30.4234 27.2422 29.719 26.8062C29.0146 26.3701 28.0901 26.5877 27.6541 27.2921L30.2049 28.8711ZM40.4961 22C40.4961 32.2173 32.2134 40.5 21.9961 40.5V43.5C33.8702 43.5 43.4961 33.8741 43.4961 22H40.4961ZM21.9961 40.5C11.7788 40.5 3.49609 32.2173 3.49609 22H0.496094C0.496094 33.8741 10.122 43.5 21.9961 43.5V40.5ZM3.49609 22C3.49609 11.7827 11.7788 3.5 21.9961 3.5V0.5C10.122 0.5 0.496094 10.1259 0.496094 22H3.49609ZM21.9961 3.5C32.2134 3.5 40.4961 11.7827 40.4961 22H43.4961C43.4961 10.1259 33.8702 0.5 21.9961 0.5V3.5ZM15.9961 17.5H16.1953V14.5H15.9961V17.5ZM27.9961 17.5H28.1732V14.5H27.9961V17.5ZM14.6953 16V16.1602H17.6953V16H14.6953ZM16.1953 14.6602H15.9961V17.6602H16.1953V14.6602ZM17.4961 16.1602V16H14.4961V16.1602H17.4961ZM26.6732 16V16.1602H29.6732V16H26.6732ZM28.1732 14.6602H27.9961V17.6602H28.1732V14.6602ZM29.4961 16.1602V16H26.4961V16.1602H29.4961ZM21.9961 30.4999C19.6353 30.4999 17.5416 29.2363 16.3381 27.2921L13.7872 28.8711C15.5002 31.6383 18.5271 33.4999 21.9961 33.4999V30.4999ZM27.6541 27.2921C26.4506 29.2363 24.3569 30.4999 21.9961 30.4999V33.4999C25.4651 33.4999 28.492 31.6383 30.2049 28.8711L27.6541 27.2921Z" fill="white"/>
</svg>
