<svg width="46" height="41" viewBox="0 0 46 41" fill="none" xmlns="http://www.w3.org/2000/svg">
<path d="M21.4175 2.08218L22.1229 3.40598L22.1229 3.40598L21.4175 2.08218ZM5.0755 10.7897L4.37014 9.46592L4.37014 9.46592L5.0755 10.7897ZM40.9141 10.7897L40.2087 12.1135L40.9141 10.7897ZM24.5721 2.08218L23.8667 3.40598L23.8667 3.40598L24.5721 2.08218ZM5.0755 16.7101L5.80791 15.401L5.79447 15.3935L5.78087 15.3863L5.0755 16.7101ZM21.4175 25.4176L22.1229 24.0938L22.1143 24.0893L21.4175 25.4176ZM9.38979 32.1246L8.12848 32.9365L8.14133 32.9564L8.15482 32.976L9.38979 32.1246ZM36.4784 31.8318L35.1769 31.0862L35.1769 31.0862L36.4784 31.8318ZM24.5721 25.4176L25.2774 26.7414L25.2774 26.7414L24.5721 25.4176ZM40.9141 16.7101L40.2087 15.3863L40.2087 15.3863L40.9141 16.7101ZM36.7138 31.3684L35.3108 30.8377L35.3108 30.8377L36.7138 31.3684ZM36.8223 30.9606L35.3412 30.7235L35.3412 30.7235L36.8223 30.9606ZM43.9402 12.8972L45.3088 12.2833L45.3088 12.2833L43.9402 12.8972ZM43.9402 14.6026L45.3088 15.2165L45.3088 15.2165L43.9402 14.6026ZM22.5994 25.9429L22.8841 24.4701L22.8841 24.4701L22.5994 25.9429ZM23.3902 25.9429L23.1055 24.4701L23.1055 24.4701L23.3902 25.9429ZM2.04944 12.8972L3.41804 13.5111L3.41804 13.5111L2.04944 12.8972ZM2.04944 14.6026L3.41804 13.9887L3.41804 13.9887L2.04944 14.6026ZM8.97895 31.1862L7.50171 31.4466L7.50171 31.4466L8.97895 31.1862ZM9.10975 31.6311L7.72668 32.2118L7.72669 32.2118L9.10975 31.6311ZM22.5994 1.5569L22.3148 0.0841591L22.3148 0.0841595L22.5994 1.5569ZM23.3902 1.5569L23.6748 0.0841591L23.6748 0.0841591L23.3902 1.5569ZM45.6298 13.7595C45.6298 12.9311 44.9583 12.2595 44.1298 12.2595C43.3014 12.2595 42.6298 12.9311 42.6298 13.7595H45.6298ZM42.6298 27.312C42.6298 28.1404 43.3014 28.812 44.1298 28.812C44.9583 28.812 45.6298 28.1404 45.6298 27.312H42.6298ZM20.7122 0.758373L4.37014 9.46592L5.78087 12.1135L22.1229 3.40598L20.7122 0.758373ZM41.6195 9.46591L25.2774 0.758373L23.8667 3.40598L40.2087 12.1135L41.6195 9.46591ZM4.3431 18.0191L8.21493 20.1854L9.67974 17.5673L5.80791 15.401L4.3431 18.0191ZM8.25055 20.2047L20.7207 26.746L22.1143 24.0893L9.64412 17.548L8.25055 20.2047ZM7.44733 18.8764V30.5202H10.4473V18.8764H7.44733ZM8.15482 32.976C9.18399 34.4689 10.7028 36.3122 13.0961 37.7731C15.4997 39.2401 18.6943 40.2662 22.9948 40.2662V37.2662C19.1974 37.2662 16.5523 36.3679 14.6591 35.2124C12.7558 34.0506 11.521 32.5732 10.6248 31.2732L8.15482 32.976ZM22.9948 40.2662C31.7741 40.2662 35.9505 35.7706 37.7799 32.5775L35.1769 31.0862C33.7736 33.5355 30.4971 37.2662 22.9948 37.2662V40.2662ZM25.2774 26.7414L37.5539 20.2002L36.1431 17.5525L23.8667 24.0938L25.2774 26.7414ZM37.5539 20.2002L41.6195 18.0339L40.2087 15.3863L36.1431 17.5525L37.5539 20.2002ZM38.3485 30.352V18.8764H35.3485V30.352H38.3485ZM37.7799 32.5775C37.8898 32.3857 38.0095 32.1828 38.1168 31.899L35.3108 30.8377C35.3043 30.855 35.2996 30.8657 35.2873 30.8894C35.2677 30.9271 35.2407 30.9747 35.1769 31.0862L37.7799 32.5775ZM35.3485 30.352C35.3485 30.5096 35.3483 30.5914 35.3461 30.6543C35.3444 30.7046 35.342 30.7183 35.3412 30.7235L38.3035 31.1976C38.3524 30.8919 38.3485 30.6129 38.3485 30.352H35.3485ZM38.1168 31.899C38.1969 31.6872 38.2677 31.4212 38.3035 31.1976L35.3412 30.7235C35.3416 30.7211 35.3408 30.7261 35.3381 30.7387C35.3354 30.7506 35.3319 30.7652 35.3277 30.7811C35.3235 30.797 35.3193 30.8114 35.3156 30.823C35.3118 30.8353 35.3099 30.84 35.3108 30.8377L38.1168 31.899ZM40.2087 12.1135C41.1469 12.6134 41.7563 12.9399 42.1762 13.2164C42.6093 13.5016 42.6068 13.5897 42.5716 13.5111L45.3088 12.2833C44.9817 11.5541 44.3776 11.074 43.8263 10.711C43.2619 10.3393 42.5041 9.93728 41.6195 9.46591L40.2087 12.1135ZM41.6195 18.0339C42.5041 17.5625 43.2619 17.1605 43.8263 16.7888C44.3776 16.4257 44.9817 15.9457 45.3088 15.2165L42.5716 13.9886C42.6068 13.9101 42.6093 13.9982 42.1762 14.2834C41.7563 14.5599 41.1469 14.8864 40.2087 15.3863L41.6195 18.0339ZM42.5716 13.5111C42.6397 13.663 42.6397 13.8368 42.5716 13.9886L45.3088 15.2165C45.7273 14.2836 45.7273 13.2162 45.3088 12.2833L42.5716 13.5111ZM20.7122 26.7414C21.2115 27.0075 21.7332 27.3032 22.3148 27.4156L22.8841 24.4701C22.8502 24.4636 22.7892 24.4488 22.1229 24.0938L20.7122 26.7414ZM23.8667 24.0938C23.2004 24.4488 23.1394 24.4636 23.1055 24.4701L23.6748 27.4156C24.2564 27.3032 24.7782 27.0075 25.2774 26.7414L23.8667 24.0938ZM22.3148 27.4156C22.764 27.5025 23.2256 27.5025 23.6748 27.4156L23.1055 24.4701C23.0324 24.4843 22.9572 24.4843 22.8841 24.4701L22.3148 27.4156ZM4.37014 9.46592C3.48549 9.93728 2.72774 10.3393 2.16335 10.711C1.61203 11.074 1.00794 11.5541 0.680833 12.2833L3.41804 13.5111C3.38279 13.5897 3.38033 13.5016 3.81338 13.2164C4.23335 12.9399 4.8427 12.6134 5.78087 12.1135L4.37014 9.46592ZM5.78087 15.3863C4.84271 14.8864 4.23335 14.5599 3.81338 14.2834C3.38033 13.9982 3.38279 13.9101 3.41804 13.9887L0.680833 15.2165C1.00794 15.9457 1.61203 16.4257 2.16335 16.7888C2.72775 17.1605 3.4855 17.5625 4.37014 18.0339L5.78087 15.3863ZM0.680834 12.2833C0.262313 13.2162 0.262313 14.2836 0.680834 15.2165L3.41804 13.9887C3.34991 13.8368 3.34991 13.663 3.41804 13.5111L0.680834 12.2833ZM7.44733 30.5202C7.44733 30.8058 7.44266 31.1115 7.50171 31.4466L10.4562 30.9259C10.4551 30.9198 10.4523 30.9048 10.4502 30.8504C10.4476 30.7818 10.4473 30.6927 10.4473 30.5202H7.44733ZM10.6511 31.3127C10.5753 31.1951 10.5437 31.1452 10.5207 31.1057C10.5065 31.0812 10.5009 31.0698 10.4928 31.0505L7.72669 32.2118C7.85569 32.519 7.99782 32.7335 8.12848 32.9365L10.6511 31.3127ZM7.50171 31.4466C7.54481 31.6911 7.63055 31.9828 7.72668 32.2118L10.4928 31.0505C10.4941 31.0535 10.4919 31.0485 10.4872 31.0351C10.4828 31.0223 10.4777 31.0064 10.4725 30.9888C10.4673 30.9712 10.463 30.955 10.4598 30.9419C10.4565 30.928 10.4556 30.9227 10.4562 30.9259L7.50171 31.4466ZM22.1229 3.40598C22.7892 3.05097 22.8502 3.03619 22.8841 3.02964L22.3148 0.0841595C21.7332 0.196566 21.2115 0.492321 20.7122 0.758373L22.1229 3.40598ZM25.2774 0.758373C24.7781 0.492321 24.2564 0.196566 23.6748 0.0841591L23.1055 3.02964C23.1394 3.03619 23.2004 3.05097 23.8667 3.40598L25.2774 0.758373ZM22.8841 3.02964C22.9572 3.01551 23.0324 3.01551 23.1055 3.02964L23.6748 0.0841591C23.2256 -0.00266241 22.764 -0.00266241 22.3148 0.0841591L22.8841 3.02964ZM42.6298 13.7595V27.312H45.6298V13.7595H42.6298Z" fill="white"/>
</svg>
