<svg width="22" height="22" viewBox="0 0 22 22" fill="none" xmlns="http://www.w3.org/2000/svg">
<path d="M14.2799 14.3486C14.8038 14.5232 15.3701 14.2401 15.5448 13.7161C15.7194 13.1922 15.4363 12.6259 14.9123 12.4512L14.2799 14.3486ZM10.9961 12.1999H9.99609C9.99609 12.6303 10.2715 13.0125 10.6799 13.1486L10.9961 12.1999ZM11.9961 7.18216C11.9961 6.62988 11.5484 6.18216 10.9961 6.18216C10.4438 6.18216 9.99609 6.62988 9.99609 7.18216H11.9961ZM14.9123 12.4512L11.3123 11.2512L10.6799 13.1486L14.2799 14.3486L14.9123 12.4512ZM11.9961 12.1999V7.18216H9.99609V12.1999H11.9961ZM19.5961 10.9999C19.5961 15.7495 15.7457 19.5999 10.9961 19.5999V21.5999C16.8503 21.5999 21.5961 16.8541 21.5961 10.9999H19.5961ZM10.9961 19.5999C6.24645 19.5999 2.3961 15.7495 2.3961 10.9999H0.396095C0.396095 16.8541 5.14188 21.5999 10.9961 21.5999V19.5999ZM2.3961 10.9999C2.3961 6.25025 6.24645 2.3999 10.9961 2.3999V0.399902C5.14188 0.399902 0.396095 5.14568 0.396095 10.9999H2.3961ZM10.9961 2.3999C15.7457 2.3999 19.5961 6.25025 19.5961 10.9999H21.5961C21.5961 5.14568 16.8503 0.399902 10.9961 0.399902V2.3999Z" fill="white"/>
</svg>
